<svg width="175" height="175" viewBox="0 0 175 175" fill="none" xmlns="http://www.w3.org/2000/svg">
<g filter="url(#filter0_d)">
<rect x="25" y="25" width="125" height="125" rx="20" fill="url(#paint0_linear)"/>
<rect x="25" y="25" width="125" height="125" rx="20" fill="white"/>
</g>
<g filter="url(#filter1_i)">
<circle cx="87.5" cy="87.4994" r="42.25" stroke="#A9D77C" stroke-width="3"/>
<path d="M66.4815 87.6659C66.228 86.2294 64.8581 85.2707 63.4217 85.5242C62.833 85.628 62.2973 85.9284 61.9013 86.3766C61.4065 86.9371 61.1767 87.6835 61.2706 88.4255L61.769 92.3861C62.3663 97.0859 64.5094 101.453 67.8611 104.802C67.7117 104.96 67.6277 105.168 67.6264 105.386V112.308C67.6264 112.786 68.0138 113.173 68.4918 113.173H79.4217C79.8994 113.173 80.2871 112.786 80.2871 112.308V105.386C80.2871 104.908 79.8997 104.52 79.4217 104.52H79.3759V102.79C79.3648 99.8591 78.0062 97.0966 75.692 95.2987L74.427 92.7961C73.8482 91.6632 72.4606 91.2142 71.3277 91.793C71.0457 91.9368 70.7961 92.1378 70.5954 92.3825C70.1638 92.908 69.9915 93.6005 70.1273 94.2671L70.6605 96.9036C70.6763 96.9796 70.7017 97.0533 70.7365 97.1223L70.8342 97.3153C68.7171 95.2742 67.3116 92.607 66.825 89.7065L66.4815 87.6659ZM78.556 106.251V111.443H69.3569V106.251H78.556ZM72.834 100.948C73.2501 101.183 73.7778 101.036 74.0128 100.62C74.155 100.368 74.1619 100.062 74.0316 99.8039L72.3339 96.4464L71.823 93.9239C71.7905 93.7659 71.8316 93.6019 71.9346 93.4782C72.1365 93.2352 72.4971 93.2015 72.7401 93.4034C72.7983 93.4517 72.8464 93.5111 72.8815 93.5779L74.2373 96.2602C74.2989 96.3806 74.3878 96.485 74.4968 96.5648C76.4682 98.0283 77.6343 100.335 77.6448 102.79V104.52H70.076C66.4387 101.351 64.0941 96.9553 63.4882 92.169L62.9876 88.206C62.9556 87.9577 63.0329 87.7075 63.1997 87.5206C63.5332 87.1445 64.1087 87.1103 64.4845 87.4441C64.6347 87.5772 64.7366 87.7561 64.7745 87.9533L65.1205 89.9956C65.9003 94.6258 68.737 98.6532 72.834 100.948Z" fill="#A9D77C"/>
<path d="M112.517 86.3765C111.552 85.2833 109.883 85.18 108.789 86.1454C108.341 86.5411 108.041 87.0771 107.937 87.6658L107.591 89.7072C107.104 92.6075 105.699 95.2749 103.581 97.3161L103.679 97.1231C103.714 97.0538 103.74 96.98 103.755 96.9044L104.288 94.2676C104.424 93.601 104.252 92.9087 103.82 92.383C103.013 91.3997 101.562 91.2569 100.579 92.0643C100.334 92.2653 100.133 92.5144 99.9887 92.7966L98.7262 95.2992C96.4119 97.0971 95.0536 99.8598 95.0426 102.79V104.521H94.9968C94.519 104.521 94.1313 104.908 94.1313 105.386V112.308C94.1313 112.786 94.5188 113.174 94.9968 113.174H105.927C106.404 113.174 106.792 112.786 106.792 112.308V105.386C106.791 105.169 106.707 104.96 106.557 104.802C109.909 101.454 112.052 97.0863 112.649 92.3866L113.15 88.4227C113.243 87.681 113.012 86.9359 112.517 86.3765ZM105.062 111.443H95.8624V106.251H105.062V111.443ZM110.93 92.169C110.324 96.9552 107.979 101.351 104.342 104.52H96.7737V102.79C96.7831 100.333 97.9508 98.0235 99.9244 96.5595C100.033 96.4797 100.122 96.3753 100.184 96.2549L101.54 93.5725C101.686 93.2928 102.032 93.1851 102.312 93.3318C102.379 93.3668 102.438 93.4149 102.486 93.4731C102.59 93.5968 102.63 93.7609 102.598 93.9188L102.087 96.4413L100.39 99.7988C100.174 100.225 100.345 100.746 100.772 100.961C101.03 101.092 101.336 101.085 101.587 100.943C105.685 98.6484 108.522 94.6205 109.302 89.9894L109.648 87.948C109.743 87.4543 110.22 87.1309 110.714 87.2256C110.911 87.2634 111.09 87.3653 111.223 87.5156C111.39 87.7025 111.467 87.9524 111.435 88.2006L110.93 92.169Z" fill="#A9D77C"/>
<path d="M104.515 78.5608H102.785C102.784 79.1075 102.755 79.654 102.698 80.198L104.419 80.3769C104.483 79.7738 104.515 79.1677 104.515 78.5608Z" fill="#A9D77C"/>
<path d="M102.535 75.7669C102.632 76.3045 102.701 76.8471 102.741 77.3919L104.467 77.263C104.422 76.6577 104.346 76.0552 104.238 75.4579L102.535 75.7669Z" fill="#A9D77C"/>
<path d="M97.9302 67.2625C98.3256 67.6392 98.7011 68.036 99.0551 68.4515L100.371 67.3266C99.9769 66.8649 99.5591 66.4239 99.1184 66.0061L97.9302 67.2625Z" fill="#A9D77C"/>
<path d="M101.615 72.6275C101.824 73.1326 102.005 73.6481 102.159 74.1722L103.819 73.6859C103.648 73.1027 103.446 72.5289 103.214 71.9673L101.615 72.6275Z" fill="#A9D77C"/>
<path d="M100.057 69.7519C100.366 70.2023 100.651 70.6684 100.912 71.1486L102.434 70.3238C102.144 69.7903 101.826 69.272 101.482 68.7714L100.057 69.7519Z" fill="#A9D77C"/>
<path d="M103.008 85.6351L101.43 84.9254C101.205 85.4247 100.955 85.9115 100.68 86.3845L102.177 87.2499C102.482 86.7261 102.759 86.1873 103.008 85.6351Z" fill="#A9D77C"/>
<path d="M87.5607 62.9853L87.6021 61.2545C86.996 61.2396 86.3891 61.2575 85.7849 61.308L85.9268 63.0336C86.3479 63.0013 86.7754 62.9853 87.2095 62.9853H87.5607Z" fill="#A9D77C"/>
<path d="M92.9532 62.2308L92.3794 63.8636C92.8947 64.045 93.4003 64.2538 93.8937 64.4885L94.6368 62.9256C94.0881 62.6646 93.5262 62.433 92.9532 62.2308Z" fill="#A9D77C"/>
<path d="M83.9784 61.5565C83.3812 61.6689 82.7905 61.8133 82.209 61.9892L82.7099 63.6455C83.2334 63.4883 83.7642 63.3583 84.3012 63.2561L83.9784 61.5565Z" fill="#A9D77C"/>
<path d="M89.4148 61.3939L89.1995 63.1115C89.7421 63.1805 90.2802 63.2777 90.8126 63.4031L91.2089 61.7181C90.6166 61.5795 90.0179 61.4712 89.4148 61.3939Z" fill="#A9D77C"/>
<path d="M88.7296 94.0642C88.2279 94.1125 87.7162 94.1368 87.2092 94.1368H87.0941L87.0767 95.8674H87.2089C87.7714 95.8674 88.3392 95.8398 88.8961 95.7862L88.7296 94.0642Z" fill="#A9D77C"/>
<path d="M85.4551 94.039C84.9125 93.9785 84.3732 93.8894 83.8395 93.7717L83.4656 95.4617C84.059 95.5923 84.659 95.6917 85.2629 95.7593L85.4551 94.039Z" fill="#A9D77C"/>
<path d="M80.4959 62.6056C79.9365 62.8414 79.3897 63.1065 78.8579 63.3997L79.6935 64.9149C80.1709 64.6509 80.6622 64.4126 81.1647 64.2011L80.4959 62.6056Z" fill="#A9D77C"/>
<path d="M98.7473 89.0243L100.028 90.1879C100.437 89.7387 100.821 89.2676 101.18 88.7774L99.7842 87.7546C99.4608 88.1956 99.1148 88.6195 98.7473 89.0243Z" fill="#A9D77C"/>
<path d="M104.138 82.1764L102.444 81.8163C102.33 82.3506 102.188 82.8788 102.019 83.3983L103.663 83.9348C103.852 83.3571 104.01 82.7703 104.138 82.1764Z" fill="#A9D77C"/>
<path d="M96.3064 91.2049L97.3179 92.6094C97.8108 92.2545 98.2843 91.8737 98.7372 91.4689L97.5835 90.1788C97.1762 90.5431 96.7499 90.8857 96.3064 91.2049Z" fill="#A9D77C"/>
<path d="M71.5186 71.2508L73.0867 71.9829C73.3181 71.488 73.5752 71.0051 73.8568 70.537L72.3743 69.6484C72.0614 70.1673 71.7759 70.7022 71.5186 71.2508Z" fill="#A9D77C"/>
<path d="M74.496 87.5603C74.1812 87.1144 73.8902 86.6521 73.6237 86.1758L72.1155 87.0246C72.4134 87.5534 72.7384 88.0662 73.0888 88.5613L74.496 87.5603Z" fill="#A9D77C"/>
<path d="M73.3945 68.1358L74.7746 69.1793C75.1043 68.7425 75.4572 68.3238 75.8311 67.9246L74.5662 66.7424C74.1517 67.1865 73.7607 67.6515 73.3945 68.1358Z" fill="#A9D77C"/>
<path d="M69.9722 80.1186C70.0274 80.7236 70.1144 81.3253 70.2317 81.9212L71.93 81.5871C71.825 81.0511 71.748 80.5096 71.6991 79.9653L69.9722 80.1186Z" fill="#A9D77C"/>
<path d="M74.2141 89.9908C74.6156 90.4451 75.04 90.8781 75.486 91.2889L76.6593 90.016C76.257 89.6454 75.8742 89.2538 75.5128 88.8435L74.2141 89.9908Z" fill="#A9D77C"/>
<path d="M78.3035 65.7803L77.3127 64.3621C76.8138 64.7097 76.3336 65.083 75.8735 65.481L77.0106 66.7926C77.424 66.4331 77.8553 66.0951 78.3035 65.7803Z" fill="#A9D77C"/>
<path d="M72.8944 84.711C72.679 84.209 72.4898 83.6959 72.3275 83.1743L70.6748 83.6865C70.8546 84.2675 71.065 84.8383 71.3047 85.3972L72.8944 84.711Z" fill="#A9D77C"/>
<path d="M91.9338 93.4071C91.4133 93.5725 90.8845 93.7103 90.3496 93.8199L90.6956 95.5151C91.2909 95.3936 91.8794 95.2404 92.4584 95.0565L91.9338 93.4071Z" fill="#A9D77C"/>
<path d="M82.2612 93.3346C81.7429 93.16 81.2342 92.9579 80.7375 92.729L80.0176 94.3041C80.5701 94.5562 81.1354 94.7793 81.7111 94.9729L82.2612 93.3346Z" fill="#A9D77C"/>
<path d="M96.2383 63.7935L95.334 65.2688C95.8001 65.5546 96.2508 65.8647 96.6848 66.1972L97.7388 64.8248C97.2567 64.4553 96.7558 64.111 96.2383 63.7935Z" fill="#A9D77C"/>
<path d="M95.7883 93.5949L94.93 92.0928C94.4554 92.3634 93.9669 92.6091 93.4668 92.8292L94.1591 94.4137C94.7158 94.1693 95.2597 93.8962 95.7883 93.5949Z" fill="#A9D77C"/>
<path d="M77.9218 91.0658L76.8833 92.4503C77.371 92.8126 77.8768 93.149 78.3993 93.4585L79.2854 91.9737C78.8154 91.6951 78.3601 91.3922 77.9218 91.0658Z" fill="#A9D77C"/>
<path d="M69.9028 78.3013L71.6336 78.3273C71.6411 77.7808 71.6775 77.2346 71.7427 76.692L70.026 76.4844C69.9531 77.0875 69.9122 77.6941 69.9028 78.3013Z" fill="#A9D77C"/>
<path d="M70.3354 74.6914L72.0229 75.0771C72.1441 74.5445 72.2941 74.0187 72.4719 73.5023L70.8363 72.9365C70.6386 73.5123 70.4716 74.0979 70.3354 74.6914Z" fill="#A9D77C"/>
<path d="M86.3438 75.9649V79.4262C86.3438 79.9042 86.7312 80.2916 87.2092 80.2916C87.6871 80.2916 88.0746 79.9042 88.0746 79.4262V75.9649C88.0746 75.4869 87.6871 75.0995 87.2092 75.0995C86.7312 75.0995 86.3438 75.4872 86.3438 75.9649Z" fill="#A9D77C"/>
<path d="M87.2092 83.753C87.6871 83.753 88.0746 83.3656 88.0746 82.8876C88.0746 82.4097 87.6871 82.0222 87.2092 82.0222C86.7312 82.0222 86.3438 82.4097 86.3438 82.8876C86.3438 83.3656 86.7312 83.753 87.2092 83.753Z" fill="#A9D77C"/>
<path d="M97.464 86.804C97.622 86.5488 97.6363 86.2305 97.5024 85.9621L87.9838 66.9251C87.7287 66.4974 87.1753 66.3574 86.7476 66.6125C86.6189 66.689 86.5115 66.7967 86.4347 66.9251L76.9161 85.9621C76.7026 86.3895 76.8758 86.9092 77.3032 87.1229C77.4236 87.1831 77.5562 87.2143 77.6904 87.2143H96.7273C97.0277 87.2143 97.3063 87.0591 97.464 86.804ZM79.0909 85.4835L87.2093 69.2466L95.3276 85.4835H79.0909Z" fill="#A9D77C"/>
</g>
<defs>
<filter id="filter0_d" x="0" y="0" width="175" height="175" filterUnits="userSpaceOnUse" color-interpolation-filters="sRGB">
<feFlood flood-opacity="0" result="BackgroundImageFix"/>
<feColorMatrix in="SourceAlpha" type="matrix" values="0 0 0 0 0 0 0 0 0 0 0 0 0 0 0 0 0 0 127 0"/>
<feOffset/>
<feGaussianBlur stdDeviation="12.5"/>
<feColorMatrix type="matrix" values="0 0 0 0 0 0 0 0 0 0 0 0 0 0 0 0 0 0 0.15 0"/>
<feBlend mode="normal" in2="BackgroundImageFix" result="effect1_dropShadow"/>
<feBlend mode="normal" in="SourceGraphic" in2="effect1_dropShadow" result="shape"/>
</filter>
<filter id="filter1_i" x="43.75" y="43.7494" width="87.5" height="88.5" filterUnits="userSpaceOnUse" color-interpolation-filters="sRGB">
<feFlood flood-opacity="0" result="BackgroundImageFix"/>
<feBlend mode="normal" in="SourceGraphic" in2="BackgroundImageFix" result="shape"/>
<feColorMatrix in="SourceAlpha" type="matrix" values="0 0 0 0 0 0 0 0 0 0 0 0 0 0 0 0 0 0 127 0" result="hardAlpha"/>
<feOffset dy="1"/>
<feGaussianBlur stdDeviation="1"/>
<feComposite in2="hardAlpha" operator="arithmetic" k2="-1" k3="1"/>
<feColorMatrix type="matrix" values="0 0 0 0 0.0208333 0 0 0 0 0.0208333 0 0 0 0 0.0208333 0 0 0 0.25 0"/>
<feBlend mode="normal" in2="shape" result="effect1_innerShadow"/>
</filter>
<linearGradient id="paint0_linear" x1="87.5" y1="25" x2="87.5" y2="150" gradientUnits="userSpaceOnUse">
<stop stop-color="#FFF0A2"/>
<stop offset="1" stop-color="#FFCE4F"/>
</linearGradient>
</defs>
</svg>
