<svg width="310" height="310" viewBox="0 0 310 310" fill="none" xmlns="http://www.w3.org/2000/svg">
<g filter="url(#filter0_d)">
<rect x="25" y="25" width="260" height="260" rx="25" fill="url(#paint0_linear)"/>
<rect x="25" y="25" width="260" height="260" rx="25" fill="white"/>
</g>
<path d="M125.333 204.432L87.9998 162.079L148.235 174.314L134.745 137.294L87.9998 160.197L104.314 99.9609L134.745 135.726L209.098 117.843L149.49 175.883L129.725 206.001" stroke="#707070" stroke-linecap="round" stroke-dasharray="5 5"/>
<path d="M128.784 211.961C131.903 211.961 134.431 209.433 134.431 206.314C134.431 203.195 131.903 200.667 128.784 200.667C125.665 200.667 123.137 203.195 123.137 206.314C123.137 209.433 125.665 211.961 128.784 211.961Z" fill="white"/>
<path d="M128.784 210.706C131.21 210.706 133.176 208.74 133.176 206.314C133.176 203.889 131.21 201.922 128.784 201.922C126.358 201.922 124.392 203.889 124.392 206.314C124.392 208.74 126.358 210.706 128.784 210.706Z" stroke="#707070" stroke-width="4"/>
<path d="M103.686 105.294C106.804 105.294 109.333 102.766 109.333 99.6471C109.333 96.5283 106.804 94 103.686 94C100.567 94 98.0386 96.5283 98.0386 99.6471C98.0386 102.766 100.567 105.294 103.686 105.294Z" fill="white"/>
<path d="M103.686 104.039C106.112 104.039 108.079 102.073 108.079 99.6468C108.079 97.2211 106.112 95.2546 103.686 95.2546C101.261 95.2546 99.2942 97.2211 99.2942 99.6468C99.2942 102.073 101.261 104.039 103.686 104.039Z" stroke="#707070" stroke-width="4"/>
<path d="M135.059 142.941C138.178 142.941 140.706 140.413 140.706 137.294C140.706 134.176 138.178 131.647 135.059 131.647C131.94 131.647 129.412 134.176 129.412 137.294C129.412 140.413 131.94 142.941 135.059 142.941Z" fill="white"/>
<path d="M135.059 141.687C137.485 141.687 139.451 139.72 139.451 137.295C139.451 134.869 137.485 132.903 135.059 132.903C132.633 132.903 130.667 134.869 130.667 137.295C130.667 139.72 132.633 141.687 135.059 141.687Z" stroke="#707070" stroke-width="4"/>
<path d="M210.353 124.118C213.471 124.118 216 121.589 216 118.471C216 115.352 213.471 112.823 210.353 112.823C207.234 112.823 204.706 115.352 204.706 118.471C204.706 121.589 207.234 124.118 210.353 124.118Z" fill="white"/>
<path d="M210.352 122.863C212.778 122.863 214.744 120.896 214.744 118.471C214.744 116.045 212.778 114.078 210.352 114.078C207.926 114.078 205.96 116.045 205.96 118.471C205.96 120.896 207.926 122.863 210.352 122.863Z" stroke="#707070" stroke-width="4"/>
<path d="M148.863 180.589C151.982 180.589 154.51 178.061 154.51 174.942C154.51 171.823 151.982 169.295 148.863 169.295C145.745 169.295 143.216 171.823 143.216 174.942C143.216 178.061 145.745 180.589 148.863 180.589Z" fill="white"/>
<path d="M148.863 179.334C151.289 179.334 153.256 177.367 153.256 174.942C153.256 172.516 151.289 170.55 148.863 170.55C146.438 170.55 144.471 172.516 144.471 174.942C144.471 177.367 146.438 179.334 148.863 179.334Z" stroke="#707070" stroke-width="4"/>
<path d="M77.7227 68H73.3516L72.3438 60.582C72.2578 59.918 72.1953 59.3359 72.1562 58.8359C72.1016 58.3438 72.0469 57.6445 71.9922 56.7383C71.8516 57.5508 71.6328 58.457 71.3359 59.457C71.2734 59.6523 71.2266 59.8203 71.1953 59.9609L68.8633 68H65.7461L63.4141 59.9609C63.3906 59.8281 63.3438 59.6602 63.2734 59.457C62.9453 58.4023 62.7305 57.4961 62.6289 56.7383C62.5664 57.5977 62.5078 58.2383 62.4531 58.6602C62.4297 58.8789 62.3945 59.1992 62.3477 59.6211C62.3008 60.043 62.2656 60.3633 62.2422 60.582L61.2344 68H56.8867L59.5352 50.8438H64.1641L66.7539 59.6914C66.8008 59.8555 66.832 59.9609 66.8477 60.0078C67.0742 60.7422 67.2266 61.4141 67.3047 62.0234C67.3203 61.8125 67.3789 61.4688 67.4805 60.9922C67.5117 60.875 67.6289 60.4336 67.832 59.668L70.4453 50.8438H75.0859L77.7227 68ZM88.9727 62.0703C88.9727 61.1328 88.7266 60.4062 88.2344 59.8906C87.7344 59.3438 87.0625 59.0703 86.2188 59.0703C85.375 59.0703 84.7109 59.3359 84.2266 59.8672C83.7266 60.4141 83.4766 61.1484 83.4766 62.0703C83.4766 63 83.7266 63.7305 84.2266 64.2617C84.7031 64.7852 85.3672 65.0469 86.2188 65.0469C87.0625 65.0469 87.7305 64.7852 88.2227 64.2617C88.7227 63.7383 88.9727 63.0078 88.9727 62.0703ZM92.6406 56.1641V68H88.8086V66.0781C88.2539 66.8984 87.6328 67.5 86.9453 67.8828C86.2656 68.2656 85.4688 68.457 84.5547 68.457C82.9688 68.457 81.707 67.8789 80.7695 66.7227C80.3086 66.1523 79.957 65.4805 79.7148 64.707C79.4727 63.9336 79.3516 63.0625 79.3516 62.0938C79.3516 60.1562 79.8477 58.6211 80.8398 57.4883C81.832 56.3555 83.1602 55.7891 84.8242 55.7891C85.7148 55.7891 86.4805 55.9805 87.1211 56.3633C87.7695 56.7305 88.3242 57.3125 88.7852 58.1094V56.1641H92.6406ZM95.8164 68V56.1641H99.7539V58.9531C100.168 57.9297 100.719 57.168 101.406 56.668C102.117 56.1602 102.973 55.9062 103.973 55.9062C104.199 55.9062 104.367 55.9141 104.477 55.9297C104.562 55.9375 104.641 55.9453 104.711 55.9531C104.781 55.9531 104.871 55.9609 104.98 55.9766L104.582 59.7734C104.293 59.6797 104.043 59.6133 103.832 59.5742C103.52 59.543 103.289 59.5273 103.141 59.5273C102.125 59.5273 101.34 59.8398 100.785 60.4648C100.238 61.082 99.9648 61.9609 99.9648 63.1016V68H95.8164ZM106.551 68V49.8359H110.652V61.332L114.953 56.1641H120.133L114.812 61.8594L120.613 68H115.117L110.652 62.7383V68H106.551ZM130.082 60.5586C130.012 59.9023 129.758 59.3672 129.32 58.9531C128.883 58.5391 128.348 58.332 127.715 58.332C127.051 58.332 126.512 58.5156 126.098 58.8828C125.668 59.2969 125.398 59.8555 125.289 60.5586H130.082ZM134.195 62.9141H125.195C125.219 63.8359 125.449 64.5391 125.887 65.0234C126.34 65.5234 126.996 65.7734 127.855 65.7734C128.48 65.7734 129.016 65.6523 129.461 65.4102C129.914 65.1523 130.242 64.8008 130.445 64.3555L133.586 65.6211C133.219 66.5195 132.555 67.2148 131.594 67.707C130.641 68.207 129.473 68.457 128.09 68.457C126.027 68.457 124.371 67.8789 123.121 66.7227C121.879 65.5977 121.258 64.0938 121.258 62.2109C121.258 60.375 121.879 58.8398 123.121 57.6055C124.363 56.3945 125.941 55.7891 127.855 55.7891C129.809 55.7891 131.352 56.4023 132.484 57.6289C133.062 58.2617 133.492 59 133.773 59.8438C134.055 60.6797 134.195 61.6367 134.195 62.7148V62.9141ZM137.266 68L137.242 59.1172H135.473V56.1641H137.242V52.6367H141.379V56.1641H143.125V59.1172H141.379V68H137.266ZM152.898 68V50.8438H157.574V63.9922H163.387V68H152.898ZM165.285 68V56.1641H169.457V68H165.285ZM165.812 53.1172H165.836C165.836 52.6797 165.988 52.3203 166.293 52.0391C166.598 51.7344 166.965 51.582 167.395 51.582C167.848 51.582 168.219 51.7266 168.508 52.0156C168.805 52.3047 168.953 52.6719 168.953 53.1172C168.953 53.5703 168.801 53.9453 168.496 54.2422C168.199 54.5469 167.832 54.6992 167.395 54.6992C166.949 54.6992 166.574 54.5391 166.27 54.2188C165.965 53.9219 165.812 53.5547 165.812 53.1172ZM172.879 68V56.1641H176.699V58.5664C177.238 57.6289 177.879 56.9258 178.621 56.457C179.34 56.0117 180.211 55.7891 181.234 55.7891C182.008 55.7891 182.695 55.9062 183.297 56.1406C183.891 56.4062 184.371 56.7656 184.738 57.2188C185.074 57.6719 185.297 58.1523 185.406 58.6602C185.539 59.3086 185.605 60.1641 185.605 61.2266V68H181.422V61.6602C181.422 60.6992 181.27 60.0117 180.965 59.5977C180.66 59.168 180.164 58.9531 179.477 58.9531C178.617 58.9531 177.984 59.2734 177.578 59.9141C177.18 60.5547 176.98 61.5938 176.98 63.0312V68H172.879ZM188.582 68V49.8359H192.684V61.332L196.984 56.1641H202.164L196.844 61.8594L202.645 68H197.148L192.684 62.7383V68H188.582ZM212.98 62.0703C212.98 61.1328 212.734 60.4062 212.242 59.8906C211.742 59.3438 211.07 59.0703 210.227 59.0703C209.383 59.0703 208.719 59.3359 208.234 59.8672C207.734 60.4141 207.484 61.1484 207.484 62.0703C207.484 63 207.734 63.7305 208.234 64.2617C208.711 64.7852 209.375 65.0469 210.227 65.0469C211.07 65.0469 211.738 64.7852 212.23 64.2617C212.73 63.7383 212.98 63.0078 212.98 62.0703ZM216.648 56.1641V68H212.816V66.0781C212.262 66.8984 211.641 67.5 210.953 67.8828C210.273 68.2656 209.477 68.457 208.562 68.457C206.977 68.457 205.715 67.8789 204.777 66.7227C204.316 66.1523 203.965 65.4805 203.723 64.707C203.48 63.9336 203.359 63.0625 203.359 62.0938C203.359 60.1562 203.855 58.6211 204.848 57.4883C205.84 56.3555 207.168 55.7891 208.832 55.7891C209.723 55.7891 210.488 55.9805 211.129 56.3633C211.777 56.7305 212.332 57.3125 212.793 58.1094V56.1641H216.648ZM228.824 62.0469C228.824 61.1328 228.586 60.4141 228.109 59.8906C227.594 59.375 226.914 59.1172 226.07 59.1172C225.227 59.1172 224.547 59.375 224.031 59.8906C223.531 60.4141 223.281 61.1328 223.281 62.0469C223.281 62.9688 223.531 63.6797 224.031 64.1797C224.539 64.7109 225.219 64.9766 226.07 64.9766C226.906 64.9766 227.578 64.7109 228.086 64.1797C228.578 63.6875 228.824 62.9766 228.824 62.0469ZM232.492 56.1641V67.9766C232.492 69.7656 231.949 71.0859 230.863 71.9375C230.34 72.3594 229.652 72.6797 228.801 72.8984C227.949 73.1172 226.949 73.2266 225.801 73.2266C223.934 73.2266 222.484 72.8828 221.453 72.1953C220.422 71.5 219.871 70.5352 219.801 69.3008H224.125C224.203 69.6758 224.41 69.9609 224.746 70.1562C225.09 70.3672 225.547 70.4727 226.117 70.4727C227.008 70.4727 227.629 70.2578 227.98 69.8281C228.316 69.3984 228.484 68.4844 228.484 67.0859V66.0078C228.039 66.7578 227.48 67.3086 226.809 67.6602C226.113 68.0273 225.305 68.2109 224.383 68.2109C222.82 68.2109 221.566 67.6445 220.621 66.5117C220.16 65.957 219.809 65.3047 219.566 64.5547C219.324 63.7969 219.203 62.9453 219.203 62C219.203 60.1094 219.699 58.5977 220.691 57.4648C221.184 56.9023 221.762 56.4844 222.426 56.2109C223.098 55.9297 223.848 55.7891 224.676 55.7891C225.559 55.7891 226.324 55.9727 226.973 56.3398C227.613 56.6836 228.168 57.2578 228.637 58.0625V56.1641H232.492ZM243.801 60.5586C243.73 59.9023 243.477 59.3672 243.039 58.9531C242.602 58.5391 242.066 58.332 241.434 58.332C240.77 58.332 240.23 58.5156 239.816 58.8828C239.387 59.2969 239.117 59.8555 239.008 60.5586H243.801ZM247.914 62.9141H238.914C238.938 63.8359 239.168 64.5391 239.605 65.0234C240.059 65.5234 240.715 65.7734 241.574 65.7734C242.199 65.7734 242.734 65.6523 243.18 65.4102C243.633 65.1523 243.961 64.8008 244.164 64.3555L247.305 65.6211C246.938 66.5195 246.273 67.2148 245.312 67.707C244.359 68.207 243.191 68.457 241.809 68.457C239.746 68.457 238.09 67.8789 236.84 66.7227C235.598 65.5977 234.977 64.0938 234.977 62.2109C234.977 60.375 235.598 58.8398 236.84 57.6055C238.082 56.3945 239.66 55.7891 241.574 55.7891C243.527 55.7891 245.07 56.4023 246.203 57.6289C246.781 58.2617 247.211 59 247.492 59.8438C247.773 60.6797 247.914 61.6367 247.914 62.7148V62.9141Z" fill="#54575A"/>
<path d="M60.2046 227.22C59.8046 226.84 58.2646 225.48 55.7246 225.48C51.8846 225.48 48.8046 228.52 48.8046 232.36C48.8046 236.08 51.7646 239.22 55.7646 239.22C57.2046 239.22 58.8446 238.76 60.2046 237.56V236.4C58.8446 237.88 57.0646 238.42 55.7246 238.42C53.0246 238.42 49.7246 236.36 49.7246 232.4C49.7246 229.02 52.2846 226.28 55.7046 226.28C57.4246 226.28 59.0646 227.04 60.2046 228.38V227.22ZM66.0496 230.66C63.6296 230.66 61.7696 232.52 61.7696 234.94C61.7696 237.36 63.6296 239.22 66.0496 239.22C68.4696 239.22 70.3296 237.36 70.3296 234.94C70.3296 232.52 68.4696 230.66 66.0496 230.66ZM66.0496 238.46C64.0896 238.46 62.6096 236.92 62.6096 234.94C62.6096 232.96 64.0896 231.42 66.0496 231.42C68.0096 231.42 69.4896 232.96 69.4896 234.94C69.4896 236.92 68.0096 238.46 66.0496 238.46ZM72.6802 239H73.4802V234.76C73.4802 233.96 73.5602 233.2 73.9202 232.56C74.2202 232.02 74.8002 231.42 75.9202 231.42C76.9002 231.42 77.3402 231.92 77.5202 232.22C77.8202 232.68 77.8402 233.3 77.8402 233.86V239H78.6402V233.86C78.6402 233.14 78.6002 232.38 78.2402 231.8C78.0602 231.52 77.4402 230.66 75.9802 230.66C74.6002 230.66 73.8602 231.44 73.4802 232.12V230.84H72.6802V239ZM81.5279 239H82.3279V234.76C82.3279 233.96 82.4079 233.2 82.7679 232.56C83.0679 232.02 83.6479 231.42 84.7679 231.42C85.7479 231.42 86.1879 231.92 86.3679 232.22C86.6679 232.68 86.6879 233.3 86.6879 233.86V239H87.4879V233.86C87.4879 233.14 87.4479 232.38 87.0879 231.8C86.9079 231.52 86.2879 230.66 84.8279 230.66C83.4479 230.66 82.7079 231.44 82.3279 232.12V230.84H81.5279V239ZM97.6755 235.02C97.6755 232.42 96.0155 230.66 93.8155 230.66C91.8155 230.66 89.8555 232.12 89.8555 234.96C89.8555 237.34 91.3355 239.22 93.8755 239.22C95.8955 239.22 96.9755 237.92 97.4555 237L96.7755 236.6C96.2555 237.68 95.2555 238.46 93.9355 238.46C92.2155 238.46 90.6955 237.1 90.6955 235.02H97.6755ZM90.7555 234.26C90.9755 232.68 92.1555 231.42 93.8155 231.42C95.4355 231.42 96.6355 232.64 96.8355 234.26H90.7555ZM106.584 231.7C105.464 230.76 104.344 230.66 103.764 230.66C101.144 230.66 99.5235 232.56 99.5235 234.98C99.5235 237.4 101.244 239.22 103.704 239.22C105.144 239.22 106.144 238.56 106.684 238.08V237C106.044 237.7 105.024 238.46 103.724 238.46C102.144 238.46 100.364 237.3 100.364 234.96C100.364 232.96 101.764 231.42 103.764 231.42C105.104 231.42 106.044 232.14 106.584 232.76V231.7ZM111.171 231.6V230.84H109.751V227.92H108.951V230.84H108.051V231.6H108.951V239H109.751V231.6H111.171ZM119.726 231.6V230.84H118.306V227.92H117.506V230.84H116.606V231.6H117.506V239H118.306V231.6H119.726ZM125.093 230.66C122.673 230.66 120.813 232.52 120.813 234.94C120.813 237.36 122.673 239.22 125.093 239.22C127.513 239.22 129.373 237.36 129.373 234.94C129.373 232.52 127.513 230.66 125.093 230.66ZM125.093 238.46C123.133 238.46 121.653 236.92 121.653 234.94C121.653 232.96 123.133 231.42 125.093 231.42C127.053 231.42 128.533 232.96 128.533 234.94C128.533 236.92 127.053 238.46 125.093 238.46ZM139.351 232.66C141.651 232.66 143.231 231.36 143.231 229.14C143.231 226.86 141.511 225.66 139.331 225.66H136.751V239H137.631V232.66H139.351ZM137.631 226.46H139.251C141.191 226.46 142.311 227.5 142.311 229.16C142.311 230.84 141.131 231.86 139.391 231.86H137.631V226.46ZM150.492 232.26C149.712 231.16 148.592 230.66 147.312 230.66C144.932 230.66 143.332 232.4 143.332 234.92C143.332 237.6 145.172 239.22 147.312 239.22C148.372 239.22 149.672 238.8 150.492 237.54V239H151.292V230.84H150.492V232.26ZM147.352 231.42C148.752 231.42 150.532 232.44 150.532 234.86C150.532 236.74 149.412 238.46 147.372 238.46C145.312 238.46 144.172 236.7 144.172 234.86C144.172 232.64 145.732 231.42 147.352 231.42ZM154.165 239H154.965V234.76C154.965 233.96 155.045 233.2 155.405 232.56C155.705 232.02 156.285 231.42 157.405 231.42C158.385 231.42 158.825 231.92 159.005 232.22C159.305 232.68 159.325 233.3 159.325 233.86V239H160.125V233.86C160.125 233.14 160.085 232.38 159.725 231.8C159.545 231.52 158.925 230.66 157.465 230.66C156.085 230.66 155.345 231.44 154.965 232.12V230.84H154.165V239ZM168.04 225.66V239H168.92V225.66H168.04ZM172.153 239H172.953V234.76C172.953 233.96 173.033 233.2 173.393 232.56C173.693 232.02 174.273 231.42 175.393 231.42C176.373 231.42 176.813 231.92 176.993 232.22C177.293 232.68 177.313 233.3 177.313 233.86V239H178.113V233.86C178.113 233.14 178.073 232.38 177.713 231.8C177.533 231.52 176.913 230.66 175.453 230.66C174.073 230.66 173.333 231.44 172.953 232.12V230.84H172.153V239ZM187.641 232.26C187.001 231.34 185.961 230.66 184.481 230.66C182.501 230.66 180.481 231.9 180.481 234.88C180.481 237.74 182.421 239.22 184.481 239.22C185.521 239.22 186.821 238.8 187.641 237.54V239H188.441V224.42H187.641V232.26ZM184.481 231.42C186.501 231.42 187.681 232.96 187.681 234.86C187.681 237.24 186.141 238.46 184.521 238.46C182.881 238.46 181.321 237.24 181.321 234.86C181.321 232.58 182.801 231.42 184.481 231.42ZM191.313 230.84V239H192.113V230.84H191.313ZM191.713 228.86C192.113 228.86 192.433 228.56 192.433 228.12C192.433 227.68 192.113 227.38 191.713 227.38C191.313 227.38 190.993 227.68 190.993 228.12C190.993 228.56 191.313 228.86 191.713 228.86ZM201.625 232.26C200.845 231.16 199.725 230.66 198.445 230.66C196.065 230.66 194.465 232.4 194.465 234.92C194.465 237.6 196.305 239.22 198.445 239.22C199.505 239.22 200.805 238.8 201.625 237.54V239H202.425V230.84H201.625V232.26ZM198.485 231.42C199.885 231.42 201.665 232.44 201.665 234.86C201.665 236.74 200.545 238.46 198.505 238.46C196.445 238.46 195.305 236.7 195.305 234.86C195.305 232.64 196.865 231.42 198.485 231.42ZM209.965 224.42V239H210.765V237.54C211.005 237.94 211.905 239.22 213.925 239.22C216.405 239.22 217.925 237.26 217.925 234.86C217.925 232.5 216.425 230.66 213.965 230.66C212.665 230.66 211.545 231.2 210.765 232.26V224.42H209.965ZM213.905 238.46C211.845 238.46 210.725 236.86 210.725 234.82C210.725 232.56 212.325 231.42 213.925 231.42C215.605 231.42 217.085 232.62 217.085 234.86C217.085 236.86 215.965 238.46 213.905 238.46ZM220.278 230.84V235.98C220.278 236.64 220.338 237.5 220.898 238.22C221.518 239.02 222.498 239.22 223.218 239.22C223.938 239.22 224.918 239.02 225.538 238.22C226.098 237.5 226.158 236.64 226.158 235.98V230.84H225.358V235.76C225.358 236.34 225.338 237.2 224.838 237.8C224.338 238.4 223.598 238.46 223.218 238.46C222.838 238.46 222.098 238.4 221.598 237.8C221.098 237.2 221.078 236.34 221.078 235.76V230.84H220.278ZM229.727 243.6H230.647L236.007 230.84H235.087L232.107 238.1L228.687 230.84H227.767L231.647 239.14L229.727 243.6ZM244.902 235.02C244.902 232.42 243.242 230.66 241.042 230.66C239.042 230.66 237.082 232.12 237.082 234.96C237.082 237.34 238.562 239.22 241.102 239.22C243.122 239.22 244.202 237.92 244.682 237L244.002 236.6C243.482 237.68 242.482 238.46 241.162 238.46C239.442 238.46 237.922 237.1 237.922 235.02H244.902ZM237.982 234.26C238.202 232.68 239.382 231.42 241.042 231.42C242.662 231.42 243.862 232.64 244.062 234.26H237.982ZM247.27 239H248.07V234.62C248.07 233.6 248.09 231.42 249.73 231.42C250.09 231.42 250.25 231.52 250.33 231.58L250.73 230.86C250.43 230.7 250.09 230.66 249.87 230.66C248.99 230.66 248.37 231.2 248.07 231.9V230.84H247.27V239ZM256.196 231.98C255.816 231.1 255.016 230.66 254.056 230.66C252.816 230.66 251.876 231.52 251.876 232.76C251.876 233.24 252.056 233.58 252.236 233.82C252.596 234.3 253.196 234.56 254.016 234.9C255.256 235.4 255.836 235.74 255.836 236.66C255.836 237.72 255.056 238.46 254.016 238.46C253.116 238.46 252.256 237.9 251.976 236.82L251.196 237.06C251.536 238.42 252.656 239.22 254.016 239.22C255.276 239.22 256.676 238.48 256.676 236.62C256.676 236.16 256.596 235.72 256.256 235.3C255.736 234.64 254.976 234.42 254.156 234.1C253.356 233.78 252.716 233.52 252.716 232.72C252.716 232.12 253.176 231.42 254.096 231.42C254.676 231.42 255.236 231.7 255.516 232.34L256.196 231.98Z" fill="#6E7272"/>
<defs>
<filter id="filter0_d" x="0" y="0" width="310" height="310" filterUnits="userSpaceOnUse" color-interpolation-filters="sRGB">
<feFlood flood-opacity="0" result="BackgroundImageFix"/>
<feColorMatrix in="SourceAlpha" type="matrix" values="0 0 0 0 0 0 0 0 0 0 0 0 0 0 0 0 0 0 127 0"/>
<feOffset/>
<feGaussianBlur stdDeviation="12.5"/>
<feColorMatrix type="matrix" values="0 0 0 0 0 0 0 0 0 0 0 0 0 0 0 0 0 0 0.15 0"/>
<feBlend mode="normal" in2="BackgroundImageFix" result="effect1_dropShadow"/>
<feBlend mode="normal" in="SourceGraphic" in2="effect1_dropShadow" result="shape"/>
</filter>
<linearGradient id="paint0_linear" x1="155" y1="25" x2="155" y2="285" gradientUnits="userSpaceOnUse">
<stop stop-color="#FFF0A2"/>
<stop offset="1" stop-color="#FFCE4F"/>
</linearGradient>
</defs>
</svg>
