<svg width="450" height="450" viewBox="0 0 450 450" fill="none" xmlns="http://www.w3.org/2000/svg">
<g filter="url(#filter0_d)">
<rect x="25" y="25" width="400" height="400" rx="30" fill="url(#paint0_linear)"/>
<rect x="25" y="25" width="400" height="400" rx="30" fill="white"/>
</g>
<path d="M224.939 160.216C217.163 160.219 209.497 162.05 202.559 165.562C195.621 169.073 189.606 174.167 185 180.431C189.987 186.111 196.127 190.661 203.013 193.778C209.898 196.895 217.369 198.508 224.926 198.508C232.484 198.508 239.955 196.895 246.84 193.778C253.726 190.661 259.866 186.111 264.853 180.431C260.262 174.157 254.254 169.055 247.318 165.542C240.382 162.029 232.714 160.205 224.939 160.216ZM224.939 106C220.271 105.985 215.703 107.356 211.815 109.94C207.927 112.524 204.894 116.205 203.1 120.515C201.306 124.825 200.833 129.571 201.74 134.151C202.647 138.73 204.894 142.937 208.195 146.239C211.496 149.54 215.703 151.786 220.282 152.693C224.862 153.6 229.608 153.127 233.918 151.333C238.228 149.54 241.909 146.507 244.493 142.618C247.077 138.73 248.448 134.162 248.433 129.494C248.406 123.276 245.92 117.322 241.519 112.93C237.117 108.538 231.157 106.065 224.939 106.052V106Z" fill="#C5C5C5"/>
<path d="M133.184 305.684V302.086H142.371C142.371 302.25 142.379 302.379 142.395 302.473V303.094C142.395 306.055 141.621 308.344 140.074 309.961C138.512 311.594 136.312 312.41 133.477 312.41C132.125 312.41 130.891 312.203 129.773 311.789C128.695 311.375 127.727 310.734 126.867 309.867C126.047 309.031 125.418 308.062 124.98 306.961C124.746 306.375 124.574 305.789 124.465 305.203C124.355 304.609 124.301 304.02 124.301 303.434C124.301 302.168 124.52 300.992 124.957 299.906C125.395 298.852 126.047 297.883 126.914 297C127.742 296.172 128.727 295.539 129.867 295.102C130.992 294.672 132.195 294.457 133.477 294.457C135.148 294.457 136.633 294.793 137.93 295.465C138.344 295.668 138.75 295.922 139.148 296.227C139.555 296.523 139.926 296.855 140.262 297.223C140.605 297.59 140.918 297.988 141.199 298.418L137.145 300.363C136.66 299.699 136.117 299.203 135.516 298.875C134.898 298.555 134.219 298.395 133.477 298.395C132.07 298.395 130.973 298.859 130.184 299.789C129.387 300.711 128.988 301.988 128.988 303.621C128.988 305.262 129.387 306.551 130.184 307.488C130.973 308.418 132.07 308.883 133.477 308.883C134.672 308.883 135.66 308.586 136.441 307.992C137.254 307.406 137.719 306.637 137.836 305.684H133.184ZM153.363 306.117C153.363 305.234 153.141 304.539 152.695 304.031C152.234 303.523 151.633 303.27 150.891 303.27C150.125 303.27 149.523 303.523 149.086 304.031C148.641 304.523 148.418 305.219 148.418 306.117C148.418 306.992 148.633 307.68 149.062 308.18C149.531 308.695 150.141 308.953 150.891 308.953C151.641 308.953 152.25 308.695 152.719 308.18C153.148 307.664 153.363 306.977 153.363 306.117ZM157.512 306.117C157.512 306.984 157.344 307.793 157.008 308.543C156.656 309.34 156.176 310.027 155.566 310.605C154.879 311.246 154.168 311.711 153.434 312C152.668 312.305 151.82 312.457 150.891 312.457C149.953 312.457 149.105 312.305 148.348 312C147.574 311.695 146.859 311.234 146.203 310.617C145.555 309.992 145.086 309.301 144.797 308.543C144.461 307.816 144.293 307.008 144.293 306.117C144.293 305.25 144.461 304.434 144.797 303.668C145.109 302.895 145.582 302.207 146.215 301.605C146.832 301.012 147.543 300.555 148.348 300.234C149.113 299.938 149.961 299.789 150.891 299.789C151.812 299.789 152.66 299.938 153.434 300.234C154.238 300.555 154.949 301.012 155.566 301.605C156.215 302.191 156.695 302.879 157.008 303.668C157.344 304.434 157.512 305.25 157.512 306.117ZM159.938 312V293.836H164.039V305.332L168.34 300.164H173.52L168.199 305.859L174 312H168.504L164.039 306.738V312H159.938ZM187.453 300.164V306.211C187.453 307.562 187.352 308.547 187.148 309.164C186.93 309.805 186.562 310.383 186.047 310.898C185.555 311.414 184.906 311.805 184.102 312.07C183.336 312.328 182.414 312.457 181.336 312.457C180.266 312.457 179.355 312.328 178.605 312.07C177.832 311.82 177.168 311.43 176.613 310.898C176.105 310.414 175.746 309.844 175.535 309.188C175.324 308.578 175.219 307.586 175.219 306.211V300.164H179.203V306.48C179.203 307.473 179.371 308.184 179.707 308.613C180.012 309.066 180.539 309.293 181.289 309.293C182.031 309.293 182.562 309.074 182.883 308.637C183.211 308.199 183.375 307.48 183.375 306.48V300.164H187.453ZM190.57 312V293.836H194.754V312H190.57ZM205.77 312V294.844H210.656C211.602 294.844 212.398 294.863 213.047 294.902C213.703 294.941 214.242 295.008 214.664 295.102C215.391 295.273 216.039 295.57 216.609 295.992C217.234 296.461 217.707 297.062 218.027 297.797C218.363 298.5 218.531 299.297 218.531 300.188C218.531 301.508 218.203 302.59 217.547 303.434C216.906 304.277 215.957 304.828 214.699 305.086L219.375 312H214.09L210.152 305.285V312H205.77ZM210.152 302.953H211.02C212.043 302.953 212.781 302.785 213.234 302.449C213.695 302.074 213.926 301.531 213.926 300.82C213.926 299.961 213.711 299.352 213.281 298.992C212.844 298.625 212.113 298.441 211.09 298.441H210.152V302.953ZM229.898 306.07C229.898 305.133 229.652 304.406 229.16 303.891C228.66 303.344 227.988 303.07 227.145 303.07C226.301 303.07 225.637 303.336 225.152 303.867C224.652 304.414 224.402 305.148 224.402 306.07C224.402 307 224.652 307.73 225.152 308.262C225.629 308.785 226.293 309.047 227.145 309.047C227.988 309.047 228.656 308.785 229.148 308.262C229.648 307.738 229.898 307.008 229.898 306.07ZM233.566 300.164V312H229.734V310.078C229.18 310.898 228.559 311.5 227.871 311.883C227.191 312.266 226.395 312.457 225.48 312.457C223.895 312.457 222.633 311.879 221.695 310.723C221.234 310.152 220.883 309.48 220.641 308.707C220.398 307.934 220.277 307.062 220.277 306.094C220.277 304.156 220.773 302.621 221.766 301.488C222.758 300.355 224.086 299.789 225.75 299.789C226.641 299.789 227.406 299.98 228.047 300.363C228.695 300.73 229.25 301.312 229.711 302.109V300.164H233.566ZM236.625 296.473C236.625 295.824 236.848 295.289 237.293 294.867C237.746 294.414 238.289 294.188 238.922 294.188C239.57 294.188 240.125 294.406 240.586 294.844C241.016 295.273 241.23 295.816 241.23 296.473C241.23 297.129 241.004 297.684 240.551 298.137C240.105 298.582 239.562 298.805 238.922 298.805C238.305 298.805 237.762 298.57 237.293 298.102C236.848 297.656 236.625 297.113 236.625 296.473ZM236.836 317.227V300.164H241.02V317.227H236.836ZM253.242 306.07C253.242 305.133 252.996 304.406 252.504 303.891C252.004 303.344 251.332 303.07 250.488 303.07C249.645 303.07 248.98 303.336 248.496 303.867C247.996 304.414 247.746 305.148 247.746 306.07C247.746 307 247.996 307.73 248.496 308.262C248.973 308.785 249.637 309.047 250.488 309.047C251.332 309.047 252 308.785 252.492 308.262C252.992 307.738 253.242 307.008 253.242 306.07ZM256.91 300.164V312H253.078V310.078C252.523 310.898 251.902 311.5 251.215 311.883C250.535 312.266 249.738 312.457 248.824 312.457C247.238 312.457 245.977 311.879 245.039 310.723C244.578 310.152 244.227 309.48 243.984 308.707C243.742 307.934 243.621 307.062 243.621 306.094C243.621 304.156 244.117 302.621 245.109 301.488C246.102 300.355 247.43 299.789 249.094 299.789C249.984 299.789 250.75 299.98 251.391 300.363C252.039 300.73 252.594 301.312 253.055 302.109V300.164H256.91ZM258.961 311.016L259.828 307.828C260.438 308.367 261.109 308.773 261.844 309.047C262.57 309.336 263.305 309.48 264.047 309.48C264.578 309.48 264.977 309.391 265.242 309.211C265.516 309.047 265.652 308.809 265.652 308.496C265.652 307.973 265.102 307.582 264 307.324C263.617 307.238 263.328 307.164 263.133 307.102C261.859 306.727 260.957 306.27 260.426 305.73C259.848 305.176 259.559 304.457 259.559 303.574C259.559 302.434 259.992 301.516 260.859 300.82C261.695 300.133 262.863 299.789 264.363 299.789C265.09 299.789 265.863 299.875 266.684 300.047C267.371 300.188 268.172 300.461 269.086 300.867L268.219 303.738C267.656 303.355 267.09 303.07 266.52 302.883C265.98 302.688 265.414 302.59 264.82 302.59C264.336 302.59 263.973 302.664 263.73 302.812C263.496 302.953 263.379 303.168 263.379 303.457C263.379 303.863 263.93 304.215 265.031 304.512C265.391 304.621 265.574 304.676 265.582 304.676C267.02 305.082 268.027 305.562 268.605 306.117C269.168 306.703 269.449 307.465 269.449 308.402C269.449 309.613 268.984 310.59 268.055 311.332C267.102 312.082 265.871 312.457 264.363 312.457C263.316 312.457 262.352 312.336 261.469 312.094C260.594 311.859 259.758 311.5 258.961 311.016ZM279.844 304.559C279.773 303.902 279.52 303.367 279.082 302.953C278.645 302.539 278.109 302.332 277.477 302.332C276.812 302.332 276.273 302.516 275.859 302.883C275.43 303.297 275.16 303.855 275.051 304.559H279.844ZM283.957 306.914H274.957C274.98 307.836 275.211 308.539 275.648 309.023C276.102 309.523 276.758 309.773 277.617 309.773C278.242 309.773 278.777 309.652 279.223 309.41C279.676 309.152 280.004 308.801 280.207 308.355L283.348 309.621C282.98 310.52 282.316 311.215 281.355 311.707C280.402 312.207 279.234 312.457 277.852 312.457C275.789 312.457 274.133 311.879 272.883 310.723C271.641 309.598 271.02 308.094 271.02 306.211C271.02 304.375 271.641 302.84 272.883 301.605C274.125 300.395 275.703 299.789 277.617 299.789C279.57 299.789 281.113 300.402 282.246 301.629C282.824 302.262 283.254 303 283.535 303.844C283.816 304.68 283.957 305.637 283.957 306.715V306.914ZM286.383 312V293.836H290.484V305.332L294.785 300.164H299.965L294.645 305.859L300.445 312H294.949L290.484 306.738V312H286.383ZM310.781 306.07C310.781 305.133 310.535 304.406 310.043 303.891C309.543 303.344 308.871 303.07 308.027 303.07C307.184 303.07 306.52 303.336 306.035 303.867C305.535 304.414 305.285 305.148 305.285 306.07C305.285 307 305.535 307.73 306.035 308.262C306.512 308.785 307.176 309.047 308.027 309.047C308.871 309.047 309.539 308.785 310.031 308.262C310.531 307.738 310.781 307.008 310.781 306.07ZM314.449 300.164V312H310.617V310.078C310.062 310.898 309.441 311.5 308.754 311.883C308.074 312.266 307.277 312.457 306.363 312.457C304.777 312.457 303.516 311.879 302.578 310.723C302.117 310.152 301.766 309.48 301.523 308.707C301.281 307.934 301.16 307.062 301.16 306.094C301.16 304.156 301.656 302.621 302.648 301.488C303.641 300.355 304.969 299.789 306.633 299.789C307.523 299.789 308.289 299.98 308.93 300.363C309.578 300.73 310.133 301.312 310.594 302.109V300.164H314.449ZM317.625 312V300.164H321.562V302.953C321.977 301.93 322.527 301.168 323.215 300.668C323.926 300.16 324.781 299.906 325.781 299.906C326.008 299.906 326.176 299.914 326.285 299.93C326.371 299.938 326.449 299.945 326.52 299.953C326.59 299.953 326.68 299.961 326.789 299.977L326.391 303.773C326.102 303.68 325.852 303.613 325.641 303.574C325.328 303.543 325.098 303.527 324.949 303.527C323.934 303.527 323.148 303.84 322.594 304.465C322.047 305.082 321.773 305.961 321.773 307.102V312H317.625Z" fill="#54575A"/>
<path d="M199.037 338.66C201.337 338.66 202.917 337.36 202.917 335.14C202.917 332.86 201.197 331.66 199.017 331.66H196.437V345H197.317V338.66H199.037ZM197.317 332.46H198.937C200.877 332.46 201.997 333.5 201.997 335.16C201.997 336.84 200.817 337.86 199.077 337.86H197.317V332.46ZM204.163 345H204.963V340.62C204.963 339.6 204.983 337.42 206.623 337.42C206.983 337.42 207.143 337.52 207.223 337.58L207.623 336.86C207.323 336.7 206.983 336.66 206.763 336.66C205.883 336.66 205.263 337.2 204.963 337.9V336.84H204.163V345ZM212.688 336.66C210.268 336.66 208.408 338.52 208.408 340.94C208.408 343.36 210.268 345.22 212.688 345.22C215.108 345.22 216.968 343.36 216.968 340.94C216.968 338.52 215.108 336.66 212.688 336.66ZM212.688 344.46C210.728 344.46 209.248 342.92 209.248 340.94C209.248 338.96 210.728 337.42 212.688 337.42C214.648 337.42 216.128 338.96 216.128 340.94C216.128 342.92 214.648 344.46 212.688 344.46ZM225.959 338.26C225.319 337.34 224.279 336.66 222.799 336.66C220.819 336.66 218.799 337.9 218.799 340.88C218.799 343.74 220.739 345.22 222.799 345.22C223.839 345.22 225.139 344.8 225.959 343.54V345H226.759V330.42H225.959V338.26ZM222.799 337.42C224.819 337.42 225.999 338.96 225.999 340.86C225.999 343.24 224.459 344.46 222.839 344.46C221.199 344.46 219.639 343.24 219.639 340.86C219.639 338.58 221.119 337.42 222.799 337.42ZM229.631 336.84V341.98C229.631 342.64 229.691 343.5 230.251 344.22C230.871 345.02 231.851 345.22 232.571 345.22C233.291 345.22 234.271 345.02 234.891 344.22C235.451 343.5 235.511 342.64 235.511 341.98V336.84H234.711V341.76C234.711 342.34 234.691 343.2 234.191 343.8C233.691 344.4 232.951 344.46 232.571 344.46C232.191 344.46 231.451 344.4 230.951 343.8C230.451 343.2 230.431 342.34 230.431 341.76V336.84H229.631ZM244.941 337.7C243.821 336.76 242.701 336.66 242.121 336.66C239.501 336.66 237.881 338.56 237.881 340.98C237.881 343.4 239.601 345.22 242.061 345.22C243.501 345.22 244.501 344.56 245.041 344.08V343C244.401 343.7 243.381 344.46 242.081 344.46C240.501 344.46 238.721 343.3 238.721 340.96C238.721 338.96 240.121 337.42 242.121 337.42C243.461 337.42 244.401 338.14 244.941 338.76V337.7ZM249.529 337.6V336.84H248.109V333.92H247.309V336.84H246.409V337.6H247.309V345H248.109V337.6H249.529ZM161.411 357.66H155.011V371H161.411V370.2H155.891V364.1H161.291V363.3H155.891V358.46H161.411V357.66ZM170.139 364.26C169.359 363.16 168.239 362.66 166.959 362.66C164.579 362.66 162.979 364.4 162.979 366.92C162.979 369.6 164.819 371.22 166.959 371.22C168.019 371.22 169.319 370.8 170.139 369.54V371H170.939V362.84H170.139V364.26ZM166.999 363.42C168.399 363.42 170.179 364.44 170.179 366.86C170.179 368.74 169.059 370.46 167.019 370.46C164.959 370.46 163.819 368.7 163.819 366.86C163.819 364.64 165.379 363.42 166.999 363.42ZM173.811 371H174.611V366.62C174.611 365.6 174.631 363.42 176.271 363.42C176.631 363.42 176.791 363.52 176.871 363.58L177.271 362.86C176.971 362.7 176.631 362.66 176.411 362.66C175.531 362.66 174.911 363.2 174.611 363.9V362.84H173.811V371ZM179.006 356.42V371H179.806V356.42H179.006ZM183.358 375.6H184.278L189.638 362.84H188.718L185.738 370.1L182.318 362.84H181.398L185.278 371.14L183.358 375.6ZM200.061 363.98C199.681 363.1 198.881 362.66 197.921 362.66C196.681 362.66 195.741 363.52 195.741 364.76C195.741 365.24 195.921 365.58 196.101 365.82C196.461 366.3 197.061 366.56 197.881 366.9C199.121 367.4 199.701 367.74 199.701 368.66C199.701 369.72 198.921 370.46 197.881 370.46C196.981 370.46 196.121 369.9 195.841 368.82L195.061 369.06C195.401 370.42 196.521 371.22 197.881 371.22C199.141 371.22 200.541 370.48 200.541 368.62C200.541 368.16 200.461 367.72 200.121 367.3C199.601 366.64 198.841 366.42 198.021 366.1C197.221 365.78 196.581 365.52 196.581 364.72C196.581 364.12 197.041 363.42 197.961 363.42C198.541 363.42 199.101 363.7 199.381 364.34L200.061 363.98ZM204.861 363.6V362.84H203.441V359.92H202.641V362.84H201.741V363.6H202.641V371H203.441V363.6H204.861ZM213.107 364.26C212.327 363.16 211.207 362.66 209.927 362.66C207.547 362.66 205.947 364.4 205.947 366.92C205.947 369.6 207.787 371.22 209.927 371.22C210.987 371.22 212.287 370.8 213.107 369.54V371H213.907V362.84H213.107V364.26ZM209.967 363.42C211.367 363.42 213.147 364.44 213.147 366.86C213.147 368.74 212.027 370.46 209.987 370.46C207.927 370.46 206.787 368.7 206.787 366.86C206.787 364.64 208.347 363.42 209.967 363.42ZM223.5 362.84V364.26C222.8 363.26 221.72 362.66 220.38 362.66C217.82 362.66 216.26 364.56 216.26 366.92C216.26 369.76 218.28 371.22 220.28 371.22C221.44 371.22 222.68 370.74 223.5 369.6V370.76C223.5 371.6 223.42 374.84 220.2 374.84C218.46 374.84 217.18 373.8 217.04 372.1H216.2C216.3 374.36 218.08 375.6 220.2 375.6C222.76 375.6 224.3 373.84 224.3 370.76V362.84H223.5ZM220.3 363.42C222.3 363.42 223.54 364.98 223.54 366.88C223.54 368.88 222.28 370.46 220.26 370.46C218.34 370.46 217.1 368.92 217.1 366.96C217.1 365.08 218.28 363.42 220.3 363.42ZM234.47 367.02C234.47 364.42 232.81 362.66 230.61 362.66C228.61 362.66 226.65 364.12 226.65 366.96C226.65 369.34 228.13 371.22 230.67 371.22C232.69 371.22 233.77 369.92 234.25 369L233.57 368.6C233.05 369.68 232.05 370.46 230.73 370.46C229.01 370.46 227.49 369.1 227.49 367.02H234.47ZM227.55 366.26C227.77 364.68 228.95 363.42 230.61 363.42C232.23 363.42 233.43 364.64 233.63 366.26H227.55ZM245.666 363.98C245.286 363.1 244.486 362.66 243.526 362.66C242.286 362.66 241.346 363.52 241.346 364.76C241.346 365.24 241.526 365.58 241.706 365.82C242.066 366.3 242.666 366.56 243.486 366.9C244.726 367.4 245.306 367.74 245.306 368.66C245.306 369.72 244.526 370.46 243.486 370.46C242.586 370.46 241.726 369.9 241.446 368.82L240.666 369.06C241.006 370.42 242.126 371.22 243.486 371.22C244.746 371.22 246.146 370.48 246.146 368.62C246.146 368.16 246.066 367.72 245.726 367.3C245.206 366.64 244.446 366.42 243.626 366.1C242.826 365.78 242.186 365.52 242.186 364.72C242.186 364.12 242.646 363.42 243.566 363.42C244.146 363.42 244.706 363.7 244.986 364.34L245.666 363.98ZM250.466 363.6V362.84H249.046V359.92H248.246V362.84H247.346V363.6H248.246V371H249.046V363.6H250.466ZM258.713 364.26C257.933 363.16 256.813 362.66 255.533 362.66C253.153 362.66 251.553 364.4 251.553 366.92C251.553 369.6 253.393 371.22 255.533 371.22C256.593 371.22 257.893 370.8 258.713 369.54V371H259.513V362.84H258.713V364.26ZM255.573 363.42C256.973 363.42 258.753 364.44 258.753 366.86C258.753 368.74 257.633 370.46 255.593 370.46C253.533 370.46 252.393 368.7 252.393 366.86C252.393 364.64 253.953 363.42 255.573 363.42ZM262.385 371H263.185V366.62C263.185 365.6 263.205 363.42 264.845 363.42C265.205 363.42 265.365 363.52 265.445 363.58L265.845 362.86C265.545 362.7 265.205 362.66 264.985 362.66C264.105 362.66 263.485 363.2 263.185 363.9V362.84H262.385V371ZM269.861 363.6V362.84H268.441V359.92H267.641V362.84H266.741V363.6H267.641V371H268.441V363.6H269.861ZM271.467 362.84V367.98C271.467 368.64 271.527 369.5 272.087 370.22C272.707 371.02 273.687 371.22 274.407 371.22C275.127 371.22 276.107 371.02 276.727 370.22C277.287 369.5 277.347 368.64 277.347 367.98V362.84H276.547V367.76C276.547 368.34 276.527 369.2 276.027 369.8C275.527 370.4 274.787 370.46 274.407 370.46C274.027 370.46 273.287 370.4 272.787 369.8C272.287 369.2 272.267 368.34 272.267 367.76V362.84H271.467ZM281.037 369.54C281.277 369.94 282.177 371.22 284.197 371.22C286.677 371.22 288.197 369.26 288.197 366.86C288.197 364.5 286.697 362.66 284.237 362.66C282.937 362.66 281.817 363.2 281.037 364.26V362.84H280.237V375.6H281.037V369.54ZM284.177 370.46C282.117 370.46 280.997 368.86 280.997 366.82C280.997 364.56 282.597 363.42 284.197 363.42C285.877 363.42 287.357 364.62 287.357 366.86C287.357 368.86 286.237 370.46 284.177 370.46ZM294.709 363.98C294.329 363.1 293.529 362.66 292.569 362.66C291.329 362.66 290.389 363.52 290.389 364.76C290.389 365.24 290.569 365.58 290.749 365.82C291.109 366.3 291.709 366.56 292.529 366.9C293.769 367.4 294.349 367.74 294.349 368.66C294.349 369.72 293.569 370.46 292.529 370.46C291.629 370.46 290.769 369.9 290.489 368.82L289.709 369.06C290.049 370.42 291.169 371.22 292.529 371.22C293.789 371.22 295.189 370.48 295.189 368.62C295.189 368.16 295.109 367.72 294.769 367.3C294.249 366.64 293.489 366.42 292.669 366.1C291.869 365.78 291.229 365.52 291.229 364.72C291.229 364.12 291.689 363.42 292.609 363.42C293.189 363.42 293.749 363.7 294.029 364.34L294.709 363.98Z" fill="#6E7272"/>
<defs>
<filter id="filter0_d" x="0" y="0" width="450" height="450" filterUnits="userSpaceOnUse" color-interpolation-filters="sRGB">
<feFlood flood-opacity="0" result="BackgroundImageFix"/>
<feColorMatrix in="SourceAlpha" type="matrix" values="0 0 0 0 0 0 0 0 0 0 0 0 0 0 0 0 0 0 127 0"/>
<feOffset/>
<feGaussianBlur stdDeviation="12.5"/>
<feColorMatrix type="matrix" values="0 0 0 0 0 0 0 0 0 0 0 0 0 0 0 0 0 0 0.15 0"/>
<feBlend mode="normal" in2="BackgroundImageFix" result="effect1_dropShadow"/>
<feBlend mode="normal" in="SourceGraphic" in2="effect1_dropShadow" result="shape"/>
</filter>
<linearGradient id="paint0_linear" x1="225" y1="25" x2="225" y2="425" gradientUnits="userSpaceOnUse">
<stop stop-color="#FFF0A2"/>
<stop offset="1" stop-color="#FFCE4F"/>
</linearGradient>
</defs>
</svg>
