<svg width="310" height="310" viewBox="0 0 310 310" fill="none" xmlns="http://www.w3.org/2000/svg">
<g filter="url(#filter0_d)">
<rect x="25" y="25" width="260" height="260" rx="30" fill="url(#paint0_linear)"/>
<rect x="25" y="25" width="260" height="260" rx="30" fill="white"/>
</g>
<path d="M151.939 160.216C144.163 160.219 136.497 162.05 129.559 165.562C122.621 169.073 116.606 174.167 112 180.431C116.987 186.111 123.127 190.661 130.013 193.778C136.898 196.895 144.369 198.508 151.926 198.508C159.484 198.508 166.955 196.895 173.84 193.778C180.726 190.661 186.866 186.111 191.853 180.431C187.262 174.157 181.254 169.055 174.318 165.542C167.382 162.029 159.714 160.205 151.939 160.216ZM151.939 106C147.271 105.985 142.703 107.356 138.815 109.94C134.927 112.524 131.894 116.205 130.1 120.515C128.306 124.825 127.833 129.571 128.74 134.151C129.647 138.73 131.894 142.937 135.195 146.239C138.496 149.54 142.703 151.786 147.282 152.693C151.862 153.6 156.608 153.127 160.918 151.333C165.228 149.54 168.909 146.507 171.493 142.618C174.077 138.73 175.448 134.162 175.433 129.494C175.406 123.276 172.92 117.322 168.519 112.93C164.117 108.538 158.157 106.065 151.939 106.052V106Z" fill="#C5C5C5"/>
<path d="M48.2422 68V50.8438H58.7539V54.6055H52.8008V57.582H58.4141V61.2617H52.8008V64.1562H58.7539V68H48.2422ZM70.0625 60.0547C69.6562 59.6953 69.2656 59.4336 68.8906 59.2695C68.5547 59.1055 68.1602 59.0234 67.707 59.0234C66.8711 59.0234 66.2148 59.2969 65.7383 59.8438C65.2461 60.3828 65 61.125 65 62.0703C65 62.9766 65.2539 63.6953 65.7617 64.2266C66.2539 64.7734 66.9375 65.0469 67.8125 65.0469C68.2266 65.0469 68.625 64.9609 69.0078 64.7891C69.4141 64.5938 69.7656 64.3359 70.0625 64.0156V67.6367C69.5625 67.9023 69.0586 68.1133 68.5508 68.2695C68.0117 68.3945 67.5 68.457 67.0156 68.457C65.1875 68.457 63.7148 67.8711 62.5977 66.6992C62.2148 66.3086 61.8984 65.8789 61.6484 65.4102C61.4062 64.9414 61.2188 64.4336 61.0859 63.8867C60.9609 63.3398 60.8984 62.7422 60.8984 62.0938C60.8984 60.2266 61.4688 58.7109 62.6094 57.5469C63.7578 56.375 65.2422 55.7891 67.0625 55.7891C67.6328 55.7891 68.1758 55.8516 68.6914 55.9766C69.1914 56.1016 69.6484 56.2852 70.0625 56.5273V60.0547ZM81.0312 62.1172C81.0312 61.2344 80.8086 60.5391 80.3633 60.0312C79.9023 59.5234 79.3008 59.2695 78.5586 59.2695C77.793 59.2695 77.1914 59.5234 76.7539 60.0312C76.3086 60.5234 76.0859 61.2188 76.0859 62.1172C76.0859 62.9922 76.3008 63.6797 76.7305 64.1797C77.1992 64.6953 77.8086 64.9531 78.5586 64.9531C79.3086 64.9531 79.918 64.6953 80.3867 64.1797C80.8164 63.6641 81.0312 62.9766 81.0312 62.1172ZM85.1797 62.1172C85.1797 62.9844 85.0117 63.793 84.6758 64.543C84.3242 65.3398 83.8438 66.0273 83.2344 66.6055C82.5469 67.2461 81.8359 67.7109 81.1016 68C80.3359 68.3047 79.4883 68.457 78.5586 68.457C77.6211 68.457 76.7734 68.3047 76.0156 68C75.2422 67.6953 74.5273 67.2344 73.8711 66.6172C73.2227 65.9922 72.7539 65.3008 72.4648 64.543C72.1289 63.8164 71.9609 63.0078 71.9609 62.1172C71.9609 61.25 72.1289 60.4336 72.4648 59.668C72.7773 58.8945 73.25 58.207 73.8828 57.6055C74.5 57.0117 75.2109 56.5547 76.0156 56.2344C76.7812 55.9375 77.6289 55.7891 78.5586 55.7891C79.4805 55.7891 80.3281 55.9375 81.1016 56.2344C81.9062 56.5547 82.6172 57.0117 83.2344 57.6055C83.8828 58.1914 84.3633 58.8789 84.6758 59.668C85.0117 60.4336 85.1797 61.25 85.1797 62.1172ZM87.582 68V56.1641H91.4023V58.5664C91.9414 57.6289 92.582 56.9258 93.3242 56.457C94.043 56.0117 94.9141 55.7891 95.9375 55.7891C96.7109 55.7891 97.3984 55.9062 98 56.1406C98.5938 56.4062 99.0742 56.7656 99.4414 57.2188C99.7773 57.6719 100 58.1523 100.109 58.6602C100.242 59.3086 100.309 60.1641 100.309 61.2266V68H96.125V61.6602C96.125 60.6992 95.9727 60.0117 95.668 59.5977C95.3633 59.168 94.8672 58.9531 94.1797 58.9531C93.3203 58.9531 92.6875 59.2734 92.2812 59.9141C91.8828 60.5547 91.6836 61.5938 91.6836 63.0312V68H87.582ZM111.664 62.1172C111.664 61.2344 111.441 60.5391 110.996 60.0312C110.535 59.5234 109.934 59.2695 109.191 59.2695C108.426 59.2695 107.824 59.5234 107.387 60.0312C106.941 60.5234 106.719 61.2188 106.719 62.1172C106.719 62.9922 106.934 63.6797 107.363 64.1797C107.832 64.6953 108.441 64.9531 109.191 64.9531C109.941 64.9531 110.551 64.6953 111.02 64.1797C111.449 63.6641 111.664 62.9766 111.664 62.1172ZM115.812 62.1172C115.812 62.9844 115.645 63.793 115.309 64.543C114.957 65.3398 114.477 66.0273 113.867 66.6055C113.18 67.2461 112.469 67.7109 111.734 68C110.969 68.3047 110.121 68.457 109.191 68.457C108.254 68.457 107.406 68.3047 106.648 68C105.875 67.6953 105.16 67.2344 104.504 66.6172C103.855 65.9922 103.387 65.3008 103.098 64.543C102.762 63.8164 102.594 63.0078 102.594 62.1172C102.594 61.25 102.762 60.4336 103.098 59.668C103.41 58.8945 103.883 58.207 104.516 57.6055C105.133 57.0117 105.844 56.5547 106.648 56.2344C107.414 55.9375 108.262 55.7891 109.191 55.7891C110.113 55.7891 110.961 55.9375 111.734 56.2344C112.539 56.5547 113.25 57.0117 113.867 57.6055C114.516 58.1914 114.996 58.8789 115.309 59.668C115.645 60.4336 115.812 61.25 115.812 62.1172ZM133.859 68V61.543C133.859 60.5273 133.742 59.8242 133.508 59.4336C133.242 59.0352 132.801 58.8359 132.184 58.8359C131.395 58.8359 130.852 59.1055 130.555 59.6445C130.25 60.1758 130.098 61.2891 130.098 62.9844V68H126.066V61.543C126.066 60.4883 125.938 59.7773 125.68 59.4102C125.445 59.0273 125.012 58.8359 124.379 58.8359C123.59 58.8359 123.039 59.0977 122.727 59.6211C122.422 60.1523 122.27 61.2734 122.27 62.9844V68H118.215V56.1641H122.316V58.2266C122.816 57.3984 123.387 56.7852 124.027 56.3867C124.652 55.9883 125.41 55.7891 126.301 55.7891C127.262 55.7891 128.055 55.9727 128.68 56.3398C129.273 56.7148 129.707 57.2734 129.98 58.0156C130.457 57.2422 131.023 56.6836 131.68 56.3398C132.328 55.9727 133.105 55.7891 134.012 55.7891C134.723 55.7891 135.344 55.9062 135.875 56.1406C136.422 56.3984 136.871 56.7578 137.223 57.2188C137.52 57.5859 137.727 58.0195 137.844 58.5195C137.961 58.9805 138.02 59.7969 138.02 60.9688V61.2266V68H133.859ZM140.879 68V56.1641H145.051V68H140.879ZM141.406 53.1172H141.43C141.43 52.6797 141.582 52.3203 141.887 52.0391C142.191 51.7344 142.559 51.582 142.988 51.582C143.441 51.582 143.812 51.7266 144.102 52.0156C144.398 52.3047 144.547 52.6719 144.547 53.1172C144.547 53.5703 144.395 53.9453 144.09 54.2422C143.793 54.5469 143.426 54.6992 142.988 54.6992C142.543 54.6992 142.168 54.5391 141.863 54.2188C141.559 53.9219 141.406 53.5547 141.406 53.1172ZM156.969 60.0547C156.562 59.6953 156.172 59.4336 155.797 59.2695C155.461 59.1055 155.066 59.0234 154.613 59.0234C153.777 59.0234 153.121 59.2969 152.645 59.8438C152.152 60.3828 151.906 61.125 151.906 62.0703C151.906 62.9766 152.16 63.6953 152.668 64.2266C153.16 64.7734 153.844 65.0469 154.719 65.0469C155.133 65.0469 155.531 64.9609 155.914 64.7891C156.32 64.5938 156.672 64.3359 156.969 64.0156V67.6367C156.469 67.9023 155.965 68.1133 155.457 68.2695C154.918 68.3945 154.406 68.457 153.922 68.457C152.094 68.457 150.621 67.8711 149.504 66.6992C149.121 66.3086 148.805 65.8789 148.555 65.4102C148.312 64.9414 148.125 64.4336 147.992 63.8867C147.867 63.3398 147.805 62.7422 147.805 62.0938C147.805 60.2266 148.375 58.7109 149.516 57.5469C150.664 56.375 152.148 55.7891 153.969 55.7891C154.539 55.7891 155.082 55.8516 155.598 55.9766C156.098 56.1016 156.555 56.2852 156.969 56.5273V60.0547ZM167.469 68V50.8438H172.191V68H167.469ZM184.73 62.0938C184.73 61.1641 184.492 60.4375 184.016 59.9141C183.508 59.3828 182.836 59.1172 182 59.1172C181.156 59.1172 180.492 59.3828 180.008 59.9141C179.523 60.4453 179.281 61.1719 179.281 62.0938C179.281 63.0234 179.523 63.7539 180.008 64.2852C180.484 64.8086 181.148 65.0703 182 65.0703C182.844 65.0703 183.516 64.8086 184.016 64.2852C184.492 63.7617 184.73 63.0312 184.73 62.0938ZM188.434 49.8359V68H184.59V66.0781C184.059 66.8828 183.457 67.4766 182.785 67.8594C182.16 68.2578 181.426 68.457 180.582 68.457C178.926 68.457 177.602 67.8789 176.609 66.7227C175.625 65.5664 175.133 64.0234 175.133 62.0938C175.133 60.2188 175.629 58.6914 176.621 57.5117C177.605 56.3633 178.879 55.7891 180.441 55.7891C181.441 55.7891 182.254 55.9727 182.879 56.3398C183.48 56.6758 184.043 57.2734 184.566 58.1328C184.535 57.9219 184.504 57.6016 184.473 57.1719C184.441 56.7031 184.426 56.3203 184.426 56.0234V49.8359H188.434ZM199.684 60.5586C199.613 59.9023 199.359 59.3672 198.922 58.9531C198.484 58.5391 197.949 58.332 197.316 58.332C196.652 58.332 196.113 58.5156 195.699 58.8828C195.27 59.2969 195 59.8555 194.891 60.5586H199.684ZM203.797 62.9141H194.797C194.82 63.8359 195.051 64.5391 195.488 65.0234C195.941 65.5234 196.598 65.7734 197.457 65.7734C198.082 65.7734 198.617 65.6523 199.062 65.4102C199.516 65.1523 199.844 64.8008 200.047 64.3555L203.188 65.6211C202.82 66.5195 202.156 67.2148 201.195 67.707C200.242 68.207 199.074 68.457 197.691 68.457C195.629 68.457 193.973 67.8789 192.723 66.7227C191.48 65.5977 190.859 64.0938 190.859 62.2109C190.859 60.375 191.48 58.8398 192.723 57.6055C193.965 56.3945 195.543 55.7891 197.457 55.7891C199.41 55.7891 200.953 56.4023 202.086 57.6289C202.664 58.2617 203.094 59 203.375 59.8438C203.656 60.6797 203.797 61.6367 203.797 62.7148V62.9141ZM206.199 68V56.1641H210.02V58.5664C210.559 57.6289 211.199 56.9258 211.941 56.457C212.66 56.0117 213.531 55.7891 214.555 55.7891C215.328 55.7891 216.016 55.9062 216.617 56.1406C217.211 56.4062 217.691 56.7656 218.059 57.2188C218.395 57.6719 218.617 58.1523 218.727 58.6602C218.859 59.3086 218.926 60.1641 218.926 61.2266V68H214.742V61.6602C214.742 60.6992 214.59 60.0117 214.285 59.5977C213.98 59.168 213.484 58.9531 212.797 58.9531C211.938 58.9531 211.305 59.2734 210.898 59.9141C210.5 60.5547 210.301 61.5938 210.301 63.0312V68H206.199ZM222.547 68L222.523 59.1172H220.754V56.1641H222.523V52.6367H226.66V56.1641H228.406V59.1172H226.66V68H222.547ZM230.27 68V56.1641H234.441V68H230.27ZM230.797 53.1172H230.82C230.82 52.6797 230.973 52.3203 231.277 52.0391C231.582 51.7344 231.949 51.582 232.379 51.582C232.832 51.582 233.203 51.7266 233.492 52.0156C233.789 52.3047 233.938 52.6719 233.938 53.1172C233.938 53.5703 233.785 53.9453 233.48 54.2422C233.184 54.5469 232.816 54.6992 232.379 54.6992C231.934 54.6992 231.559 54.5391 231.254 54.2188C230.949 53.9219 230.797 53.5547 230.797 53.1172ZM238.531 68L238.508 59.1172H236.738V56.1641H238.508V52.6367H242.645V56.1641H244.391V59.1172H242.645V68H238.531ZM245.703 73.2266L249.031 66.1953L244.262 56.1641H248.891L250.543 60.4414C250.707 60.832 250.82 61.168 250.883 61.4492C250.969 61.7383 251.043 62.0273 251.105 62.3164C251.152 62.0352 251.223 61.7383 251.316 61.4258C251.379 61.1523 251.492 60.8242 251.656 60.4414L253.332 56.1641H257.797L250.355 73.2266H245.703Z" fill="#54575A"/>
<path d="M68.5933 227.22C68.1933 226.84 66.6533 225.48 64.1133 225.48C60.2733 225.48 57.1933 228.52 57.1933 232.36C57.1933 236.08 60.1533 239.22 64.1533 239.22C65.5933 239.22 67.2333 238.76 68.5933 237.56V236.4C67.2333 237.88 65.4533 238.42 64.1133 238.42C61.4133 238.42 58.1133 236.36 58.1133 232.4C58.1133 229.02 60.6733 226.28 64.0933 226.28C65.8133 226.28 67.4533 227.04 68.5933 228.38V227.22ZM71.108 239H71.908V234.62C71.908 233.6 71.928 231.42 73.568 231.42C73.928 231.42 74.088 231.52 74.168 231.58L74.568 230.86C74.268 230.7 73.928 230.66 73.708 230.66C72.828 230.66 72.208 231.2 71.908 231.9V230.84H71.108V239ZM83.6033 235.02C83.6033 232.42 81.9433 230.66 79.7433 230.66C77.7433 230.66 75.7833 232.12 75.7833 234.96C75.7833 237.34 77.2633 239.22 79.8033 239.22C81.8233 239.22 82.9033 237.92 83.3833 237L82.7033 236.6C82.1833 237.68 81.1833 238.46 79.8633 238.46C78.1433 238.46 76.6233 237.1 76.6233 235.02H83.6033ZM76.6833 234.26C76.9033 232.68 78.0833 231.42 79.7433 231.42C81.3633 231.42 82.5633 232.64 82.7633 234.26H76.6833ZM92.6113 232.26C91.8313 231.16 90.7113 230.66 89.4313 230.66C87.0513 230.66 85.4513 232.4 85.4513 234.92C85.4513 237.6 87.2913 239.22 89.4313 239.22C90.4913 239.22 91.7913 238.8 92.6113 237.54V239H93.4113V230.84H92.6113V232.26ZM89.4713 231.42C90.8713 231.42 92.6513 232.44 92.6513 234.86C92.6513 236.74 91.5313 238.46 89.4913 238.46C87.4313 238.46 86.2913 236.7 86.2913 234.86C86.2913 232.64 87.8513 231.42 89.4713 231.42ZM98.5638 231.6V230.84H97.1438V227.92H96.3438V230.84H95.4438V231.6H96.3438V239H97.1438V231.6H98.5638ZM107.47 235.02C107.47 232.42 105.81 230.66 103.61 230.66C101.61 230.66 99.6505 232.12 99.6505 234.96C99.6505 237.34 101.13 239.22 103.67 239.22C105.69 239.22 106.77 237.92 107.25 237L106.57 236.6C106.05 237.68 105.05 238.46 103.73 238.46C102.01 238.46 100.49 237.1 100.49 235.02H107.47ZM100.55 234.26C100.77 232.68 101.95 231.42 103.61 231.42C105.23 231.42 106.43 232.64 106.63 234.26H100.55ZM115.186 243.6H116.106L121.466 230.84H120.546L117.566 238.1L114.146 230.84H113.226L117.106 239.14L115.186 243.6ZM126.821 230.66C124.401 230.66 122.541 232.52 122.541 234.94C122.541 237.36 124.401 239.22 126.821 239.22C129.241 239.22 131.101 237.36 131.101 234.94C131.101 232.52 129.241 230.66 126.821 230.66ZM126.821 238.46C124.861 238.46 123.381 236.92 123.381 234.94C123.381 232.96 124.861 231.42 126.821 231.42C128.781 231.42 130.261 232.96 130.261 234.94C130.261 236.92 128.781 238.46 126.821 238.46ZM133.452 230.84V235.98C133.452 236.64 133.512 237.5 134.072 238.22C134.692 239.02 135.672 239.22 136.392 239.22C137.112 239.22 138.092 239.02 138.712 238.22C139.272 237.5 139.332 236.64 139.332 235.98V230.84H138.532V235.76C138.532 236.34 138.512 237.2 138.012 237.8C137.512 238.4 136.772 238.46 136.392 238.46C136.012 238.46 135.272 238.4 134.772 237.8C134.272 237.2 134.252 236.34 134.252 235.76V230.84H133.452ZM142.221 239H143.021V234.62C143.021 233.6 143.041 231.42 144.681 231.42C145.041 231.42 145.201 231.52 145.281 231.58L145.681 230.86C145.381 230.7 145.041 230.66 144.821 230.66C143.941 230.66 143.321 231.2 143.021 231.9V230.84H142.221V239ZM158.725 232.26C158.085 231.34 157.045 230.66 155.565 230.66C153.585 230.66 151.565 231.9 151.565 234.88C151.565 237.74 153.505 239.22 155.565 239.22C156.605 239.22 157.905 238.8 158.725 237.54V239H159.525V224.42H158.725V232.26ZM155.565 231.42C157.585 231.42 158.765 232.96 158.765 234.86C158.765 237.24 157.225 238.46 155.605 238.46C153.965 238.46 152.405 237.24 152.405 234.86C152.405 232.58 153.885 231.42 155.565 231.42ZM162.397 230.84V239H163.197V230.84H162.397ZM162.797 228.86C163.197 228.86 163.517 228.56 163.517 228.12C163.517 227.68 163.197 227.38 162.797 227.38C162.397 227.38 162.077 227.68 162.077 228.12C162.077 228.56 162.397 228.86 162.797 228.86ZM172.789 230.84V232.26C172.089 231.26 171.009 230.66 169.669 230.66C167.109 230.66 165.549 232.56 165.549 234.92C165.549 237.76 167.569 239.22 169.569 239.22C170.729 239.22 171.969 238.74 172.789 237.6V238.76C172.789 239.6 172.709 242.84 169.489 242.84C167.749 242.84 166.469 241.8 166.329 240.1H165.489C165.589 242.36 167.369 243.6 169.489 243.6C172.049 243.6 173.589 241.84 173.589 238.76V230.84H172.789ZM169.589 231.42C171.589 231.42 172.829 232.98 172.829 234.88C172.829 236.88 171.569 238.46 169.549 238.46C167.629 238.46 166.389 236.92 166.389 234.96C166.389 233.08 167.569 231.42 169.589 231.42ZM176.46 230.84V239H177.26V230.84H176.46ZM176.86 228.86C177.26 228.86 177.58 228.56 177.58 228.12C177.58 227.68 177.26 227.38 176.86 227.38C176.46 227.38 176.14 227.68 176.14 228.12C176.14 228.56 176.46 228.86 176.86 228.86ZM182.411 231.6V230.84H180.991V227.92H180.191V230.84H179.291V231.6H180.191V239H180.991V231.6H182.411ZM190.658 232.26C189.878 231.16 188.758 230.66 187.478 230.66C185.098 230.66 183.498 232.4 183.498 234.92C183.498 237.6 185.338 239.22 187.478 239.22C188.538 239.22 189.838 238.8 190.658 237.54V239H191.458V230.84H190.658V232.26ZM187.518 231.42C188.918 231.42 190.698 232.44 190.698 234.86C190.698 236.74 189.578 238.46 187.538 238.46C185.478 238.46 184.338 236.7 184.338 234.86C184.338 232.64 185.898 231.42 187.518 231.42ZM194.331 224.42V239H195.131V224.42H194.331ZM203.47 237.54C203.71 237.94 204.61 239.22 206.63 239.22C209.11 239.22 210.63 237.26 210.63 234.86C210.63 232.5 209.13 230.66 206.67 230.66C205.37 230.66 204.25 231.2 203.47 232.26V230.84H202.67V243.6H203.47V237.54ZM206.61 238.46C204.55 238.46 203.43 236.86 203.43 234.82C203.43 232.56 205.03 231.42 206.63 231.42C208.31 231.42 209.79 232.62 209.79 234.86C209.79 236.86 208.67 238.46 206.61 238.46ZM212.983 239H213.783V234.62C213.783 233.6 213.803 231.42 215.443 231.42C215.803 231.42 215.963 231.52 216.043 231.58L216.443 230.86C216.143 230.7 215.803 230.66 215.583 230.66C214.703 230.66 214.083 231.2 213.783 231.9V230.84H212.983V239ZM221.509 230.66C219.089 230.66 217.229 232.52 217.229 234.94C217.229 237.36 219.089 239.22 221.509 239.22C223.929 239.22 225.789 237.36 225.789 234.94C225.789 232.52 223.929 230.66 221.509 230.66ZM221.509 238.46C219.549 238.46 218.069 236.92 218.069 234.94C218.069 232.96 219.549 231.42 221.509 231.42C223.469 231.42 224.949 232.96 224.949 234.94C224.949 236.92 223.469 238.46 221.509 238.46ZM230.979 231.6V230.84H228.939V227.58C228.939 227.1 228.939 226.38 229.279 225.82C229.759 225.04 230.599 224.94 231.119 224.94C231.639 224.94 232.479 225.02 232.959 225.82C233.299 226.38 233.299 227.06 233.299 227.58V227.92H234.099V227.58C234.099 226.32 233.959 225.86 233.659 225.4C232.879 224.26 231.859 224.18 231.119 224.18C230.379 224.18 229.359 224.26 228.579 225.4C228.279 225.86 228.139 226.32 228.139 227.58V230.84H227.219V231.6H228.139V239H228.939V231.6H230.979ZM233.299 230.84V239H234.099V230.84H233.299ZM236.987 224.42V239H237.787V224.42H236.987ZM247.959 235.02C247.959 232.42 246.299 230.66 244.099 230.66C242.099 230.66 240.139 232.12 240.139 234.96C240.139 237.34 241.619 239.22 244.159 239.22C246.179 239.22 247.259 237.92 247.739 237L247.059 236.6C246.539 237.68 245.539 238.46 244.219 238.46C242.499 238.46 240.979 237.1 240.979 235.02H247.959ZM241.039 234.26C241.259 232.68 242.439 231.42 244.099 231.42C245.719 231.42 246.919 232.64 247.119 234.26H241.039Z" fill="#6E7272"/>
<defs>
<filter id="filter0_d" x="0" y="0" width="310" height="310" filterUnits="userSpaceOnUse" color-interpolation-filters="sRGB">
<feFlood flood-opacity="0" result="BackgroundImageFix"/>
<feColorMatrix in="SourceAlpha" type="matrix" values="0 0 0 0 0 0 0 0 0 0 0 0 0 0 0 0 0 0 127 0"/>
<feOffset/>
<feGaussianBlur stdDeviation="12.5"/>
<feColorMatrix type="matrix" values="0 0 0 0 0 0 0 0 0 0 0 0 0 0 0 0 0 0 0.15 0"/>
<feBlend mode="normal" in2="BackgroundImageFix" result="effect1_dropShadow"/>
<feBlend mode="normal" in="SourceGraphic" in2="effect1_dropShadow" result="shape"/>
</filter>
<linearGradient id="paint0_linear" x1="155" y1="25" x2="155" y2="285" gradientUnits="userSpaceOnUse">
<stop stop-color="#FFF0A2"/>
<stop offset="1" stop-color="#FFCE4F"/>
</linearGradient>
</defs>
</svg>
