<svg width="310" height="310" viewBox="0 0 310 310" fill="none" xmlns="http://www.w3.org/2000/svg">
<g filter="url(#filter0_d)">
<rect x="25" y="25" width="260" height="260" rx="25" fill="url(#paint0_linear)"/>
<rect x="25" y="25" width="260" height="260" rx="25" fill="white"/>
</g>
<path d="M203 104H103V179.003H144.663L143.276 191.504H143.001C140.238 191.504 137.999 193.742 137.999 196.502L135.498 201.504H170.497L168.001 196.502C168.001 193.742 165.762 191.504 163.002 191.504H162.72L161.333 179.003H203V104ZM110.5 115.251H140.5V117.75H110.5V115.251ZM110.5 122.752H120.5V125.251H110.5V122.752ZM129.25 170.253H110.5V167.752H129.25V170.253ZM194.25 170.253H175.5V167.752H194.25V170.253ZM178.648 152.438L168.467 145.65L164.052 134.619L159.772 136.046L152.583 150.389L145.722 160.676L133.526 146.038L129.339 154.416L118.465 151.695L111.883 156.081L109.112 151.922L117.533 146.308L126.663 148.589L132.472 136.964L145.276 152.329L148.333 147.743L156.229 131.956L166.947 128.383L172.533 142.353L177.355 145.565L193.455 122.567L197.548 125.433L178.648 152.438Z" fill="#C5C5C5"/>
<path d="M30.1289 68V50.8438H40.6406V54.6055H34.6875V57.582H40.3008V61.2617H34.6875V68H30.1289ZM42.7969 68V56.1641H46.9688V68H42.7969ZM43.3242 53.1172H43.3477C43.3477 52.6797 43.5 52.3203 43.8047 52.0391C44.1094 51.7344 44.4766 51.582 44.9062 51.582C45.3594 51.582 45.7305 51.7266 46.0195 52.0156C46.3164 52.3047 46.4648 52.6719 46.4648 53.1172C46.4648 53.5703 46.3125 53.9453 46.0078 54.2422C45.7109 54.5469 45.3438 54.6992 44.9062 54.6992C44.4609 54.6992 44.0859 54.5391 43.7812 54.2188C43.4766 53.9219 43.3242 53.5547 43.3242 53.1172ZM50.3906 68V56.1641H54.2109V58.5664C54.75 57.6289 55.3906 56.9258 56.1328 56.457C56.8516 56.0117 57.7227 55.7891 58.7461 55.7891C59.5195 55.7891 60.207 55.9062 60.8086 56.1406C61.4023 56.4062 61.8828 56.7656 62.25 57.2188C62.5859 57.6719 62.8086 58.1523 62.918 58.6602C63.0508 59.3086 63.1172 60.1641 63.1172 61.2266V68H58.9336V61.6602C58.9336 60.6992 58.7812 60.0117 58.4766 59.5977C58.1719 59.168 57.6758 58.9531 56.9883 58.9531C56.1289 58.9531 55.4961 59.2734 55.0898 59.9141C54.6914 60.5547 54.4922 61.5938 54.4922 63.0312V68H50.3906ZM75.0938 62.0703C75.0938 61.1328 74.8477 60.4062 74.3555 59.8906C73.8555 59.3438 73.1836 59.0703 72.3398 59.0703C71.4961 59.0703 70.832 59.3359 70.3477 59.8672C69.8477 60.4141 69.5977 61.1484 69.5977 62.0703C69.5977 63 69.8477 63.7305 70.3477 64.2617C70.8242 64.7852 71.4883 65.0469 72.3398 65.0469C73.1836 65.0469 73.8516 64.7852 74.3438 64.2617C74.8438 63.7383 75.0938 63.0078 75.0938 62.0703ZM78.7617 56.1641V68H74.9297V66.0781C74.375 66.8984 73.7539 67.5 73.0664 67.8828C72.3867 68.2656 71.5898 68.457 70.6758 68.457C69.0898 68.457 67.8281 67.8789 66.8906 66.7227C66.4297 66.1523 66.0781 65.4805 65.8359 64.707C65.5938 63.9336 65.4727 63.0625 65.4727 62.0938C65.4727 60.1562 65.9688 58.6211 66.9609 57.4883C67.9531 56.3555 69.2812 55.7891 70.9453 55.7891C71.8359 55.7891 72.6016 55.9805 73.2422 56.3633C73.8906 56.7305 74.4453 57.3125 74.9062 58.1094V56.1641H78.7617ZM81.9141 68V56.1641H85.7344V58.5664C86.2734 57.6289 86.9141 56.9258 87.6562 56.457C88.375 56.0117 89.2461 55.7891 90.2695 55.7891C91.043 55.7891 91.7305 55.9062 92.332 56.1406C92.9258 56.4062 93.4062 56.7656 93.7734 57.2188C94.1094 57.6719 94.332 58.1523 94.4414 58.6602C94.5742 59.3086 94.6406 60.1641 94.6406 61.2266V68H90.457V61.6602C90.457 60.6992 90.3047 60.0117 90 59.5977C89.6953 59.168 89.1992 58.9531 88.5117 58.9531C87.6523 58.9531 87.0195 59.2734 86.6133 59.9141C86.2148 60.5547 86.0156 61.5938 86.0156 63.0312V68H81.9141ZM106.09 60.0547C105.684 59.6953 105.293 59.4336 104.918 59.2695C104.582 59.1055 104.188 59.0234 103.734 59.0234C102.898 59.0234 102.242 59.2969 101.766 59.8438C101.273 60.3828 101.027 61.125 101.027 62.0703C101.027 62.9766 101.281 63.6953 101.789 64.2266C102.281 64.7734 102.965 65.0469 103.84 65.0469C104.254 65.0469 104.652 64.9609 105.035 64.7891C105.441 64.5938 105.793 64.3359 106.09 64.0156V67.6367C105.59 67.9023 105.086 68.1133 104.578 68.2695C104.039 68.3945 103.527 68.457 103.043 68.457C101.215 68.457 99.7422 67.8711 98.625 66.6992C98.2422 66.3086 97.9258 65.8789 97.6758 65.4102C97.4336 64.9414 97.2461 64.4336 97.1133 63.8867C96.9883 63.3398 96.9258 62.7422 96.9258 62.0938C96.9258 60.2266 97.4961 58.7109 98.6367 57.5469C99.7852 56.375 101.27 55.7891 103.09 55.7891C103.66 55.7891 104.203 55.8516 104.719 55.9766C105.219 56.1016 105.676 56.2852 106.09 56.5273V60.0547ZM108.562 68V56.1641H112.734V68H108.562ZM109.09 53.1172H109.113C109.113 52.6797 109.266 52.3203 109.57 52.0391C109.875 51.7344 110.242 51.582 110.672 51.582C111.125 51.582 111.496 51.7266 111.785 52.0156C112.082 52.3047 112.23 52.6719 112.23 53.1172C112.23 53.5703 112.078 53.9453 111.773 54.2422C111.477 54.5469 111.109 54.6992 110.672 54.6992C110.227 54.6992 109.852 54.5391 109.547 54.2188C109.242 53.9219 109.09 53.5547 109.09 53.1172ZM125.18 62.0703C125.18 61.1328 124.934 60.4062 124.441 59.8906C123.941 59.3438 123.27 59.0703 122.426 59.0703C121.582 59.0703 120.918 59.3359 120.434 59.8672C119.934 60.4141 119.684 61.1484 119.684 62.0703C119.684 63 119.934 63.7305 120.434 64.2617C120.91 64.7852 121.574 65.0469 122.426 65.0469C123.27 65.0469 123.938 64.7852 124.43 64.2617C124.93 63.7383 125.18 63.0078 125.18 62.0703ZM128.848 56.1641V68H125.016V66.0781C124.461 66.8984 123.84 67.5 123.152 67.8828C122.473 68.2656 121.676 68.457 120.762 68.457C119.176 68.457 117.914 67.8789 116.977 66.7227C116.516 66.1523 116.164 65.4805 115.922 64.707C115.68 63.9336 115.559 63.0625 115.559 62.0938C115.559 60.1562 116.055 58.6211 117.047 57.4883C118.039 56.3555 119.367 55.7891 121.031 55.7891C121.922 55.7891 122.688 55.9805 123.328 56.3633C123.977 56.7305 124.531 57.3125 124.992 58.1094V56.1641H128.848ZM132.117 68V49.8359H136.301V68H132.117ZM156.07 62.0938C156.07 61.1641 155.832 60.4375 155.355 59.9141C154.848 59.3828 154.176 59.1172 153.34 59.1172C152.496 59.1172 151.832 59.3828 151.348 59.9141C150.863 60.4453 150.621 61.1719 150.621 62.0938C150.621 63.0234 150.863 63.7539 151.348 64.2852C151.824 64.8086 152.488 65.0703 153.34 65.0703C154.184 65.0703 154.855 64.8086 155.355 64.2852C155.832 63.7617 156.07 63.0312 156.07 62.0938ZM159.773 49.8359V68H155.93V66.0781C155.398 66.8828 154.797 67.4766 154.125 67.8594C153.5 68.2578 152.766 68.457 151.922 68.457C150.266 68.457 148.941 67.8789 147.949 66.7227C146.965 65.5664 146.473 64.0234 146.473 62.0938C146.473 60.2188 146.969 58.6914 147.961 57.5117C148.945 56.3633 150.219 55.7891 151.781 55.7891C152.781 55.7891 153.594 55.9727 154.219 56.3398C154.82 56.6758 155.383 57.2734 155.906 58.1328C155.875 57.9219 155.844 57.6016 155.812 57.1719C155.781 56.7031 155.766 56.3203 155.766 56.0234V49.8359H159.773ZM171.891 62.0703C171.891 61.1328 171.645 60.4062 171.152 59.8906C170.652 59.3438 169.98 59.0703 169.137 59.0703C168.293 59.0703 167.629 59.3359 167.145 59.8672C166.645 60.4141 166.395 61.1484 166.395 62.0703C166.395 63 166.645 63.7305 167.145 64.2617C167.621 64.7852 168.285 65.0469 169.137 65.0469C169.98 65.0469 170.648 64.7852 171.141 64.2617C171.641 63.7383 171.891 63.0078 171.891 62.0703ZM175.559 56.1641V68H171.727V66.0781C171.172 66.8984 170.551 67.5 169.863 67.8828C169.184 68.2656 168.387 68.457 167.473 68.457C165.887 68.457 164.625 67.8789 163.688 66.7227C163.227 66.1523 162.875 65.4805 162.633 64.707C162.391 63.9336 162.27 63.0625 162.27 62.0938C162.27 60.1562 162.766 58.6211 163.758 57.4883C164.75 56.3555 166.078 55.7891 167.742 55.7891C168.633 55.7891 169.398 55.9805 170.039 56.3633C170.688 56.7305 171.242 57.3125 171.703 58.1094V56.1641H175.559ZM177.609 67.0156L178.477 63.8281C179.086 64.3672 179.758 64.7734 180.492 65.0469C181.219 65.3359 181.953 65.4805 182.695 65.4805C183.227 65.4805 183.625 65.3906 183.891 65.2109C184.164 65.0469 184.301 64.8086 184.301 64.4961C184.301 63.9727 183.75 63.582 182.648 63.3242C182.266 63.2383 181.977 63.1641 181.781 63.1016C180.508 62.7266 179.605 62.2695 179.074 61.7305C178.496 61.1758 178.207 60.457 178.207 59.5742C178.207 58.4336 178.641 57.5156 179.508 56.8203C180.344 56.1328 181.512 55.7891 183.012 55.7891C183.738 55.7891 184.512 55.875 185.332 56.0469C186.02 56.1875 186.82 56.4609 187.734 56.8672L186.867 59.7383C186.305 59.3555 185.738 59.0703 185.168 58.8828C184.629 58.6875 184.062 58.5898 183.469 58.5898C182.984 58.5898 182.621 58.6641 182.379 58.8125C182.145 58.9531 182.027 59.168 182.027 59.457C182.027 59.8633 182.578 60.2148 183.68 60.5117C184.039 60.6211 184.223 60.6758 184.23 60.6758C185.668 61.082 186.676 61.5625 187.254 62.1172C187.816 62.7031 188.098 63.4648 188.098 64.4023C188.098 65.6133 187.633 66.5898 186.703 67.332C185.75 68.082 184.52 68.457 183.012 68.457C181.965 68.457 181 68.3359 180.117 68.0938C179.242 67.8594 178.406 67.5 177.609 67.0156ZM190.336 68V49.8359H194.438V56.2109C194.438 56.5156 194.422 56.9102 194.391 57.3945C194.367 57.8164 194.336 58.1367 194.297 58.3555C194.82 57.4727 195.438 56.8242 196.148 56.4102C196.867 55.9961 197.715 55.7891 198.691 55.7891C199.465 55.7891 200.152 55.9062 200.754 56.1406C201.348 56.4062 201.828 56.7656 202.195 57.2188C202.531 57.6719 202.754 58.1523 202.863 58.6602C202.996 59.3086 203.062 60.1641 203.062 61.2266V68H198.879V61.6602C198.879 60.6992 198.727 60.0117 198.422 59.5977C198.117 59.168 197.621 58.9531 196.934 58.9531C196.074 58.9531 195.441 59.2734 195.035 59.9141C194.637 60.5547 194.438 61.5938 194.438 63.0312V68H190.336ZM209.742 62.0938C209.742 63.0391 209.988 63.7695 210.48 64.2852C210.934 64.8086 211.59 65.0703 212.449 65.0703C213.301 65.0703 213.965 64.8086 214.441 64.2852C214.918 63.7617 215.156 63.0312 215.156 62.0938C215.156 61.1641 214.918 60.4375 214.441 59.9141C213.957 59.3828 213.293 59.1172 212.449 59.1172C211.598 59.1172 210.941 59.3828 210.48 59.9141C209.988 60.4297 209.742 61.1562 209.742 62.0938ZM206.039 49.8359H210.023V56.0234C210.023 56.6328 210.016 57.0508 210 57.2773C209.969 57.6758 209.938 57.9609 209.906 58.1328C210.398 57.2812 210.957 56.6836 211.582 56.3398C212.207 55.9727 213.023 55.7891 214.031 55.7891C215.609 55.7891 216.891 56.3633 217.875 57.5117C218.852 58.6758 219.34 60.2031 219.34 62.0938C219.34 64.0391 218.852 65.582 217.875 66.7227C216.891 67.8789 215.562 68.457 213.891 68.457C213.055 68.457 212.316 68.2578 211.676 67.8594C211.012 67.4766 210.414 66.8828 209.883 66.0781V68H206.039V49.8359ZM230.262 62.1172C230.262 61.2344 230.039 60.5391 229.594 60.0312C229.133 59.5234 228.531 59.2695 227.789 59.2695C227.023 59.2695 226.422 59.5234 225.984 60.0312C225.539 60.5234 225.316 61.2188 225.316 62.1172C225.316 62.9922 225.531 63.6797 225.961 64.1797C226.43 64.6953 227.039 64.9531 227.789 64.9531C228.539 64.9531 229.148 64.6953 229.617 64.1797C230.047 63.6641 230.262 62.9766 230.262 62.1172ZM234.41 62.1172C234.41 62.9844 234.242 63.793 233.906 64.543C233.555 65.3398 233.074 66.0273 232.465 66.6055C231.777 67.2461 231.066 67.7109 230.332 68C229.566 68.3047 228.719 68.457 227.789 68.457C226.852 68.457 226.004 68.3047 225.246 68C224.473 67.6953 223.758 67.2344 223.102 66.6172C222.453 65.9922 221.984 65.3008 221.695 64.543C221.359 63.8164 221.191 63.0078 221.191 62.1172C221.191 61.25 221.359 60.4336 221.695 59.668C222.008 58.8945 222.48 58.207 223.113 57.6055C223.73 57.0117 224.441 56.5547 225.246 56.2344C226.012 55.9375 226.859 55.7891 227.789 55.7891C228.711 55.7891 229.559 55.9375 230.332 56.2344C231.137 56.5547 231.848 57.0117 232.465 57.6055C233.113 58.1914 233.594 58.8789 233.906 59.668C234.242 60.4336 234.41 61.25 234.41 62.1172ZM245.836 62.0703C245.836 61.1328 245.59 60.4062 245.098 59.8906C244.598 59.3438 243.926 59.0703 243.082 59.0703C242.238 59.0703 241.574 59.3359 241.09 59.8672C240.59 60.4141 240.34 61.1484 240.34 62.0703C240.34 63 240.59 63.7305 241.09 64.2617C241.566 64.7852 242.23 65.0469 243.082 65.0469C243.926 65.0469 244.594 64.7852 245.086 64.2617C245.586 63.7383 245.836 63.0078 245.836 62.0703ZM249.504 56.1641V68H245.672V66.0781C245.117 66.8984 244.496 67.5 243.809 67.8828C243.129 68.2656 242.332 68.457 241.418 68.457C239.832 68.457 238.57 67.8789 237.633 66.7227C237.172 66.1523 236.82 65.4805 236.578 64.707C236.336 63.9336 236.215 63.0625 236.215 62.0938C236.215 60.1562 236.711 58.6211 237.703 57.4883C238.695 56.3555 240.023 55.7891 241.688 55.7891C242.578 55.7891 243.344 55.9805 243.984 56.3633C244.633 56.7305 245.188 57.3125 245.648 58.1094V56.1641H249.504ZM252.68 68V56.1641H256.617V58.9531C257.031 57.9297 257.582 57.168 258.27 56.668C258.98 56.1602 259.836 55.9062 260.836 55.9062C261.062 55.9062 261.23 55.9141 261.34 55.9297C261.426 55.9375 261.504 55.9453 261.574 55.9531C261.645 55.9531 261.734 55.9609 261.844 55.9766L261.445 59.7734C261.156 59.6797 260.906 59.6133 260.695 59.5742C260.383 59.543 260.152 59.5273 260.004 59.5273C258.988 59.5273 258.203 59.8398 257.648 60.4648C257.102 61.082 256.828 61.9609 256.828 63.1016V68H252.68ZM272.438 62.0938C272.438 61.1641 272.199 60.4375 271.723 59.9141C271.215 59.3828 270.543 59.1172 269.707 59.1172C268.863 59.1172 268.199 59.3828 267.715 59.9141C267.23 60.4453 266.988 61.1719 266.988 62.0938C266.988 63.0234 267.23 63.7539 267.715 64.2852C268.191 64.8086 268.855 65.0703 269.707 65.0703C270.551 65.0703 271.223 64.8086 271.723 64.2852C272.199 63.7617 272.438 63.0312 272.438 62.0938ZM276.141 49.8359V68H272.297V66.0781C271.766 66.8828 271.164 67.4766 270.492 67.8594C269.867 68.2578 269.133 68.457 268.289 68.457C266.633 68.457 265.309 67.8789 264.316 66.7227C263.332 65.5664 262.84 64.0234 262.84 62.0938C262.84 60.2188 263.336 58.6914 264.328 57.5117C265.312 56.3633 266.586 55.7891 268.148 55.7891C269.148 55.7891 269.961 55.9727 270.586 56.3398C271.188 56.6758 271.75 57.2734 272.273 58.1328C272.242 57.9219 272.211 57.6016 272.18 57.1719C272.148 56.7031 272.133 56.3203 272.133 56.0234V49.8359H276.141Z" fill="#54575A"/>
<path d="M46.0478 239L47.2278 228.28L52.4678 239.48C52.4878 239.48 57.7078 228.28 57.7078 228.28L58.8878 239H59.7678L58.2478 225.2L52.4678 237.54L46.6878 225.2L45.1678 239H46.0478ZM69.5175 232.26C68.7375 231.16 67.6175 230.66 66.3375 230.66C63.9575 230.66 62.3575 232.4 62.3575 234.92C62.3575 237.6 64.1975 239.22 66.3375 239.22C67.3975 239.22 68.6975 238.8 69.5175 237.54V239H70.3175V230.84H69.5175V232.26ZM66.3775 231.42C67.7775 231.42 69.5575 232.44 69.5575 234.86C69.5575 236.74 68.4375 238.46 66.3975 238.46C64.3375 238.46 63.1975 236.7 63.1975 234.86C63.1975 232.64 64.7575 231.42 66.3775 231.42ZM73.19 239H73.99V234.76C73.99 233.96 74.07 233.2 74.43 232.56C74.73 232.02 75.31 231.42 76.43 231.42C77.41 231.42 77.85 231.92 78.03 232.22C78.33 232.68 78.35 233.3 78.35 233.86V239H79.15V233.86C79.15 233.14 79.11 232.38 78.75 231.8C78.57 231.52 77.95 230.66 76.49 230.66C75.11 230.66 74.37 231.44 73.99 232.12V230.84H73.19V239ZM88.6777 232.26C87.8977 231.16 86.7777 230.66 85.4977 230.66C83.1177 230.66 81.5177 232.4 81.5177 234.92C81.5177 237.6 83.3577 239.22 85.4977 239.22C86.5577 239.22 87.8577 238.8 88.6777 237.54V239H89.4777V230.84H88.6777V232.26ZM85.5377 231.42C86.9377 231.42 88.7177 232.44 88.7177 234.86C88.7177 236.74 87.5977 238.46 85.5577 238.46C83.4977 238.46 82.3577 236.7 82.3577 234.86C82.3577 232.64 83.9177 231.42 85.5377 231.42ZM99.0702 230.84V232.26C98.3702 231.26 97.2902 230.66 95.9502 230.66C93.3902 230.66 91.8302 232.56 91.8302 234.92C91.8302 237.76 93.8502 239.22 95.8502 239.22C97.0102 239.22 98.2502 238.74 99.0702 237.6V238.76C99.0702 239.6 98.9902 242.84 95.7702 242.84C94.0302 242.84 92.7502 241.8 92.6102 240.1H91.7702C91.8702 242.36 93.6502 243.6 95.7702 243.6C98.3302 243.6 99.8702 241.84 99.8702 238.76V230.84H99.0702ZM95.8702 231.42C97.8702 231.42 99.1102 232.98 99.1102 234.88C99.1102 236.88 97.8502 238.46 95.8302 238.46C93.9102 238.46 92.6702 236.92 92.6702 234.96C92.6702 233.08 93.8502 231.42 95.8702 231.42ZM110.041 235.02C110.041 232.42 108.381 230.66 106.181 230.66C104.181 230.66 102.221 232.12 102.221 234.96C102.221 237.34 103.701 239.22 106.241 239.22C108.261 239.22 109.341 237.92 109.821 237L109.141 236.6C108.621 237.68 107.621 238.46 106.301 238.46C104.581 238.46 103.061 237.1 103.061 235.02H110.041ZM103.121 234.26C103.341 232.68 104.521 231.42 106.181 231.42C107.801 231.42 109.001 232.64 109.201 234.26H103.121ZM117.757 243.6H118.677L124.037 230.84H123.117L120.137 238.1L116.717 230.84H115.797L119.677 239.14L117.757 243.6ZM129.391 230.66C126.971 230.66 125.111 232.52 125.111 234.94C125.111 237.36 126.971 239.22 129.391 239.22C131.811 239.22 133.671 237.36 133.671 234.94C133.671 232.52 131.811 230.66 129.391 230.66ZM129.391 238.46C127.431 238.46 125.951 236.92 125.951 234.94C125.951 232.96 127.431 231.42 129.391 231.42C131.351 231.42 132.831 232.96 132.831 234.94C132.831 236.92 131.351 238.46 129.391 238.46ZM136.022 230.84V235.98C136.022 236.64 136.082 237.5 136.642 238.22C137.262 239.02 138.242 239.22 138.962 239.22C139.682 239.22 140.662 239.02 141.282 238.22C141.842 237.5 141.902 236.64 141.902 235.98V230.84H141.102V235.76C141.102 236.34 141.082 237.2 140.582 237.8C140.082 238.4 139.342 238.46 138.962 238.46C138.582 238.46 137.842 238.4 137.342 237.8C136.842 237.2 136.822 236.34 136.822 235.76V230.84H136.022ZM144.792 239H145.592V234.62C145.592 233.6 145.612 231.42 147.252 231.42C147.612 231.42 147.772 231.52 147.852 231.58L148.252 230.86C147.952 230.7 147.612 230.66 147.392 230.66C146.512 230.66 145.892 231.2 145.592 231.9V230.84H144.792V239ZM157.495 231.6V230.84H155.455V227.58C155.455 227.1 155.455 226.38 155.795 225.82C156.275 225.04 157.115 224.94 157.635 224.94C158.155 224.94 158.995 225.02 159.475 225.82C159.815 226.38 159.815 227.06 159.815 227.58V227.92H160.615V227.58C160.615 226.32 160.475 225.86 160.175 225.4C159.395 224.26 158.375 224.18 157.635 224.18C156.895 224.18 155.875 224.26 155.095 225.4C154.795 225.86 154.655 226.32 154.655 227.58V230.84H153.735V231.6H154.655V239H155.455V231.6H157.495ZM159.815 230.84V239H160.615V230.84H159.815ZM163.503 239H164.303V234.76C164.303 233.96 164.383 233.2 164.743 232.56C165.043 232.02 165.623 231.42 166.743 231.42C167.723 231.42 168.163 231.92 168.343 232.22C168.643 232.68 168.663 233.3 168.663 233.86V239H169.463V233.86C169.463 233.14 169.423 232.38 169.063 231.8C168.883 231.52 168.263 230.66 166.803 230.66C165.423 230.66 164.683 231.44 164.303 232.12V230.84H163.503V239ZM178.99 232.26C178.21 231.16 177.09 230.66 175.81 230.66C173.43 230.66 171.83 232.4 171.83 234.92C171.83 237.6 173.67 239.22 175.81 239.22C176.87 239.22 178.17 238.8 178.99 237.54V239H179.79V230.84H178.99V232.26ZM175.85 231.42C177.25 231.42 179.03 232.44 179.03 234.86C179.03 236.74 177.91 238.46 175.87 238.46C173.81 238.46 172.67 236.7 172.67 234.86C172.67 232.64 174.23 231.42 175.85 231.42ZM182.663 239H183.463V234.76C183.463 233.96 183.543 233.2 183.903 232.56C184.203 232.02 184.783 231.42 185.903 231.42C186.883 231.42 187.323 231.92 187.503 232.22C187.803 232.68 187.823 233.3 187.823 233.86V239H188.623V233.86C188.623 233.14 188.583 232.38 188.223 231.8C188.043 231.52 187.423 230.66 185.963 230.66C184.583 230.66 183.843 231.44 183.463 232.12V230.84H182.663V239ZM198.05 231.7C196.93 230.76 195.81 230.66 195.23 230.66C192.61 230.66 190.99 232.56 190.99 234.98C190.99 237.4 192.71 239.22 195.17 239.22C196.61 239.22 197.61 238.56 198.15 238.08V237C197.51 237.7 196.49 238.46 195.19 238.46C193.61 238.46 191.83 237.3 191.83 234.96C191.83 232.96 193.23 231.42 195.23 231.42C196.57 231.42 197.51 232.14 198.05 232.76V231.7ZM207.658 235.02C207.658 232.42 205.998 230.66 203.798 230.66C201.798 230.66 199.838 232.12 199.838 234.96C199.838 237.34 201.318 239.22 203.858 239.22C205.878 239.22 206.958 237.92 207.438 237L206.758 236.6C206.238 237.68 205.238 238.46 203.918 238.46C202.198 238.46 200.678 237.1 200.678 235.02H207.658ZM200.738 234.26C200.958 232.68 202.138 231.42 203.798 231.42C205.418 231.42 206.618 232.64 206.818 234.26H200.738ZM214.186 231.98C213.806 231.1 213.006 230.66 212.046 230.66C210.806 230.66 209.866 231.52 209.866 232.76C209.866 233.24 210.046 233.58 210.226 233.82C210.586 234.3 211.186 234.56 212.006 234.9C213.246 235.4 213.826 235.74 213.826 236.66C213.826 237.72 213.046 238.46 212.006 238.46C211.106 238.46 210.246 237.9 209.966 236.82L209.186 237.06C209.526 238.42 210.646 239.22 212.006 239.22C213.266 239.22 214.666 238.48 214.666 236.62C214.666 236.16 214.586 235.72 214.246 235.3C213.726 234.64 212.966 234.42 212.146 234.1C211.346 233.78 210.706 233.52 210.706 232.72C210.706 232.12 211.166 231.42 212.086 231.42C212.666 231.42 213.226 231.7 213.506 232.34L214.186 231.98ZM228.674 235.02C228.674 232.42 227.014 230.66 224.814 230.66C222.814 230.66 220.854 232.12 220.854 234.96C220.854 237.34 222.334 239.22 224.874 239.22C226.894 239.22 227.974 237.92 228.454 237L227.774 236.6C227.254 237.68 226.254 238.46 224.934 238.46C223.214 238.46 221.694 237.1 221.694 235.02H228.674ZM221.754 234.26C221.974 232.68 223.154 231.42 224.814 231.42C226.434 231.42 227.634 232.64 227.834 234.26H221.754ZM237.682 232.26C236.902 231.16 235.782 230.66 234.502 230.66C232.122 230.66 230.522 232.4 230.522 234.92C230.522 237.6 232.362 239.22 234.502 239.22C235.562 239.22 236.862 238.8 237.682 237.54V239H238.482V230.84H237.682V232.26ZM234.542 231.42C235.942 231.42 237.722 232.44 237.722 234.86C237.722 236.74 236.602 238.46 234.562 238.46C232.502 238.46 231.362 236.7 231.362 234.86C231.362 232.64 232.922 231.42 234.542 231.42ZM245.514 231.98C245.134 231.1 244.334 230.66 243.374 230.66C242.134 230.66 241.194 231.52 241.194 232.76C241.194 233.24 241.374 233.58 241.554 233.82C241.914 234.3 242.514 234.56 243.334 234.9C244.574 235.4 245.154 235.74 245.154 236.66C245.154 237.72 244.374 238.46 243.334 238.46C242.434 238.46 241.574 237.9 241.294 236.82L240.514 237.06C240.854 238.42 241.974 239.22 243.334 239.22C244.594 239.22 245.994 238.48 245.994 236.62C245.994 236.16 245.914 235.72 245.574 235.3C245.054 234.64 244.294 234.42 243.474 234.1C242.674 233.78 242.034 233.52 242.034 232.72C242.034 232.12 242.494 231.42 243.414 231.42C243.994 231.42 244.554 231.7 244.834 232.34L245.514 231.98ZM248.034 230.84V239H248.834V230.84H248.034ZM248.434 228.86C248.834 228.86 249.154 228.56 249.154 228.12C249.154 227.68 248.834 227.38 248.434 227.38C248.034 227.38 247.714 227.68 247.714 228.12C247.714 228.56 248.034 228.86 248.434 228.86ZM251.706 224.42V239H252.506V224.42H251.706ZM256.058 243.6H256.978L262.338 230.84H261.418L258.438 238.1L255.018 230.84H254.098L257.978 239.14L256.058 243.6Z" fill="#6E7272"/>
<defs>
<filter id="filter0_d" x="0" y="0" width="310" height="310" filterUnits="userSpaceOnUse" color-interpolation-filters="sRGB">
<feFlood flood-opacity="0" result="BackgroundImageFix"/>
<feColorMatrix in="SourceAlpha" type="matrix" values="0 0 0 0 0 0 0 0 0 0 0 0 0 0 0 0 0 0 127 0"/>
<feOffset/>
<feGaussianBlur stdDeviation="12.5"/>
<feColorMatrix type="matrix" values="0 0 0 0 0 0 0 0 0 0 0 0 0 0 0 0 0 0 0.15 0"/>
<feBlend mode="normal" in2="BackgroundImageFix" result="effect1_dropShadow"/>
<feBlend mode="normal" in="SourceGraphic" in2="effect1_dropShadow" result="shape"/>
</filter>
<linearGradient id="paint0_linear" x1="155" y1="25" x2="155" y2="285" gradientUnits="userSpaceOnUse">
<stop stop-color="#FFF0A2"/>
<stop offset="1" stop-color="#FFCE4F"/>
</linearGradient>
</defs>
</svg>
