<svg width="310" height="310" viewBox="0 0 310 310" fill="none" xmlns="http://www.w3.org/2000/svg">
<g filter="url(#filter0_d)">
<rect x="25" y="25" width="260" height="260" rx="25" fill="url(#paint0_linear)"/>
<rect x="25" y="25" width="260" height="260" rx="25" fill="white"/>
</g>
<g opacity="0.2">
<path opacity="0.2" d="M247.286 107H56.2856V107.666H247.286V107Z" fill="#707070"/>
</g>
<g opacity="0.2">
<path opacity="0.2" d="M247.286 131.344H56.2856V132.01H247.286V131.344Z" fill="#707070"/>
</g>
<g opacity="0.2">
<path opacity="0.2" d="M247.286 155.687H56.2856V156.353H247.286V155.687Z" fill="#707070"/>
</g>
<g opacity="0.2">
<path opacity="0.2" d="M247.286 180.03H56.2856V180.696H247.286V180.03Z" fill="#707070"/>
</g>
<g opacity="0.2">
<path opacity="0.2" d="M247.286 204.374H56.2856V205.04H247.286V204.374Z" fill="#707070"/>
</g>
<path d="M206.399 168.511C204.418 168.485 202.479 167.932 200.782 166.91C192.835 162.349 191.049 153.855 189.319 145.629C188.782 143.122 188.282 140.753 187.607 138.486C186.658 134.966 185.239 131.589 183.388 128.447C182.014 126.064 179.949 124.154 177.466 122.97C169.777 119.768 163.263 127.966 158.461 135.479C158.008 136.192 157.536 136.932 157.046 137.718C150.985 147.434 141.909 162.08 128.677 154.882C124.181 152.411 121.053 146.989 118.5 142.632L117.574 141.105C112.948 133.157 106.471 124.321 97.8294 126.643C90.8252 128.494 86.1064 136.21 81.9428 142.992C80.7677 144.898 79.6666 146.693 78.5563 148.294C73.8468 155.048 67.0369 162.802 56.2114 162.802V161.479C66.3892 161.479 72.94 154.031 77.4923 147.545C78.5933 145.981 79.6851 144.195 80.851 142.298C85.1441 135.304 90.0017 127.383 97.5055 125.366C108.211 122.544 115.631 135.063 118.777 140.429L119.702 141.975C122.117 146.185 125.134 151.412 129.316 153.716C141.344 160.332 150.116 146.314 155.926 137.061C156.426 136.284 156.851 135.526 157.342 134.813C160.617 129.669 168.241 117.659 177.993 121.804C180.743 123.076 183.029 125.171 184.535 127.8C186.443 131.045 187.912 134.53 188.902 138.163C189.578 140.476 190.105 142.983 190.623 145.407C192.289 153.337 194.019 161.525 201.458 165.763C202.592 166.478 203.868 166.937 205.198 167.106C206.528 167.275 207.879 167.152 209.156 166.744C214.143 165.115 219.167 158.944 223.664 148.886C224.987 145.907 226.199 142.78 227.365 139.754C230.455 131.788 233.657 123.553 239.44 116.845C241.105 114.892 243.742 112.218 247.23 111.904L247.388 113.218C244.371 113.523 241.984 115.929 240.457 117.705C234.841 124.237 231.686 132.37 228.623 140.244C227.448 143.27 226.227 146.416 224.876 149.423C220.13 159.98 215.004 166.216 209.545 168.002C208.53 168.337 207.468 168.509 206.399 168.511Z" fill="#707070"/>
<path d="M128.566 202.088C128.338 202.088 128.107 202.088 127.872 202.088C123.246 201.709 120.128 196.944 118.62 194.131C116.839 190.422 115.375 186.568 114.243 182.612C113.762 181.104 113.318 179.605 112.772 178.115C109.997 170.167 104.63 160.822 95.1924 161.673C90.5014 162.071 85.6345 163.848 80.925 165.559C72.7735 168.529 64.3907 171.564 56.0356 168.067L56.5445 166.845C64.3907 170.149 72.5144 167.142 80.4346 164.366C85.2182 162.617 90.1683 160.813 95.0536 160.406C95.47 160.406 95.8864 160.35 96.2935 160.35C103.918 160.35 110.034 166.327 114.021 177.736C114.54 179.225 115.021 180.743 115.511 182.251C116.626 186.129 118.068 189.905 119.823 193.539C121.174 196.111 124.014 200.46 127.974 200.793C128.169 200.793 128.363 200.793 128.548 200.793C135.709 200.793 140.733 189.69 143.176 184.212L143.852 182.704C145.998 177.874 148.228 172.878 151.559 169.029C154.603 165.476 157.878 163.681 161.293 163.681H161.413C165.91 163.746 170.665 166.901 175.912 173.331C180.177 178.55 184.433 183.232 189.559 183.259H189.624C193.871 183.259 198.312 179.725 201.476 173.785C203.314 169.965 204.86 166.012 206.103 161.96C210.007 150.431 214.43 137.376 224.293 136.756C227.828 136.59 231.529 138.496 234.601 142.123C240.55 149.182 243.927 159.545 246.897 168.677L247.721 171.231L246.472 171.648L245.63 169.094C242.706 160.063 239.375 149.839 233.601 142.974C230.955 139.828 227.781 138.061 224.848 138.061C224.697 138.051 224.546 138.051 224.395 138.061C215.411 138.616 211.145 151.236 207.389 162.367C206.125 166.487 204.557 170.508 202.698 174.396C199.284 180.771 194.37 184.573 189.67 184.573H189.605C183.897 184.573 179.428 179.632 174.94 174.164C169.944 168.048 165.53 165.05 161.441 164.995H161.339C158.332 164.995 155.39 166.642 152.595 169.88C149.412 173.581 147.22 178.494 145.091 183.232L144.37 184.721C141.816 190.421 136.561 202.088 128.566 202.088Z" fill="#828282"/>
<path d="M247.286 114.828C248.538 114.828 249.553 113.813 249.553 112.561C249.553 111.309 248.538 110.294 247.286 110.294C246.034 110.294 245.019 111.309 245.019 112.561C245.019 113.813 246.034 114.828 247.286 114.828Z" fill="#BCBCBC"/>
<path d="M247.286 114.198C248.19 114.198 248.923 113.465 248.923 112.561C248.923 111.656 248.19 110.923 247.286 110.923C246.381 110.923 245.648 111.656 245.648 112.561C245.648 113.465 246.381 114.198 247.286 114.198Z" fill="#707070"/>
<path d="M225.08 152.116C225.08 152.566 224.946 153.007 224.695 153.381C224.445 153.756 224.089 154.047 223.672 154.219C223.256 154.391 222.798 154.436 222.356 154.347C221.914 154.259 221.509 154.041 221.191 153.722C220.873 153.402 220.657 152.996 220.57 152.554C220.483 152.112 220.53 151.654 220.703 151.238C220.877 150.822 221.17 150.467 221.546 150.218C221.921 149.969 222.362 149.838 222.813 149.839C223.111 149.839 223.407 149.898 223.682 150.013C223.958 150.127 224.208 150.295 224.419 150.507C224.63 150.718 224.796 150.969 224.91 151.245C225.023 151.521 225.081 151.817 225.08 152.116Z" fill="#BCBCBC"/>
<path d="M224.451 152.116C224.454 152.442 224.361 152.763 224.181 153.036C224.002 153.31 223.746 153.524 223.445 153.651C223.143 153.778 222.811 153.813 222.49 153.751C222.169 153.689 221.874 153.532 221.642 153.302C221.411 153.071 221.253 152.777 221.189 152.457C221.125 152.136 221.157 151.804 221.283 151.502C221.408 151.2 221.621 150.942 221.893 150.761C222.166 150.581 222.486 150.485 222.813 150.487C223.246 150.487 223.661 150.658 223.968 150.963C224.274 151.269 224.448 151.683 224.451 152.116Z" fill="#707070"/>
<path d="M188.939 143.511C190.191 143.511 191.206 142.496 191.206 141.244C191.206 139.992 190.191 138.977 188.939 138.977C187.687 138.977 186.672 139.992 186.672 141.244C186.672 142.496 187.687 143.511 188.939 143.511Z" fill="#BCBCBC"/>
<path d="M190.586 141.234C190.586 141.56 190.49 141.879 190.309 142.149C190.128 142.42 189.871 142.631 189.57 142.756C189.269 142.881 188.938 142.913 188.618 142.85C188.299 142.786 188.005 142.629 187.775 142.399C187.545 142.169 187.388 141.875 187.324 141.556C187.261 141.236 187.293 140.905 187.418 140.604C187.543 140.303 187.754 140.046 188.024 139.865C188.295 139.684 188.614 139.587 188.939 139.587C189.376 139.587 189.795 139.761 190.104 140.07C190.413 140.379 190.586 140.798 190.586 141.234Z" fill="#707070"/>
<path d="M149.171 150.487C149.171 150.935 149.038 151.374 148.789 151.747C148.54 152.119 148.186 152.41 147.772 152.581C147.358 152.753 146.902 152.798 146.462 152.71C146.023 152.623 145.619 152.407 145.302 152.09C144.985 151.773 144.769 151.369 144.681 150.929C144.594 150.49 144.639 150.034 144.81 149.62C144.982 149.205 145.272 148.851 145.645 148.602C146.018 148.353 146.456 148.22 146.905 148.22C147.203 148.219 147.498 148.277 147.774 148.39C148.049 148.504 148.299 148.671 148.51 148.881C148.721 149.092 148.888 149.343 149.001 149.618C149.115 149.894 149.173 150.189 149.171 150.487Z" fill="#BCBCBC"/>
<path d="M148.542 150.487C148.542 150.811 148.446 151.128 148.266 151.397C148.087 151.666 147.831 151.876 147.532 152C147.232 152.124 146.903 152.156 146.585 152.093C146.268 152.03 145.976 151.874 145.747 151.645C145.518 151.416 145.362 151.124 145.299 150.807C145.235 150.489 145.268 150.16 145.392 149.86C145.516 149.561 145.726 149.305 145.995 149.125C146.264 148.945 146.581 148.849 146.905 148.849C147.338 148.852 147.754 149.025 148.06 149.332C148.367 149.638 148.54 150.053 148.542 150.487Z" fill="#707070"/>
<path d="M119.101 138.968C119.103 139.419 118.971 139.86 118.721 140.236C118.472 140.611 118.117 140.904 117.7 141.078C117.284 141.251 116.826 141.297 116.383 141.21C115.941 141.122 115.534 140.905 115.215 140.586C114.897 140.267 114.68 139.861 114.592 139.419C114.505 138.976 114.55 138.518 114.724 138.102C114.897 137.685 115.19 137.33 115.566 137.08C115.942 136.831 116.383 136.699 116.834 136.701C117.435 136.703 118.01 136.943 118.434 137.367C118.859 137.792 119.099 138.367 119.101 138.968Z" fill="#BCBCBC"/>
<path d="M118.472 138.968C118.473 139.294 118.378 139.614 118.198 139.886C118.018 140.158 117.761 140.371 117.459 140.497C117.158 140.622 116.826 140.656 116.506 140.593C116.185 140.529 115.891 140.372 115.66 140.141C115.429 139.91 115.272 139.616 115.209 139.296C115.146 138.975 115.179 138.644 115.305 138.342C115.431 138.041 115.643 137.784 115.915 137.604C116.188 137.423 116.507 137.328 116.834 137.33C117.268 137.332 117.683 137.506 117.989 137.812C118.296 138.119 118.469 138.534 118.472 138.968Z" fill="#707070"/>
<path d="M84.6258 139.634C85.8777 139.634 86.8926 138.619 86.8926 137.367C86.8926 136.115 85.8777 135.1 84.6258 135.1C83.3738 135.1 82.3589 136.115 82.3589 137.367C82.3589 138.619 83.3738 139.634 84.6258 139.634Z" fill="#BCBCBC"/>
<path d="M84.626 139.005C85.5305 139.005 86.2637 138.271 86.2637 137.367C86.2637 136.462 85.5305 135.729 84.626 135.729C83.7215 135.729 82.9883 136.462 82.9883 137.367C82.9883 138.271 83.7215 139.005 84.626 139.005Z" fill="#707070"/>
<path d="M56.2762 164.403C57.5281 164.403 58.543 163.388 58.543 162.136C58.543 160.884 57.5281 159.869 56.2762 159.869C55.0242 159.869 54.0093 160.884 54.0093 162.136C54.0093 163.388 55.0242 164.403 56.2762 164.403Z" fill="#BCBCBC"/>
<path d="M57.9233 162.136C57.9251 162.462 57.8301 162.781 57.6502 163.053C57.4704 163.326 57.2138 163.538 56.913 163.664C56.6122 163.79 56.2808 163.824 55.9607 163.762C55.6406 163.699 55.3463 163.543 55.1151 163.313C54.8838 163.083 54.726 162.79 54.6617 162.47C54.5974 162.15 54.6295 161.819 54.7539 161.517C54.8782 161.216 55.0893 160.958 55.3604 160.777C55.6314 160.595 55.9502 160.498 56.2763 160.498C56.7115 160.498 57.129 160.671 57.4376 160.977C57.7462 161.284 57.9208 161.701 57.9233 162.136Z" fill="#707070"/>
<path d="M58.5523 167.854C58.5523 168.304 58.4188 168.744 58.1687 169.119C57.9186 169.493 57.5631 169.785 57.1472 169.957C56.7313 170.129 56.2736 170.174 55.8321 170.086C55.3906 169.999 54.985 169.782 54.6667 169.463C54.3483 169.145 54.1316 168.74 54.0437 168.298C53.9559 167.857 54.001 167.399 54.1733 166.983C54.3455 166.567 54.6373 166.212 55.0116 165.961C55.3859 165.711 55.826 165.578 56.2761 165.578C56.8798 165.578 57.4587 165.818 57.8856 166.245C58.3124 166.671 58.5523 167.25 58.5523 167.854Z" fill="#BCBCBC"/>
<path d="M57.9233 167.854C57.9251 168.18 57.8301 168.499 57.6502 168.772C57.4704 169.044 57.2138 169.256 56.913 169.382C56.6122 169.508 56.2808 169.542 55.9607 169.48C55.6406 169.417 55.3463 169.261 55.1151 169.031C54.8838 168.801 54.726 168.508 54.6617 168.188C54.5974 167.868 54.6295 167.537 54.7539 167.235C54.8782 166.934 55.0893 166.676 55.3604 166.495C55.6314 166.313 55.9502 166.216 56.2763 166.216C56.7115 166.216 57.129 166.389 57.4376 166.695C57.7462 167.002 57.9208 167.419 57.9233 167.854Z" fill="#828282"/>
<path d="M99.8557 163.773C101.108 163.773 102.123 162.759 102.123 161.507C102.123 160.255 101.108 159.24 99.8557 159.24C98.6038 159.24 97.5889 160.255 97.5889 161.507C97.5889 162.759 98.6038 163.773 99.8557 163.773Z" fill="#BCBCBC"/>
<path d="M101.503 161.507C101.505 161.833 101.41 162.152 101.23 162.424C101.05 162.696 100.793 162.909 100.493 163.035C100.192 163.161 99.8604 163.195 99.5403 163.132C99.2202 163.07 98.9259 162.914 98.6947 162.684C98.4634 162.454 98.3056 162.16 98.2413 161.841C98.177 161.521 98.2091 161.189 98.3335 160.888C98.4578 160.586 98.6689 160.328 98.94 160.147C99.211 159.966 99.5298 159.869 99.8559 159.869C100.291 159.869 100.709 160.041 101.017 160.348C101.326 160.655 101.5 161.071 101.503 161.507Z" fill="#828282"/>
<path d="M143.398 189.792C143.393 190.239 143.255 190.674 143.003 191.043C142.75 191.413 142.395 191.699 141.98 191.866C141.565 192.033 141.11 192.074 140.672 191.984C140.235 191.893 139.833 191.675 139.519 191.357C139.205 191.039 138.992 190.635 138.906 190.196C138.821 189.757 138.868 189.303 139.04 188.89C139.212 188.478 139.503 188.125 139.875 187.877C140.247 187.629 140.684 187.497 141.131 187.497C141.431 187.497 141.729 187.557 142.005 187.672C142.282 187.788 142.533 187.957 142.744 188.171C142.955 188.384 143.122 188.637 143.234 188.916C143.346 189.194 143.402 189.492 143.398 189.792Z" fill="#BCBCBC"/>
<path d="M142.769 189.792C142.769 190.116 142.673 190.432 142.493 190.702C142.313 190.971 142.057 191.181 141.758 191.305C141.459 191.429 141.13 191.461 140.812 191.398C140.494 191.335 140.202 191.179 139.973 190.95C139.744 190.721 139.588 190.429 139.525 190.111C139.462 189.794 139.494 189.464 139.618 189.165C139.742 188.866 139.952 188.61 140.221 188.43C140.491 188.25 140.807 188.154 141.131 188.154C141.565 188.156 141.98 188.33 142.287 188.636C142.593 188.943 142.767 189.358 142.769 189.792Z" fill="#828282"/>
<path d="M172.09 167.854C172.09 168.305 171.957 168.745 171.706 169.12C171.456 169.494 171.1 169.786 170.683 169.958C170.267 170.13 169.809 170.174 169.367 170.086C168.925 169.997 168.519 169.779 168.201 169.46C167.884 169.141 167.667 168.735 167.581 168.292C167.494 167.85 167.54 167.392 167.714 166.977C167.888 166.561 168.181 166.206 168.556 165.957C168.932 165.708 169.373 165.576 169.823 165.578C170.122 165.578 170.417 165.637 170.693 165.751C170.969 165.866 171.219 166.034 171.43 166.245C171.64 166.457 171.807 166.708 171.92 166.984C172.034 167.26 172.092 167.556 172.09 167.854Z" fill="#BCBCBC"/>
<path d="M171.461 167.854C171.463 168.181 171.368 168.5 171.188 168.772C171.007 169.045 170.75 169.257 170.449 169.383C170.148 169.509 169.816 169.542 169.495 169.479C169.175 169.416 168.881 169.259 168.65 169.028C168.419 168.797 168.262 168.503 168.199 168.182C168.135 167.862 168.169 167.53 168.295 167.229C168.42 166.927 168.633 166.67 168.905 166.49C169.177 166.31 169.497 166.215 169.824 166.216C170.258 166.216 170.675 166.389 170.982 166.696C171.289 167.003 171.461 167.42 171.461 167.854Z" fill="#828282"/>
<path d="M249.34 171.675C249.34 172.126 249.206 172.566 248.956 172.941C248.705 173.315 248.349 173.607 247.933 173.779C247.516 173.951 247.058 173.996 246.616 173.907C246.174 173.818 245.769 173.601 245.451 173.281C245.133 172.962 244.917 172.556 244.83 172.114C244.743 171.672 244.79 171.214 244.964 170.798C245.137 170.382 245.43 170.027 245.806 169.778C246.181 169.529 246.622 169.397 247.073 169.399C247.371 169.399 247.667 169.458 247.943 169.573C248.218 169.687 248.469 169.855 248.679 170.066C248.89 170.278 249.057 170.529 249.17 170.805C249.283 171.081 249.341 171.377 249.34 171.675Z" fill="#BCBCBC"/>
<path d="M248.71 171.675C248.71 172.001 248.614 172.32 248.432 172.591C248.251 172.862 247.993 173.073 247.692 173.198C247.39 173.322 247.058 173.354 246.739 173.29C246.419 173.226 246.126 173.068 245.896 172.837C245.666 172.605 245.51 172.311 245.447 171.991C245.385 171.671 245.418 171.339 245.545 171.039C245.671 170.738 245.883 170.481 246.155 170.301C246.427 170.122 246.747 170.027 247.073 170.028C247.289 170.028 247.502 170.071 247.702 170.154C247.901 170.237 248.082 170.358 248.234 170.511C248.386 170.664 248.507 170.846 248.588 171.046C248.67 171.246 248.712 171.459 248.71 171.675Z" fill="#828282"/>
<path d="M211.441 154.382C211.443 154.833 211.311 155.275 211.062 155.65C210.812 156.026 210.457 156.319 210.041 156.493C209.624 156.666 209.166 156.712 208.723 156.624C208.281 156.537 207.875 156.32 207.556 156.001C207.237 155.682 207.02 155.276 206.932 154.833C206.845 154.391 206.891 153.933 207.064 153.516C207.238 153.1 207.531 152.745 207.906 152.495C208.282 152.246 208.724 152.114 209.175 152.115C209.472 152.115 209.767 152.174 210.042 152.288C210.317 152.402 210.567 152.569 210.777 152.779C210.988 152.99 211.155 153.24 211.269 153.515C211.383 153.79 211.441 154.085 211.441 154.382Z" fill="#BCBCBC"/>
<path d="M210.812 154.382C210.812 154.708 210.715 155.027 210.534 155.298C210.352 155.569 210.095 155.78 209.793 155.905C209.492 156.029 209.16 156.061 208.84 155.997C208.521 155.933 208.227 155.775 207.997 155.544C207.767 155.312 207.611 155.018 207.549 154.698C207.486 154.378 207.52 154.046 207.646 153.746C207.772 153.445 207.985 153.188 208.257 153.008C208.529 152.829 208.848 152.734 209.174 152.735C209.39 152.735 209.604 152.778 209.803 152.861C210.002 152.944 210.183 153.065 210.336 153.218C210.488 153.371 210.608 153.553 210.69 153.753C210.772 153.953 210.813 154.166 210.812 154.382Z" fill="#828282"/>
<path d="M65.2188 68V50.8438H68.793C71.4961 50.8438 73.3828 50.9688 74.4531 51.2188C75.5625 51.4688 76.5312 51.8867 77.3594 52.4727C78.4531 53.2227 79.2773 54.1914 79.832 55.3789C80.3945 56.5742 80.6758 57.9258 80.6758 59.4336C80.6758 60.9414 80.3945 62.293 79.832 63.4883C79.2773 64.6602 78.4531 65.6289 77.3594 66.3945C76.5 66.9805 75.5547 67.3867 74.5234 67.6133C73.4922 67.8711 71.8438 68 69.5781 68H68.793H65.2188ZM69.8477 64.1562H70.6328C72.4766 64.1562 73.8164 63.7734 74.6523 63.0078C75.4961 62.2578 75.918 61.0664 75.918 59.4336C75.918 57.8086 75.4961 56.6094 74.6523 55.8359C73.8086 55.0625 72.4688 54.6758 70.6328 54.6758H69.8477V64.1562ZM83.2305 68V56.1641H87.4023V68H83.2305ZM83.7578 53.1172H83.7812C83.7812 52.6797 83.9336 52.3203 84.2383 52.0391C84.543 51.7344 84.9102 51.582 85.3398 51.582C85.793 51.582 86.1641 51.7266 86.4531 52.0156C86.75 52.3047 86.8984 52.6719 86.8984 53.1172C86.8984 53.5703 86.7461 53.9453 86.4414 54.2422C86.1445 54.5469 85.7773 54.6992 85.3398 54.6992C84.8945 54.6992 84.5195 54.5391 84.2148 54.2188C83.9102 53.9219 83.7578 53.5547 83.7578 53.1172ZM99.8477 62.0469C99.8477 61.1328 99.6094 60.4141 99.1328 59.8906C98.6172 59.375 97.9375 59.1172 97.0938 59.1172C96.25 59.1172 95.5703 59.375 95.0547 59.8906C94.5547 60.4141 94.3047 61.1328 94.3047 62.0469C94.3047 62.9688 94.5547 63.6797 95.0547 64.1797C95.5625 64.7109 96.2422 64.9766 97.0938 64.9766C97.9297 64.9766 98.6016 64.7109 99.1094 64.1797C99.6016 63.6875 99.8477 62.9766 99.8477 62.0469ZM103.516 56.1641V67.9766C103.516 69.7656 102.973 71.0859 101.887 71.9375C101.363 72.3594 100.676 72.6797 99.8242 72.8984C98.9727 73.1172 97.9727 73.2266 96.8242 73.2266C94.957 73.2266 93.5078 72.8828 92.4766 72.1953C91.4453 71.5 90.8945 70.5352 90.8242 69.3008H95.1484C95.2266 69.6758 95.4336 69.9609 95.7695 70.1562C96.1133 70.3672 96.5703 70.4727 97.1406 70.4727C98.0312 70.4727 98.6523 70.2578 99.0039 69.8281C99.3398 69.3984 99.5078 68.4844 99.5078 67.0859V66.0078C99.0625 66.7578 98.5039 67.3086 97.832 67.6602C97.1367 68.0273 96.3281 68.2109 95.4062 68.2109C93.8438 68.2109 92.5898 67.6445 91.6445 66.5117C91.1836 65.957 90.832 65.3047 90.5898 64.5547C90.3477 63.7969 90.2266 62.9453 90.2266 62C90.2266 60.1094 90.7227 58.5977 91.7148 57.4648C92.207 56.9023 92.7852 56.4844 93.4492 56.2109C94.1211 55.9297 94.8711 55.7891 95.6992 55.7891C96.582 55.7891 97.3477 55.9727 97.9961 56.3398C98.6367 56.6836 99.1914 57.2578 99.6602 58.0625V56.1641H103.516ZM106.574 68V56.1641H110.746V68H106.574ZM107.102 53.1172H107.125C107.125 52.6797 107.277 52.3203 107.582 52.0391C107.887 51.7344 108.254 51.582 108.684 51.582C109.137 51.582 109.508 51.7266 109.797 52.0156C110.094 52.3047 110.242 52.6719 110.242 53.1172C110.242 53.5703 110.09 53.9453 109.785 54.2422C109.488 54.5469 109.121 54.6992 108.684 54.6992C108.238 54.6992 107.863 54.5391 107.559 54.2188C107.254 53.9219 107.102 53.5547 107.102 53.1172ZM114.836 68L114.812 59.1172H113.043V56.1641H114.812V52.6367H118.949V56.1641H120.695V59.1172H118.949V68H114.836ZM131.676 62.0703C131.676 61.1328 131.43 60.4062 130.938 59.8906C130.438 59.3438 129.766 59.0703 128.922 59.0703C128.078 59.0703 127.414 59.3359 126.93 59.8672C126.43 60.4141 126.18 61.1484 126.18 62.0703C126.18 63 126.43 63.7305 126.93 64.2617C127.406 64.7852 128.07 65.0469 128.922 65.0469C129.766 65.0469 130.434 64.7852 130.926 64.2617C131.426 63.7383 131.676 63.0078 131.676 62.0703ZM135.344 56.1641V68H131.512V66.0781C130.957 66.8984 130.336 67.5 129.648 67.8828C128.969 68.2656 128.172 68.457 127.258 68.457C125.672 68.457 124.41 67.8789 123.473 66.7227C123.012 66.1523 122.66 65.4805 122.418 64.707C122.176 63.9336 122.055 63.0625 122.055 62.0938C122.055 60.1562 122.551 58.6211 123.543 57.4883C124.535 56.3555 125.863 55.7891 127.527 55.7891C128.418 55.7891 129.184 55.9805 129.824 56.3633C130.473 56.7305 131.027 57.3125 131.488 58.1094V56.1641H135.344ZM138.613 68V49.8359H142.797V68H138.613ZM153.543 68V56.1641H157.48V58.9531C157.895 57.9297 158.445 57.168 159.133 56.668C159.844 56.1602 160.699 55.9062 161.699 55.9062C161.926 55.9062 162.094 55.9141 162.203 55.9297C162.289 55.9375 162.367 55.9453 162.438 55.9531C162.508 55.9531 162.598 55.9609 162.707 55.9766L162.309 59.7734C162.02 59.6797 161.77 59.6133 161.559 59.5742C161.246 59.543 161.016 59.5273 160.867 59.5273C159.852 59.5273 159.066 59.8398 158.512 60.4648C157.965 61.082 157.691 61.9609 157.691 63.1016V68H153.543ZM172.41 60.5586C172.34 59.9023 172.086 59.3672 171.648 58.9531C171.211 58.5391 170.676 58.332 170.043 58.332C169.379 58.332 168.84 58.5156 168.426 58.8828C167.996 59.2969 167.727 59.8555 167.617 60.5586H172.41ZM176.523 62.9141H167.523C167.547 63.8359 167.777 64.5391 168.215 65.0234C168.668 65.5234 169.324 65.7734 170.184 65.7734C170.809 65.7734 171.344 65.6523 171.789 65.4102C172.242 65.1523 172.57 64.8008 172.773 64.3555L175.914 65.6211C175.547 66.5195 174.883 67.2148 173.922 67.707C172.969 68.207 171.801 68.457 170.418 68.457C168.355 68.457 166.699 67.8789 165.449 66.7227C164.207 65.5977 163.586 64.0938 163.586 62.2109C163.586 60.375 164.207 58.8398 165.449 57.6055C166.691 56.3945 168.27 55.7891 170.184 55.7891C172.137 55.7891 173.68 56.4023 174.812 57.6289C175.391 58.2617 175.82 59 176.102 59.8438C176.383 60.6797 176.523 61.6367 176.523 62.7148V62.9141ZM187.422 60.0547C187.016 59.6953 186.625 59.4336 186.25 59.2695C185.914 59.1055 185.52 59.0234 185.066 59.0234C184.23 59.0234 183.574 59.2969 183.098 59.8438C182.605 60.3828 182.359 61.125 182.359 62.0703C182.359 62.9766 182.613 63.6953 183.121 64.2266C183.613 64.7734 184.297 65.0469 185.172 65.0469C185.586 65.0469 185.984 64.9609 186.367 64.7891C186.773 64.5938 187.125 64.3359 187.422 64.0156V67.6367C186.922 67.9023 186.418 68.1133 185.91 68.2695C185.371 68.3945 184.859 68.457 184.375 68.457C182.547 68.457 181.074 67.8711 179.957 66.6992C179.574 66.3086 179.258 65.8789 179.008 65.4102C178.766 64.9414 178.578 64.4336 178.445 63.8867C178.32 63.3398 178.258 62.7422 178.258 62.0938C178.258 60.2266 178.828 58.7109 179.969 57.5469C181.117 56.375 182.602 55.7891 184.422 55.7891C184.992 55.7891 185.535 55.8516 186.051 55.9766C186.551 56.1016 187.008 56.2852 187.422 56.5273V60.0547ZM198.391 62.1172C198.391 61.2344 198.168 60.5391 197.723 60.0312C197.262 59.5234 196.66 59.2695 195.918 59.2695C195.152 59.2695 194.551 59.5234 194.113 60.0312C193.668 60.5234 193.445 61.2188 193.445 62.1172C193.445 62.9922 193.66 63.6797 194.09 64.1797C194.559 64.6953 195.168 64.9531 195.918 64.9531C196.668 64.9531 197.277 64.6953 197.746 64.1797C198.176 63.6641 198.391 62.9766 198.391 62.1172ZM202.539 62.1172C202.539 62.9844 202.371 63.793 202.035 64.543C201.684 65.3398 201.203 66.0273 200.594 66.6055C199.906 67.2461 199.195 67.7109 198.461 68C197.695 68.3047 196.848 68.457 195.918 68.457C194.98 68.457 194.133 68.3047 193.375 68C192.602 67.6953 191.887 67.2344 191.23 66.6172C190.582 65.9922 190.113 65.3008 189.824 64.543C189.488 63.8164 189.32 63.0078 189.32 62.1172C189.32 61.25 189.488 60.4336 189.824 59.668C190.137 58.8945 190.609 58.207 191.242 57.6055C191.859 57.0117 192.57 56.5547 193.375 56.2344C194.141 55.9375 194.988 55.7891 195.918 55.7891C196.84 55.7891 197.688 55.9375 198.461 56.2344C199.266 56.5547 199.977 57.0117 200.594 57.6055C201.242 58.1914 201.723 58.8789 202.035 59.668C202.371 60.4336 202.539 61.25 202.539 62.1172ZM204.965 68V56.1641H208.902V58.9531C209.316 57.9297 209.867 57.168 210.555 56.668C211.266 56.1602 212.121 55.9062 213.121 55.9062C213.348 55.9062 213.516 55.9141 213.625 55.9297C213.711 55.9375 213.789 55.9453 213.859 55.9531C213.93 55.9531 214.02 55.9609 214.129 55.9766L213.73 59.7734C213.441 59.6797 213.191 59.6133 212.98 59.5742C212.668 59.543 212.438 59.5273 212.289 59.5273C211.273 59.5273 210.488 59.8398 209.934 60.4648C209.387 61.082 209.113 61.9609 209.113 63.1016V68H204.965ZM224.723 62.0938C224.723 61.1641 224.484 60.4375 224.008 59.9141C223.5 59.3828 222.828 59.1172 221.992 59.1172C221.148 59.1172 220.484 59.3828 220 59.9141C219.516 60.4453 219.273 61.1719 219.273 62.0938C219.273 63.0234 219.516 63.7539 220 64.2852C220.477 64.8086 221.141 65.0703 221.992 65.0703C222.836 65.0703 223.508 64.8086 224.008 64.2852C224.484 63.7617 224.723 63.0312 224.723 62.0938ZM228.426 49.8359V68H224.582V66.0781C224.051 66.8828 223.449 67.4766 222.777 67.8594C222.152 68.2578 221.418 68.457 220.574 68.457C218.918 68.457 217.594 67.8789 216.602 66.7227C215.617 65.5664 215.125 64.0234 215.125 62.0938C215.125 60.2188 215.621 58.6914 216.613 57.5117C217.598 56.3633 218.871 55.7891 220.434 55.7891C221.434 55.7891 222.246 55.9727 222.871 56.3398C223.473 56.6758 224.035 57.2734 224.559 58.1328C224.527 57.9219 224.496 57.6016 224.465 57.1719C224.434 56.7031 224.418 56.3203 224.418 56.0234V49.8359H228.426ZM230.418 67.0156L231.285 63.8281C231.895 64.3672 232.566 64.7734 233.301 65.0469C234.027 65.3359 234.762 65.4805 235.504 65.4805C236.035 65.4805 236.434 65.3906 236.699 65.2109C236.973 65.0469 237.109 64.8086 237.109 64.4961C237.109 63.9727 236.559 63.582 235.457 63.3242C235.074 63.2383 234.785 63.1641 234.59 63.1016C233.316 62.7266 232.414 62.2695 231.883 61.7305C231.305 61.1758 231.016 60.457 231.016 59.5742C231.016 58.4336 231.449 57.5156 232.316 56.8203C233.152 56.1328 234.32 55.7891 235.82 55.7891C236.547 55.7891 237.32 55.875 238.141 56.0469C238.828 56.1875 239.629 56.4609 240.543 56.8672L239.676 59.7383C239.113 59.3555 238.547 59.0703 237.977 58.8828C237.438 58.6875 236.871 58.5898 236.277 58.5898C235.793 58.5898 235.43 58.6641 235.188 58.8125C234.953 58.9531 234.836 59.168 234.836 59.457C234.836 59.8633 235.387 60.2148 236.488 60.5117C236.848 60.6211 237.031 60.6758 237.039 60.6758C238.477 61.082 239.484 61.5625 240.062 62.1172C240.625 62.7031 240.906 63.4648 240.906 64.4023C240.906 65.6133 240.441 66.5898 239.512 67.332C238.559 68.082 237.328 68.457 235.82 68.457C234.773 68.457 233.809 68.3359 232.926 68.0938C232.051 67.8594 231.215 67.5 230.418 67.0156Z" fill="#54575A"/>
<path d="M50.5465 239L46.1865 232.7C46.4865 232.7 47.1265 232.68 47.8265 232.44C49.4865 231.88 50.0665 230.52 50.0665 229.2C50.0665 228.16 49.7265 227.06 48.6865 226.34C47.8065 225.74 46.8865 225.66 45.8665 225.66H43.9465V239H44.8265V232.7H45.2265L49.5465 239H50.5465ZM44.8265 226.46H45.9265C46.4465 226.46 47.4065 226.54 47.9665 226.86C48.4865 227.14 49.1465 227.84 49.1465 229.18C49.1465 230.9 48.0065 231.9 46.1065 231.9H44.8265V226.46ZM59.4021 235.02C59.4021 232.42 57.7421 230.66 55.5421 230.66C53.5421 230.66 51.5821 232.12 51.5821 234.96C51.5821 237.34 53.0621 239.22 55.6021 239.22C57.6221 239.22 58.7021 237.92 59.1821 237L58.5021 236.6C57.9821 237.68 56.9821 238.46 55.6621 238.46C53.9421 238.46 52.4221 237.1 52.4221 235.02H59.4021ZM52.4821 234.26C52.7021 232.68 53.8821 231.42 55.5421 231.42C57.1621 231.42 58.3621 232.64 58.5621 234.26H52.4821ZM68.3101 231.7C67.1901 230.76 66.0701 230.66 65.4901 230.66C62.8701 230.66 61.2501 232.56 61.2501 234.98C61.2501 237.4 62.9701 239.22 65.4301 239.22C66.8701 239.22 67.8701 238.56 68.4101 238.08V237C67.7701 237.7 66.7501 238.46 65.4501 238.46C63.8701 238.46 62.0901 237.3 62.0901 234.96C62.0901 232.96 63.4901 231.42 65.4901 231.42C66.8301 231.42 67.7701 232.14 68.3101 232.76V231.7ZM74.3777 230.66C71.9577 230.66 70.0977 232.52 70.0977 234.94C70.0977 237.36 71.9577 239.22 74.3777 239.22C76.7977 239.22 78.6577 237.36 78.6577 234.94C78.6577 232.52 76.7977 230.66 74.3777 230.66ZM74.3777 238.46C72.4177 238.46 70.9377 236.92 70.9377 234.94C70.9377 232.96 72.4177 231.42 74.3777 231.42C76.3377 231.42 77.8177 232.96 77.8177 234.94C77.8177 236.92 76.3377 238.46 74.3777 238.46ZM81.0084 239H81.8084V234.62C81.8084 233.6 81.8284 231.42 83.4684 231.42C83.8284 231.42 83.9884 231.52 84.0684 231.58L84.4684 230.86C84.1684 230.7 83.8284 230.66 83.6084 230.66C82.7284 230.66 82.1084 231.2 81.8084 231.9V230.84H81.0084V239ZM92.8437 232.26C92.2037 231.34 91.1637 230.66 89.6837 230.66C87.7037 230.66 85.6837 231.9 85.6837 234.88C85.6837 237.74 87.6237 239.22 89.6837 239.22C90.7237 239.22 92.0237 238.8 92.8437 237.54V239H93.6437V224.42H92.8437V232.26ZM89.6837 231.42C91.7037 231.42 92.8837 232.96 92.8837 234.86C92.8837 237.24 91.3437 238.46 89.7237 238.46C88.0837 238.46 86.5237 237.24 86.5237 234.86C86.5237 232.58 88.0037 231.42 89.6837 231.42ZM107.824 232.26C107.044 231.16 105.924 230.66 104.644 230.66C102.264 230.66 100.664 232.4 100.664 234.92C100.664 237.6 102.504 239.22 104.644 239.22C105.704 239.22 107.004 238.8 107.824 237.54V239H108.624V230.84H107.824V232.26ZM104.684 231.42C106.084 231.42 107.864 232.44 107.864 234.86C107.864 236.74 106.744 238.46 104.704 238.46C102.644 238.46 101.504 236.7 101.504 234.86C101.504 232.64 103.064 231.42 104.684 231.42ZM111.497 239H112.297V234.76C112.297 233.96 112.377 233.2 112.737 232.56C113.037 232.02 113.617 231.42 114.737 231.42C115.717 231.42 116.157 231.92 116.337 232.22C116.637 232.68 116.657 233.3 116.657 233.86V239H117.457V233.86C117.457 233.14 117.417 232.38 117.057 231.8C116.877 231.52 116.257 230.66 114.797 230.66C113.417 230.66 112.677 231.44 112.297 232.12V230.84H111.497V239ZM126.984 232.26C126.344 231.34 125.304 230.66 123.824 230.66C121.844 230.66 119.824 231.9 119.824 234.88C119.824 237.74 121.764 239.22 123.824 239.22C124.864 239.22 126.164 238.8 126.984 237.54V239H127.784V224.42H126.984V232.26ZM123.824 231.42C125.844 231.42 127.024 232.96 127.024 234.86C127.024 237.24 125.484 238.46 123.864 238.46C122.224 238.46 120.664 237.24 120.664 234.86C120.664 232.58 122.144 231.42 123.824 231.42ZM137.605 231.6V230.84H136.185V227.92H135.385V230.84H134.485V231.6H135.385V239H136.185V231.6H137.605ZM139.211 239H140.011V234.62C140.011 233.6 140.031 231.42 141.671 231.42C142.031 231.42 142.191 231.52 142.271 231.58L142.671 230.86C142.371 230.7 142.031 230.66 141.811 230.66C140.931 230.66 140.311 231.2 140.011 231.9V230.84H139.211V239ZM150.832 232.26C150.052 231.16 148.932 230.66 147.652 230.66C145.272 230.66 143.672 232.4 143.672 234.92C143.672 237.6 145.512 239.22 147.652 239.22C148.712 239.22 150.012 238.8 150.832 237.54V239H151.632V230.84H150.832V232.26ZM147.692 231.42C149.092 231.42 150.872 232.44 150.872 234.86C150.872 236.74 149.752 238.46 147.712 238.46C145.652 238.46 144.512 236.7 144.512 234.86C144.512 232.64 146.072 231.42 147.692 231.42ZM161.044 231.7C159.924 230.76 158.804 230.66 158.224 230.66C155.604 230.66 153.984 232.56 153.984 234.98C153.984 237.4 155.704 239.22 158.164 239.22C159.604 239.22 160.604 238.56 161.144 238.08V237C160.504 237.7 159.484 238.46 158.184 238.46C156.604 238.46 154.824 237.3 154.824 234.96C154.824 232.96 156.224 231.42 158.224 231.42C159.564 231.42 160.504 232.14 161.044 232.76V231.7ZM163.352 224.42V239H164.152V235.38L164.572 234.96L168.592 239H169.672L165.112 234.38L168.552 230.84H167.512L164.152 234.34V224.42H163.352ZM178.23 231.6V230.84H176.81V227.92H176.01V230.84H175.11V231.6H176.01V239H176.81V231.6H178.23ZM179.836 239H180.636V234.62C180.636 233.6 180.656 231.42 182.296 231.42C182.656 231.42 182.816 231.52 182.896 231.58L183.296 230.86C182.996 230.7 182.656 230.66 182.436 230.66C181.556 230.66 180.936 231.2 180.636 231.9V230.84H179.836V239ZM191.457 232.26C190.677 231.16 189.557 230.66 188.277 230.66C185.897 230.66 184.297 232.4 184.297 234.92C184.297 237.6 186.137 239.22 188.277 239.22C189.337 239.22 190.637 238.8 191.457 237.54V239H192.257V230.84H191.457V232.26ZM188.317 231.42C189.717 231.42 191.497 232.44 191.497 234.86C191.497 236.74 190.377 238.46 188.337 238.46C186.277 238.46 185.137 236.7 185.137 234.86C185.137 232.64 186.697 231.42 188.317 231.42ZM195.129 239H195.929V234.76C195.929 233.96 196.009 233.2 196.369 232.56C196.669 232.02 197.249 231.42 198.369 231.42C199.349 231.42 199.789 231.92 199.969 232.22C200.269 232.68 200.289 233.3 200.289 233.86V239H201.089V233.86C201.089 233.14 201.049 232.38 200.689 231.8C200.509 231.52 199.889 230.66 198.429 230.66C197.049 230.66 196.309 231.44 195.929 232.12V230.84H195.129V239ZM208.137 231.98C207.757 231.1 206.957 230.66 205.997 230.66C204.757 230.66 203.817 231.52 203.817 232.76C203.817 233.24 203.997 233.58 204.177 233.82C204.537 234.3 205.137 234.56 205.957 234.9C207.197 235.4 207.777 235.74 207.777 236.66C207.777 237.72 206.997 238.46 205.957 238.46C205.057 238.46 204.197 237.9 203.917 236.82L203.137 237.06C203.477 238.42 204.597 239.22 205.957 239.22C207.217 239.22 208.617 238.48 208.617 236.62C208.617 236.16 208.537 235.72 208.197 235.3C207.677 234.64 206.917 234.42 206.097 234.1C205.297 233.78 204.657 233.52 204.657 232.72C204.657 232.12 205.117 231.42 206.037 231.42C206.617 231.42 207.177 231.7 207.457 232.34L208.137 231.98ZM217.297 232.26C216.517 231.16 215.397 230.66 214.117 230.66C211.737 230.66 210.137 232.4 210.137 234.92C210.137 237.6 211.977 239.22 214.117 239.22C215.177 239.22 216.477 238.8 217.297 237.54V239H218.097V230.84H217.297V232.26ZM214.157 231.42C215.557 231.42 217.337 232.44 217.337 234.86C217.337 236.74 216.217 238.46 214.177 238.46C212.117 238.46 210.977 236.7 210.977 234.86C210.977 232.64 212.537 231.42 214.157 231.42ZM227.509 231.7C226.389 230.76 225.269 230.66 224.689 230.66C222.069 230.66 220.449 232.56 220.449 234.98C220.449 237.4 222.169 239.22 224.629 239.22C226.069 239.22 227.069 238.56 227.609 238.08V237C226.969 237.7 225.949 238.46 224.649 238.46C223.069 238.46 221.289 237.3 221.289 234.96C221.289 232.96 222.689 231.42 224.689 231.42C226.029 231.42 226.969 232.14 227.509 232.76V231.7ZM232.097 231.6V230.84H230.677V227.92H229.877V230.84H228.977V231.6H229.877V239H230.677V231.6H232.097ZM233.704 230.84V239H234.504V230.84H233.704ZM234.104 228.86C234.504 228.86 234.824 228.56 234.824 228.12C234.824 227.68 234.504 227.38 234.104 227.38C233.704 227.38 233.384 227.68 233.384 228.12C233.384 228.56 233.704 228.86 234.104 228.86ZM241.136 230.66C238.716 230.66 236.856 232.52 236.856 234.94C236.856 237.36 238.716 239.22 241.136 239.22C243.556 239.22 245.416 237.36 245.416 234.94C245.416 232.52 243.556 230.66 241.136 230.66ZM241.136 238.46C239.176 238.46 237.696 236.92 237.696 234.94C237.696 232.96 239.176 231.42 241.136 231.42C243.096 231.42 244.576 232.96 244.576 234.94C244.576 236.92 243.096 238.46 241.136 238.46ZM247.766 239H248.566V234.76C248.566 233.96 248.646 233.2 249.006 232.56C249.306 232.02 249.886 231.42 251.006 231.42C251.986 231.42 252.426 231.92 252.606 232.22C252.906 232.68 252.926 233.3 252.926 233.86V239H253.726V233.86C253.726 233.14 253.686 232.38 253.326 231.8C253.146 231.52 252.526 230.66 251.066 230.66C249.686 230.66 248.946 231.44 248.566 232.12V230.84H247.766V239ZM260.774 231.98C260.394 231.1 259.594 230.66 258.634 230.66C257.394 230.66 256.454 231.52 256.454 232.76C256.454 233.24 256.634 233.58 256.814 233.82C257.174 234.3 257.774 234.56 258.594 234.9C259.834 235.4 260.414 235.74 260.414 236.66C260.414 237.72 259.634 238.46 258.594 238.46C257.694 238.46 256.834 237.9 256.554 236.82L255.774 237.06C256.114 238.42 257.234 239.22 258.594 239.22C259.854 239.22 261.254 238.48 261.254 236.62C261.254 236.16 261.174 235.72 260.834 235.3C260.314 234.64 259.554 234.42 258.734 234.1C257.934 233.78 257.294 233.52 257.294 232.72C257.294 232.12 257.754 231.42 258.674 231.42C259.254 231.42 259.814 231.7 260.094 232.34L260.774 231.98Z" fill="#6E7272"/>
<defs>
<filter id="filter0_d" x="0" y="0" width="310" height="310" filterUnits="userSpaceOnUse" color-interpolation-filters="sRGB">
<feFlood flood-opacity="0" result="BackgroundImageFix"/>
<feColorMatrix in="SourceAlpha" type="matrix" values="0 0 0 0 0 0 0 0 0 0 0 0 0 0 0 0 0 0 127 0"/>
<feOffset/>
<feGaussianBlur stdDeviation="12.5"/>
<feColorMatrix type="matrix" values="0 0 0 0 0 0 0 0 0 0 0 0 0 0 0 0 0 0 0.15 0"/>
<feBlend mode="normal" in2="BackgroundImageFix" result="effect1_dropShadow"/>
<feBlend mode="normal" in="SourceGraphic" in2="effect1_dropShadow" result="shape"/>
</filter>
<linearGradient id="paint0_linear" x1="155" y1="25" x2="155" y2="285" gradientUnits="userSpaceOnUse">
<stop stop-color="#FFF0A2"/>
<stop offset="1" stop-color="#FFCE4F"/>
</linearGradient>
</defs>
</svg>
