<svg width="310" height="310" viewBox="0 0 310 310" fill="none" xmlns="http://www.w3.org/2000/svg">
<g filter="url(#filter0_d)">
<rect x="25" y="21" width="260" height="260" rx="25" fill="url(#paint0_linear)"/>
<rect x="25" y="21" width="260" height="260" rx="25" fill="white"/>
</g>
<path d="M198.317 114.347L165.659 172.688L148.639 163.159L135.568 155.842L135.063 155.562L135.319 155.104L158.578 113.547L167.714 97.2246L198.317 114.347Z" fill="#BCBCBC"/>
<path d="M137.996 150.323L138.059 150.361C140.948 151.977 141.982 155.635 140.363 158.525L135.07 155.56L137.996 150.323Z" fill="#707070"/>
<path d="M167.714 97.2207L173.014 100.185C171.394 103.078 167.739 104.109 164.85 102.489L164.788 102.458L167.714 97.2207Z" fill="#707070"/>
<path d="M168.592 167.455L165.666 172.687L160.552 169.828C162.147 166.976 165.722 165.937 168.592 167.455Z" fill="#707070"/>
<path d="M193.21 111.488L198.317 114.347L195.39 119.578C192.594 117.928 191.616 114.337 193.21 111.488Z" fill="#707070"/>
<path d="M171.264 126.789C175.773 129.312 177.38 135.016 174.857 139.525C172.335 144.033 166.63 145.643 162.122 143.118C157.614 140.596 156.007 134.894 158.523 130.382C161.05 125.874 166.756 124.267 171.264 126.789Z" fill="#D9D9D9"/>
<path d="M179.565 111.956C182.037 113.345 182.922 116.477 181.539 118.956C180.15 121.434 177.018 122.318 174.539 120.93C172.061 119.545 171.177 116.409 172.565 113.933C173.954 111.451 177.08 110.567 179.565 111.956Z" fill="#707070"/>
<path d="M158.846 148.979C161.325 150.368 162.209 153.5 160.814 155.978C159.432 158.457 156.293 159.341 153.821 157.952C151.336 156.567 150.452 153.431 151.847 150.953C153.23 148.474 156.368 147.59 158.846 148.979Z" fill="#707070"/>
<path d="M164.404 130.761L164.406 130.755C164.534 130.455 164.337 130.085 163.968 129.93C163.598 129.774 163.196 129.892 163.068 130.193L161.688 133.393L161.135 134.676L161.132 134.682C161.005 134.983 161.201 135.353 161.571 135.508C161.94 135.664 162.343 135.546 162.47 135.245L163.024 133.962C163.262 133.409 163.883 133.083 164.601 133.131L163.501 135.684C163.372 135.984 163.566 136.354 163.935 136.511C164.304 136.668 164.707 136.553 164.837 136.253L165.937 133.7C166.107 133.854 166.244 134.031 166.344 134.22C166.554 134.615 166.581 135.043 166.42 135.409L165.867 136.692C165.774 136.914 165.854 137.184 166.071 137.375C166.289 137.566 166.602 137.637 166.859 137.556L171.969 135.936C172.318 135.83 172.459 135.483 172.283 135.162C172.108 134.84 171.683 134.666 171.333 134.773C171.329 134.774 171.324 134.776 171.32 134.777L167.789 135.896C168.228 134.754 167.668 133.385 166.427 132.564L166.77 131.769L166.772 131.763C166.9 131.462 166.703 131.093 166.334 130.937C165.964 130.782 165.562 130.9 165.434 131.2L165.092 131.995C164.694 131.905 164.292 131.878 163.905 131.918L164.404 130.761Z" fill="#707070"/>
<path opacity="0.59" d="M172.323 155.377L148.64 163.158L139.006 166.322L135.568 155.841L135.319 155.103L158.579 113.547L172.323 155.377Z" fill="#BCBCBC"/>
<path d="M113.41 108.985L145.258 94.3069L173.238 155.019L141.397 169.698L113.41 108.985Z" fill="#BCBCBC"/>
<path d="M138.881 164.249L138.943 164.22C141.957 162.835 145.52 164.149 146.903 167.157L141.397 169.698L138.881 164.249Z" fill="#707070"/>
<path d="M113.41 108.985L118.921 106.444C120.309 109.452 118.99 113.017 115.988 114.403L115.925 114.431L113.41 108.985Z" fill="#707070"/>
<path d="M170.729 149.576L173.238 155.019L167.926 157.47C166.556 154.505 167.815 151.003 170.729 149.576Z" fill="#707070"/>
<path d="M139.939 96.7541L145.258 94.3069L147.76 99.7496C144.784 101.038 141.303 99.7215 139.939 96.7541Z" fill="#707070"/>
<path d="M139.403 123.505C144.1 121.341 149.66 123.393 151.822 128.085C153.989 132.778 151.934 138.335 147.238 140.5C142.548 142.664 136.988 140.611 134.826 135.919C132.666 131.224 134.714 125.669 139.403 123.505Z" fill="#D9D9D9"/>
<path d="M132.292 108.066C134.87 106.877 137.921 108.004 139.117 110.586C140.3 113.164 139.179 116.218 136.6 117.405C134.017 118.594 130.958 117.467 129.776 114.889C128.586 112.311 129.714 109.253 132.292 108.066Z" fill="#707070"/>
<path d="M150.053 146.596C152.631 145.407 155.682 146.534 156.878 149.116C158.062 151.694 156.941 154.748 154.362 155.938C151.778 157.127 148.719 156 147.536 153.419C146.341 150.841 147.475 147.786 150.053 146.596Z" fill="#707070"/>
<path d="M147.403 134.006L147.405 134.013C147.545 134.383 147.957 134.569 148.327 134.43C148.697 134.291 148.883 133.878 148.744 133.509L147.28 129.555L146.693 127.97L146.69 127.963C146.551 127.593 146.138 127.406 145.768 127.546C145.399 127.685 145.212 128.097 145.351 128.467L145.938 130.052C146.191 130.735 146.013 131.502 145.484 132.004L144.316 128.851C144.179 128.48 143.768 128.291 143.397 128.429C143.027 128.566 142.838 128.977 142.975 129.348L144.143 132.501C143.911 132.489 143.684 132.434 143.473 132.337C143.033 132.138 142.692 131.77 142.527 131.316L141.94 129.731C141.836 129.459 141.578 129.274 141.286 129.265C140.994 129.258 140.726 129.43 140.611 129.699L138.335 135.047C138.177 135.409 138.342 135.83 138.703 135.989C139.065 136.148 139.487 135.983 139.646 135.621C139.648 135.616 139.65 135.612 139.652 135.607L141.224 131.912C141.783 133.281 143.197 134.1 144.663 133.905L145.026 134.886L145.029 134.893C145.169 135.263 145.581 135.45 145.951 135.311C146.321 135.171 146.507 134.759 146.368 134.389L146.004 133.408C146.344 133.188 146.639 132.906 146.874 132.577L147.403 134.006Z" fill="#707070"/>
<path d="M180.693 201.838H124.757C119.016 201.838 114.37 197.186 114.37 191.451V149.228C114.37 143.492 119.015 138.84 124.757 138.84H180.693C186.428 138.84 191.081 143.492 191.081 149.228V191.451C191.081 197.186 186.428 201.838 180.693 201.838Z" fill="#F2F2F2"/>
<path d="M180.792 198.024H177.959C177.697 198.024 177.486 197.815 177.486 197.553C177.486 197.291 177.697 197.08 177.959 197.08H180.792C181.054 197.08 181.265 197.291 181.265 197.553C181.265 197.815 181.054 198.024 180.792 198.024ZM175.125 198.024H172.291C172.03 198.024 171.818 197.815 171.818 197.553C171.818 197.291 172.03 197.08 172.291 197.08H175.125C175.387 197.08 175.598 197.291 175.598 197.553C175.598 197.815 175.387 198.024 175.125 198.024ZM169.459 198.024H166.618C166.363 198.024 166.152 197.815 166.152 197.553C166.152 197.291 166.363 197.08 166.618 197.08H169.459C169.72 197.08 169.932 197.291 169.932 197.553C169.932 197.815 169.72 198.024 169.459 198.024ZM163.791 198.024H160.952C160.69 198.024 160.478 197.815 160.478 197.553C160.478 197.291 160.69 197.08 160.952 197.08H163.791C164.053 197.08 164.264 197.291 164.264 197.553C164.264 197.815 164.052 198.024 163.791 198.024ZM158.124 198.024H155.285C155.023 198.024 154.811 197.815 154.811 197.553C154.811 197.291 155.023 197.08 155.285 197.08H158.124C158.379 197.08 158.591 197.291 158.591 197.553C158.591 197.815 158.379 198.024 158.124 198.024ZM152.45 198.024H149.617C149.355 198.024 149.144 197.815 149.144 197.553C149.144 197.291 149.355 197.08 149.617 197.08H152.45C152.712 197.08 152.924 197.291 152.924 197.553C152.924 197.815 152.712 198.024 152.45 198.024ZM146.784 198.024H143.951C143.689 198.024 143.477 197.815 143.477 197.553C143.477 197.291 143.689 197.08 143.951 197.08H146.784C147.046 197.08 147.257 197.291 147.257 197.553C147.257 197.815 147.045 198.024 146.784 198.024ZM141.116 198.024H138.284C138.021 198.024 137.81 197.815 137.81 197.553C137.81 197.291 138.021 197.08 138.284 197.08H141.116C141.372 197.08 141.584 197.291 141.584 197.553C141.584 197.815 141.372 198.024 141.116 198.024ZM135.443 198.024H132.615C132.354 198.024 132.142 197.815 132.142 197.553C132.142 197.291 132.354 197.08 132.615 197.08H135.443C135.705 197.08 135.916 197.291 135.916 197.553C135.916 197.815 135.705 198.024 135.443 198.024ZM129.776 198.024H126.948C126.687 198.024 126.475 197.815 126.475 197.553C126.475 197.291 126.687 197.08 126.948 197.08H129.776C130.038 197.08 130.249 197.291 130.249 197.553C130.249 197.815 130.038 198.024 129.776 198.024ZM124.11 198.02H124.097C123.063 197.983 122.06 197.687 121.182 197.164C120.958 197.03 120.884 196.741 121.014 196.516C121.145 196.292 121.438 196.218 121.662 196.351C122.403 196.793 123.263 197.046 124.128 197.076C124.39 197.086 124.595 197.303 124.583 197.565C124.57 197.821 124.364 198.02 124.11 198.02ZM183.545 197.484C183.37 197.484 183.196 197.385 183.121 197.214C183.01 196.977 183.109 196.694 183.346 196.585C184.131 196.214 184.816 195.648 185.326 194.944C185.476 194.735 185.775 194.689 185.986 194.841C186.198 194.994 186.241 195.289 186.085 195.501C185.482 196.329 184.678 196.998 183.744 197.438C183.682 197.469 183.613 197.484 183.545 197.484ZM119.439 195.246C119.277 195.246 119.121 195.162 119.034 195.012C118.511 194.134 118.218 193.125 118.181 192.098C118.181 192.06 118.181 192.026 118.194 191.992C118.181 191.957 118.181 191.923 118.181 191.886V189.053C118.181 188.791 118.392 188.583 118.654 188.583C118.916 188.583 119.127 188.792 119.127 189.053V191.886C119.127 191.917 119.121 191.948 119.115 191.977C119.121 192.005 119.127 192.035 119.127 192.067C119.152 192.936 119.401 193.786 119.85 194.534C119.98 194.757 119.906 195.044 119.682 195.178C119.607 195.224 119.526 195.246 119.439 195.246ZM186.746 193.091C186.721 193.091 186.709 193.088 186.684 193.088C186.422 193.054 186.248 192.817 186.273 192.559C186.304 192.337 186.322 192.113 186.322 191.886V189.787C186.322 189.525 186.534 189.314 186.796 189.314C187.051 189.314 187.263 189.525 187.263 189.787V191.886C187.263 192.154 187.244 192.418 187.213 192.68C187.182 192.917 186.982 193.091 186.746 193.091ZM186.796 187.427C186.534 187.427 186.322 187.216 186.322 186.954V184.121C186.322 183.859 186.534 183.647 186.796 183.647C187.051 183.647 187.263 183.859 187.263 184.121V186.954C187.263 187.216 187.051 187.427 186.796 187.427ZM118.653 186.692C118.392 186.692 118.18 186.481 118.18 186.219V183.386C118.18 183.124 118.392 182.912 118.653 182.912C118.915 182.912 119.127 183.124 119.127 183.386V186.219C119.127 186.48 118.915 186.692 118.653 186.692ZM186.796 181.757C186.534 181.757 186.322 181.546 186.322 181.284V178.45C186.322 178.189 186.534 177.977 186.796 177.977C187.051 177.977 187.263 178.189 187.263 178.45V181.284C187.263 181.545 187.051 181.757 186.796 181.757ZM118.653 181.025C118.392 181.025 118.18 180.814 118.18 180.552V177.719C118.18 177.457 118.392 177.246 118.653 177.246C118.915 177.246 119.127 177.457 119.127 177.719V180.552C119.127 180.813 118.915 181.025 118.653 181.025ZM186.796 176.09C186.534 176.09 186.322 175.879 186.322 175.617V172.783C186.322 172.522 186.534 172.31 186.796 172.31C187.051 172.31 187.263 172.522 187.263 172.783V175.617C187.263 175.878 187.051 176.09 186.796 176.09ZM118.653 175.355C118.392 175.355 118.18 175.146 118.18 174.885V172.048C118.18 171.79 118.392 171.579 118.653 171.579C118.915 171.579 119.127 171.79 119.127 172.048V174.885C119.127 175.146 118.915 175.355 118.653 175.355ZM186.796 170.42C186.534 170.42 186.322 170.208 186.322 169.947V167.113C186.322 166.851 186.534 166.64 186.796 166.64C187.051 166.64 187.263 166.851 187.263 167.113V169.947C187.263 170.208 187.051 170.42 186.796 170.42ZM118.653 169.688C118.392 169.688 118.18 169.477 118.18 169.215V166.381C118.18 166.12 118.392 165.908 118.653 165.908C118.915 165.908 119.127 166.12 119.127 166.381V169.215C119.127 169.477 118.915 169.688 118.653 169.688ZM186.796 164.753C186.534 164.753 186.322 164.541 186.322 164.28V161.446C186.322 161.184 186.534 160.973 186.796 160.973C187.051 160.973 187.263 161.184 187.263 161.446V164.28C187.263 164.541 187.051 164.753 186.796 164.753ZM118.653 164.018C118.392 164.018 118.18 163.809 118.18 163.547V160.711C118.18 160.452 118.392 160.241 118.653 160.241C118.915 160.241 119.127 160.452 119.127 160.711V163.547C119.127 163.809 118.915 164.018 118.653 164.018ZM186.796 159.085C186.534 159.085 186.322 158.874 186.322 158.612V155.779C186.322 155.517 186.534 155.305 186.796 155.305C187.051 155.305 187.263 155.517 187.263 155.779V158.612C187.263 158.874 187.051 159.085 186.796 159.085ZM118.653 158.351C118.392 158.351 118.18 158.139 118.18 157.878V155.044C118.18 154.782 118.392 154.574 118.653 154.574C118.915 154.574 119.127 154.783 119.127 155.044V157.878C119.127 158.139 118.915 158.351 118.653 158.351ZM186.796 153.416C186.534 153.416 186.322 153.204 186.322 152.946V150.109C186.322 149.847 186.534 149.639 186.796 149.639C187.051 149.639 187.263 149.848 187.263 150.109V152.946C187.263 153.203 187.051 153.416 186.796 153.416ZM118.653 152.684C118.392 152.684 118.18 152.472 118.18 152.211V149.377C118.18 149.116 118.392 148.904 118.653 148.904C118.915 148.904 119.127 149.116 119.127 149.377V152.211C119.127 152.472 118.915 152.684 118.653 152.684ZM186.596 147.764C186.385 147.764 186.198 147.627 186.136 147.419C185.911 146.584 185.47 145.812 184.866 145.186C184.685 144.999 184.691 144.7 184.878 144.517C185.065 144.336 185.364 144.343 185.545 144.53C186.261 145.271 186.778 146.184 187.045 147.17C187.12 147.422 186.971 147.681 186.715 147.749C186.671 147.761 186.634 147.764 186.596 147.764ZM119.09 147.073C119.028 147.073 118.965 147.06 118.903 147.035C118.666 146.935 118.554 146.658 118.654 146.419C119.053 145.475 119.688 144.637 120.485 143.996C120.69 143.831 120.983 143.866 121.145 144.07C121.313 144.273 121.281 144.568 121.076 144.734C120.397 145.275 119.862 145.985 119.526 146.783C119.451 146.967 119.277 147.073 119.09 147.073ZM182.822 143.853C182.773 143.853 182.723 143.846 182.679 143.834C182.174 143.679 181.658 143.597 181.129 143.597H180.007C179.752 143.597 179.54 143.386 179.54 143.124C179.54 142.862 179.752 142.651 180.007 142.651H181.129C181.751 142.651 182.374 142.748 182.959 142.931C183.208 143.009 183.345 143.274 183.271 143.523C183.209 143.725 183.022 143.853 182.822 143.853ZM123.336 143.682C123.112 143.682 122.913 143.52 122.87 143.293C122.826 143.034 123 142.789 123.249 142.745C123.598 142.686 123.96 142.655 124.314 142.651H126.164C126.426 142.651 126.637 142.863 126.637 143.125C126.637 143.386 126.426 143.598 126.164 143.598H124.314C124.009 143.598 123.711 143.623 123.411 143.675C123.387 143.682 123.361 143.682 123.336 143.682ZM177.181 143.598H174.341C174.079 143.598 173.868 143.386 173.868 143.125C173.868 142.863 174.079 142.651 174.341 142.651H177.181C177.442 142.651 177.654 142.863 177.654 143.125C177.654 143.386 177.442 143.598 177.181 143.598ZM171.513 143.598H168.673C168.412 143.598 168.2 143.386 168.2 143.125C168.2 142.863 168.412 142.651 168.673 142.651H171.513C171.775 142.651 171.986 142.863 171.986 143.125C171.986 143.386 171.775 143.598 171.513 143.598ZM165.846 143.598H163.007C162.745 143.598 162.533 143.386 162.533 143.125C162.533 142.863 162.745 142.651 163.007 142.651H165.846C166.102 142.651 166.313 142.863 166.313 143.125C166.313 143.386 166.102 143.598 165.846 143.598ZM160.173 143.598H157.34C157.078 143.598 156.866 143.386 156.866 143.125C156.866 142.863 157.078 142.651 157.34 142.651H160.173C160.435 142.651 160.646 142.863 160.646 143.125C160.646 143.386 160.434 143.598 160.173 143.598ZM154.506 143.598H151.673C151.411 143.598 151.199 143.386 151.199 143.125C151.199 142.863 151.411 142.651 151.673 142.651H154.506C154.768 142.651 154.973 142.863 154.973 143.125C154.973 143.386 154.767 143.598 154.506 143.598ZM148.832 143.598H146.005C145.743 143.598 145.532 143.386 145.532 143.125C145.532 142.863 145.743 142.651 146.005 142.651H148.832C149.094 142.651 149.306 142.863 149.306 143.125C149.306 143.386 149.094 143.598 148.832 143.598ZM143.165 143.598H140.337C140.076 143.598 139.864 143.386 139.864 143.125C139.864 142.863 140.076 142.651 140.337 142.651H143.165C143.427 142.651 143.639 142.863 143.639 143.125C143.639 143.386 143.427 143.598 143.165 143.598ZM137.498 143.598H134.665C134.41 143.598 134.198 143.386 134.198 143.125C134.198 142.863 134.41 142.651 134.665 142.651H137.498C137.76 142.651 137.972 142.863 137.972 143.125C137.972 143.386 137.76 143.598 137.498 143.598ZM131.831 143.598H128.998C128.736 143.598 128.525 143.386 128.525 143.125C128.525 142.863 128.736 142.651 128.998 142.651H131.831C132.093 142.651 132.305 142.863 132.305 143.125C132.305 143.386 132.093 143.598 131.831 143.598Z" fill="#D9D9D9"/>
<path d="M190.576 179.98H166.693C162.408 179.98 158.933 176.507 158.933 172.223V168.455C158.933 164.171 162.407 160.696 166.693 160.696H190.576C192.039 160.696 193.222 161.88 193.222 163.339V177.339C193.223 178.796 192.039 179.98 190.576 179.98Z" fill="#747474"/>
<path d="M168.362 175.483C171.203 175.483 173.506 173.18 173.506 170.339C173.506 167.498 171.203 165.195 168.362 165.195C165.521 165.195 163.218 167.498 163.218 170.339C163.218 173.18 165.521 175.483 168.362 175.483Z" fill="#D9D9D9"/>
<path opacity="0.5" d="M122.963 173.767C115.166 173.767 108.852 180.088 108.852 187.885C108.852 195.678 115.166 201.999 122.963 201.999C130.76 201.999 137.081 195.678 137.081 187.885C137.081 180.088 130.76 173.767 122.963 173.767Z" fill="#F2F2F2"/>
<path d="M134.085 187.885C134.085 195.679 127.758 202 119.967 202C112.171 202 105.85 195.679 105.85 187.885C105.85 180.089 112.171 173.768 119.967 173.768C127.758 173.767 134.085 180.088 134.085 187.885Z" fill="#747474"/>
<path d="M131.507 187.885C131.507 194.259 126.338 199.428 119.967 199.428C113.591 199.428 108.422 194.259 108.422 187.885C108.422 181.508 113.591 176.339 119.967 176.339C126.338 176.339 131.507 181.508 131.507 187.885Z" fill="#747474"/>
<path d="M123.439 183.891H123.449C123.949 183.894 124.356 183.49 124.359 182.99C124.362 182.491 123.958 182.083 123.458 182.08L118.122 182.023L115.983 182H115.973C115.473 181.997 115.066 182.401 115.063 182.901C115.06 183.401 115.464 183.808 115.964 183.811L118.103 183.834C119.025 183.844 119.851 184.402 120.205 185.253L115.949 185.207C115.449 185.202 115.04 185.603 115.034 186.103C115.029 186.603 115.43 187.013 115.93 187.018L120.185 187.064C120.067 187.332 119.898 187.576 119.689 187.781C119.255 188.211 118.665 188.448 118.054 188.438L115.915 188.415C115.546 188.415 115.212 188.636 115.068 188.976C114.927 189.319 115.009 189.713 115.276 189.971L120.568 195.08C120.924 195.431 121.497 195.427 121.848 195.072C122.199 194.716 122.195 194.143 121.84 193.791C121.835 193.787 121.83 193.782 121.826 193.778L118.169 190.247C120.041 190.206 121.648 188.905 122.08 187.084L123.405 187.098H123.415C123.915 187.101 124.322 186.698 124.325 186.198C124.327 185.697 123.924 185.29 123.424 185.288L122.099 185.273C121.993 184.773 121.794 184.297 121.511 183.87L123.439 183.891Z" fill="#D9D9D9"/>
<path d="M64.7734 57.5898H69.4258L67.6797 51.9297C67.6406 51.8281 67.5664 51.5469 67.457 51.0859C67.3242 50.5469 67.2031 50.0586 67.0938 49.6211C66.9844 50.0195 66.8906 50.4219 66.8125 50.8281C66.6875 51.2188 66.582 51.5859 66.4961 51.9297L64.7734 57.5898ZM58.2227 64L64.1406 46.8438H70L75.9297 64H71.2773L70.4102 60.9297H63.7656L62.875 64H58.2227ZM85.7852 56.0547C85.3789 55.6953 84.9883 55.4336 84.6133 55.2695C84.2773 55.1055 83.8828 55.0234 83.4297 55.0234C82.5938 55.0234 81.9375 55.2969 81.4609 55.8438C80.9688 56.3828 80.7227 57.125 80.7227 58.0703C80.7227 58.9766 80.9766 59.6953 81.4844 60.2266C81.9766 60.7734 82.6602 61.0469 83.5352 61.0469C83.9492 61.0469 84.3477 60.9609 84.7305 60.7891C85.1367 60.5938 85.4883 60.3359 85.7852 60.0156V63.6367C85.2852 63.9023 84.7812 64.1133 84.2734 64.2695C83.7344 64.3945 83.2227 64.457 82.7383 64.457C80.9102 64.457 79.4375 63.8711 78.3203 62.6992C77.9375 62.3086 77.6211 61.8789 77.3711 61.4102C77.1289 60.9414 76.9414 60.4336 76.8086 59.8867C76.6836 59.3398 76.6211 58.7422 76.6211 58.0938C76.6211 56.2266 77.1914 54.7109 78.332 53.5469C79.4805 52.375 80.9648 51.7891 82.7852 51.7891C83.3555 51.7891 83.8984 51.8516 84.4141 51.9766C84.9141 52.1016 85.3711 52.2852 85.7852 52.5273V56.0547ZM96.8477 56.0547C96.4414 55.6953 96.0508 55.4336 95.6758 55.2695C95.3398 55.1055 94.9453 55.0234 94.4922 55.0234C93.6562 55.0234 93 55.2969 92.5234 55.8438C92.0312 56.3828 91.7852 57.125 91.7852 58.0703C91.7852 58.9766 92.0391 59.6953 92.5469 60.2266C93.0391 60.7734 93.7227 61.0469 94.5977 61.0469C95.0117 61.0469 95.4102 60.9609 95.793 60.7891C96.1992 60.5938 96.5508 60.3359 96.8477 60.0156V63.6367C96.3477 63.9023 95.8438 64.1133 95.3359 64.2695C94.7969 64.3945 94.2852 64.457 93.8008 64.457C91.9727 64.457 90.5 63.8711 89.3828 62.6992C89 62.3086 88.6836 61.8789 88.4336 61.4102C88.1914 60.9414 88.0039 60.4336 87.8711 59.8867C87.7461 59.3398 87.6836 58.7422 87.6836 58.0938C87.6836 56.2266 88.2539 54.7109 89.3945 53.5469C90.543 52.375 92.0273 51.7891 93.8477 51.7891C94.418 51.7891 94.9609 51.8516 95.4766 51.9766C95.9766 52.1016 96.4336 52.2852 96.8477 52.5273V56.0547ZM107.57 56.5586C107.5 55.9023 107.246 55.3672 106.809 54.9531C106.371 54.5391 105.836 54.332 105.203 54.332C104.539 54.332 104 54.5156 103.586 54.8828C103.156 55.2969 102.887 55.8555 102.777 56.5586H107.57ZM111.684 58.9141H102.684C102.707 59.8359 102.938 60.5391 103.375 61.0234C103.828 61.5234 104.484 61.7734 105.344 61.7734C105.969 61.7734 106.504 61.6523 106.949 61.4102C107.402 61.1523 107.73 60.8008 107.934 60.3555L111.074 61.6211C110.707 62.5195 110.043 63.2148 109.082 63.707C108.129 64.207 106.961 64.457 105.578 64.457C103.516 64.457 101.859 63.8789 100.609 62.7227C99.3672 61.5977 98.7461 60.0938 98.7461 58.2109C98.7461 56.375 99.3672 54.8398 100.609 53.6055C101.852 52.3945 103.43 51.7891 105.344 51.7891C107.297 51.7891 108.84 52.4023 109.973 53.6289C110.551 54.2617 110.98 55 111.262 55.8438C111.543 56.6797 111.684 57.6367 111.684 58.7148V58.9141ZM112.984 63.0156L113.852 59.8281C114.461 60.3672 115.133 60.7734 115.867 61.0469C116.594 61.3359 117.328 61.4805 118.07 61.4805C118.602 61.4805 119 61.3906 119.266 61.2109C119.539 61.0469 119.676 60.8086 119.676 60.4961C119.676 59.9727 119.125 59.582 118.023 59.3242C117.641 59.2383 117.352 59.1641 117.156 59.1016C115.883 58.7266 114.98 58.2695 114.449 57.7305C113.871 57.1758 113.582 56.457 113.582 55.5742C113.582 54.4336 114.016 53.5156 114.883 52.8203C115.719 52.1328 116.887 51.7891 118.387 51.7891C119.113 51.7891 119.887 51.875 120.707 52.0469C121.395 52.1875 122.195 52.4609 123.109 52.8672L122.242 55.7383C121.68 55.3555 121.113 55.0703 120.543 54.8828C120.004 54.6875 119.438 54.5898 118.844 54.5898C118.359 54.5898 117.996 54.6641 117.754 54.8125C117.52 54.9531 117.402 55.168 117.402 55.457C117.402 55.8633 117.953 56.2148 119.055 56.5117C119.414 56.6211 119.598 56.6758 119.605 56.6758C121.043 57.082 122.051 57.5625 122.629 58.1172C123.191 58.7031 123.473 59.4648 123.473 60.4023C123.473 61.6133 123.008 62.5898 122.078 63.332C121.125 64.082 119.895 64.457 118.387 64.457C117.34 64.457 116.375 64.3359 115.492 64.0938C114.617 63.8594 113.781 63.5 112.984 63.0156ZM124.609 63.0156L125.477 59.8281C126.086 60.3672 126.758 60.7734 127.492 61.0469C128.219 61.3359 128.953 61.4805 129.695 61.4805C130.227 61.4805 130.625 61.3906 130.891 61.2109C131.164 61.0469 131.301 60.8086 131.301 60.4961C131.301 59.9727 130.75 59.582 129.648 59.3242C129.266 59.2383 128.977 59.1641 128.781 59.1016C127.508 58.7266 126.605 58.2695 126.074 57.7305C125.496 57.1758 125.207 56.457 125.207 55.5742C125.207 54.4336 125.641 53.5156 126.508 52.8203C127.344 52.1328 128.512 51.7891 130.012 51.7891C130.738 51.7891 131.512 51.875 132.332 52.0469C133.02 52.1875 133.82 52.4609 134.734 52.8672L133.867 55.7383C133.305 55.3555 132.738 55.0703 132.168 54.8828C131.629 54.6875 131.062 54.5898 130.469 54.5898C129.984 54.5898 129.621 54.6641 129.379 54.8125C129.145 54.9531 129.027 55.168 129.027 55.457C129.027 55.8633 129.578 56.2148 130.68 56.5117C131.039 56.6211 131.223 56.6758 131.23 56.6758C132.668 57.082 133.676 57.5625 134.254 58.1172C134.816 58.7031 135.098 59.4648 135.098 60.4023C135.098 61.6133 134.633 62.5898 133.703 63.332C132.75 64.082 131.52 64.457 130.012 64.457C128.965 64.457 128 64.3359 127.117 64.0938C126.242 63.8594 125.406 63.5 124.609 63.0156ZM145.527 64L145.504 55.1172H143.734V52.1641H145.504V48.6367H149.641V52.1641H151.387V55.1172H149.641V64H145.527ZM161.746 58.1172C161.746 57.2344 161.523 56.5391 161.078 56.0312C160.617 55.5234 160.016 55.2695 159.273 55.2695C158.508 55.2695 157.906 55.5234 157.469 56.0312C157.023 56.5234 156.801 57.2188 156.801 58.1172C156.801 58.9922 157.016 59.6797 157.445 60.1797C157.914 60.6953 158.523 60.9531 159.273 60.9531C160.023 60.9531 160.633 60.6953 161.102 60.1797C161.531 59.6641 161.746 58.9766 161.746 58.1172ZM165.895 58.1172C165.895 58.9844 165.727 59.793 165.391 60.543C165.039 61.3398 164.559 62.0273 163.949 62.6055C163.262 63.2461 162.551 63.7109 161.816 64C161.051 64.3047 160.203 64.457 159.273 64.457C158.336 64.457 157.488 64.3047 156.73 64C155.957 63.6953 155.242 63.2344 154.586 62.6172C153.938 61.9922 153.469 61.3008 153.18 60.543C152.844 59.8164 152.676 59.0078 152.676 58.1172C152.676 57.25 152.844 56.4336 153.18 55.668C153.492 54.8945 153.965 54.207 154.598 53.6055C155.215 53.0117 155.926 52.5547 156.73 52.2344C157.496 51.9375 158.344 51.7891 159.273 51.7891C160.195 51.7891 161.043 51.9375 161.816 52.2344C162.621 52.5547 163.332 53.0117 163.949 53.6055C164.598 54.1914 165.078 54.8789 165.391 55.668C165.727 56.4336 165.895 57.25 165.895 58.1172ZM188.547 47.5117V52.6211C187.875 51.8945 187.242 51.3672 186.648 51.0391C185.984 50.7188 185.297 50.5586 184.586 50.5586C183.25 50.5586 182.16 51.0156 181.316 51.9297C181.027 52.2578 180.793 52.6016 180.613 52.9609C180.434 53.3125 180.297 53.7148 180.203 54.168C180.117 54.6133 180.074 55.0664 180.074 55.5273C180.074 56.9023 180.496 58.0469 181.34 58.9609C182.191 59.8594 183.273 60.3086 184.586 60.3086C185.289 60.3086 185.977 60.1406 186.648 59.8047C187.242 59.5 187.875 58.9766 188.547 58.2344V63.3555C187.68 63.7617 186.941 64.0312 186.332 64.1641C185.574 64.3438 184.832 64.4336 184.105 64.4336C183.184 64.4336 182.316 64.3203 181.504 64.0938C180.691 63.875 179.965 63.5391 179.324 63.0859C178.043 62.2109 177.066 61.1328 176.395 59.8516C175.723 58.5234 175.387 57.0508 175.387 55.4336C175.387 54.1367 175.605 52.9453 176.043 51.8594C176.238 51.3359 176.484 50.8438 176.781 50.3828C177.086 49.9141 177.477 49.4297 177.953 48.9297C178.773 48.0859 179.695 47.4609 180.719 47.0547C181.734 46.6406 182.863 46.4336 184.105 46.4336C184.816 46.4336 185.559 46.5195 186.332 46.6914C187.098 46.8945 187.836 47.168 188.547 47.5117ZM190.914 64V52.1641H194.852V54.9531C195.266 53.9297 195.816 53.168 196.504 52.668C197.215 52.1602 198.07 51.9062 199.07 51.9062C199.297 51.9062 199.465 51.9141 199.574 51.9297C199.66 51.9375 199.738 51.9453 199.809 51.9531C199.879 51.9531 199.969 51.9609 200.078 51.9766L199.68 55.7734C199.391 55.6797 199.141 55.6133 198.93 55.5742C198.617 55.543 198.387 55.5273 198.238 55.5273C197.223 55.5273 196.438 55.8398 195.883 56.4648C195.336 57.082 195.062 57.9609 195.062 59.1016V64H190.914ZM209.781 56.5586C209.711 55.9023 209.457 55.3672 209.02 54.9531C208.582 54.5391 208.047 54.332 207.414 54.332C206.75 54.332 206.211 54.5156 205.797 54.8828C205.367 55.2969 205.098 55.8555 204.988 56.5586H209.781ZM213.895 58.9141H204.895C204.918 59.8359 205.148 60.5391 205.586 61.0234C206.039 61.5234 206.695 61.7734 207.555 61.7734C208.18 61.7734 208.715 61.6523 209.16 61.4102C209.613 61.1523 209.941 60.8008 210.145 60.3555L213.285 61.6211C212.918 62.5195 212.254 63.2148 211.293 63.707C210.34 64.207 209.172 64.457 207.789 64.457C205.727 64.457 204.07 63.8789 202.82 62.7227C201.578 61.5977 200.957 60.0938 200.957 58.2109C200.957 56.375 201.578 54.8398 202.82 53.6055C204.062 52.3945 205.641 51.7891 207.555 51.7891C209.508 51.7891 211.051 52.4023 212.184 53.6289C212.762 54.2617 213.191 55 213.473 55.8438C213.754 56.6797 213.895 57.6367 213.895 58.7148V58.9141ZM225.344 58.0938C225.344 57.1641 225.105 56.4375 224.629 55.9141C224.121 55.3828 223.449 55.1172 222.613 55.1172C221.77 55.1172 221.105 55.3828 220.621 55.9141C220.137 56.4453 219.895 57.1719 219.895 58.0938C219.895 59.0234 220.137 59.7539 220.621 60.2852C221.098 60.8086 221.762 61.0703 222.613 61.0703C223.457 61.0703 224.129 60.8086 224.629 60.2852C225.105 59.7617 225.344 59.0312 225.344 58.0938ZM229.047 45.8359V64H225.203V62.0781C224.672 62.8828 224.07 63.4766 223.398 63.8594C222.773 64.2578 222.039 64.457 221.195 64.457C219.539 64.457 218.215 63.8789 217.223 62.7227C216.238 61.5664 215.746 60.0234 215.746 58.0938C215.746 56.2188 216.242 54.6914 217.234 53.5117C218.219 52.3633 219.492 51.7891 221.055 51.7891C222.055 51.7891 222.867 51.9727 223.492 52.3398C224.094 52.6758 224.656 53.2734 225.18 54.1328C225.148 53.9219 225.117 53.6016 225.086 53.1719C225.055 52.7031 225.039 52.3203 225.039 52.0234V45.8359H229.047ZM232.047 64V52.1641H236.219V64H232.047ZM232.574 49.1172H232.598C232.598 48.6797 232.75 48.3203 233.055 48.0391C233.359 47.7344 233.727 47.582 234.156 47.582C234.609 47.582 234.98 47.7266 235.27 48.0156C235.566 48.3047 235.715 48.6719 235.715 49.1172C235.715 49.5703 235.562 49.9453 235.258 50.2422C234.961 50.5469 234.594 50.6992 234.156 50.6992C233.711 50.6992 233.336 50.5391 233.031 50.2188C232.727 49.9219 232.574 49.5547 232.574 49.1172ZM240.309 64L240.285 55.1172H238.516V52.1641H240.285V48.6367H244.422V52.1641H246.168V55.1172H244.422V64H240.309Z" fill="#54575A"/>
<path d="M66.1965 221.66V230C66.1965 231.46 66.2765 232.42 66.9565 233.42C67.9565 234.88 69.5365 235.22 70.7365 235.22C71.9365 235.22 73.5165 234.88 74.5165 233.42C75.1965 232.42 75.2765 231.46 75.2765 230V221.66H74.3965V230C74.3965 231.26 74.3365 232.08 73.8365 232.88C73.0565 234.14 71.5965 234.42 70.7365 234.42C69.8765 234.42 68.4165 234.14 67.6365 232.88C67.1365 232.08 67.0765 231.26 67.0765 230V221.66H66.1965ZM78.5123 235H79.3123V230.76C79.3123 229.96 79.3923 229.2 79.7523 228.56C80.0523 228.02 80.6323 227.42 81.7523 227.42C82.7323 227.42 83.1723 227.92 83.3523 228.22C83.6523 228.68 83.6723 229.3 83.6723 229.86V235H84.4723V229.86C84.4723 229.14 84.4323 228.38 84.0723 227.8C83.8923 227.52 83.2723 226.66 81.8123 226.66C80.4323 226.66 79.6923 227.44 79.3123 228.12V226.84H78.5123V235ZM87.3599 220.42V235H88.1599V220.42H87.3599ZM94.7918 226.66C92.3718 226.66 90.5118 228.52 90.5118 230.94C90.5118 233.36 92.3718 235.22 94.7918 235.22C97.2118 235.22 99.0718 233.36 99.0718 230.94C99.0718 228.52 97.2118 226.66 94.7918 226.66ZM94.7918 234.46C92.8318 234.46 91.3518 232.92 91.3518 230.94C91.3518 228.96 92.8318 227.42 94.7918 227.42C96.7518 227.42 98.2318 228.96 98.2318 230.94C98.2318 232.92 96.7518 234.46 94.7918 234.46ZM107.962 227.7C106.842 226.76 105.722 226.66 105.142 226.66C102.522 226.66 100.902 228.56 100.902 230.98C100.902 233.4 102.622 235.22 105.082 235.22C106.522 235.22 107.522 234.56 108.062 234.08V233C107.422 233.7 106.402 234.46 105.102 234.46C103.522 234.46 101.742 233.3 101.742 230.96C101.742 228.96 103.142 227.42 105.142 227.42C106.482 227.42 107.422 228.14 107.962 228.76V227.7ZM110.27 220.42V235H111.07V231.38L111.49 230.96L115.51 235H116.59L112.03 230.38L115.47 226.84H114.43L111.07 230.34V220.42H110.27ZM125.708 227.6V226.84H123.668V223.12C123.668 221.24 124.388 220.94 125.088 220.94C125.328 220.94 125.508 220.96 125.708 221.04V220.3C125.568 220.26 125.348 220.18 125.008 220.18C124.048 220.18 122.868 220.66 122.868 222.96V226.84H121.948V227.6H122.868V235H123.668V227.6H125.708ZM130.905 226.66C128.485 226.66 126.625 228.52 126.625 230.94C126.625 233.36 128.485 235.22 130.905 235.22C133.325 235.22 135.185 233.36 135.185 230.94C135.185 228.52 133.325 226.66 130.905 226.66ZM130.905 234.46C128.945 234.46 127.465 232.92 127.465 230.94C127.465 228.96 128.945 227.42 130.905 227.42C132.865 227.42 134.345 228.96 134.345 230.94C134.345 232.92 132.865 234.46 130.905 234.46ZM137.536 235H138.336V230.62C138.336 229.6 138.356 227.42 139.996 227.42C140.356 227.42 140.516 227.52 140.596 227.58L140.996 226.86C140.696 226.7 140.356 226.66 140.136 226.66C139.256 226.66 138.636 227.2 138.336 227.9V226.84H137.536V235ZM142.731 235H143.531V230.28C143.531 228.66 144.191 227.42 145.611 227.42C147.371 227.42 147.411 229.24 147.411 229.76V235H148.211V230.08C148.211 229.58 148.231 227.42 150.391 227.42C150.771 227.42 151.251 227.5 151.611 227.88C152.051 228.34 152.091 229.02 152.091 229.56V235H152.891V229.56C152.891 228.9 152.851 228 152.191 227.34C151.831 226.98 151.251 226.66 150.351 226.66C149.271 226.66 148.391 227.16 147.931 228.14C147.771 227.72 147.251 226.66 145.651 226.66C145.091 226.66 144.151 226.8 143.531 227.86V226.84H142.731V235ZM162.418 228.26C161.638 227.16 160.518 226.66 159.238 226.66C156.858 226.66 155.258 228.4 155.258 230.92C155.258 233.6 157.098 235.22 159.238 235.22C160.298 235.22 161.598 234.8 162.418 233.54V235H163.218V226.84H162.418V228.26ZM159.278 227.42C160.678 227.42 162.458 228.44 162.458 230.86C162.458 232.74 161.338 234.46 159.298 234.46C157.238 234.46 156.098 232.7 156.098 230.86C156.098 228.64 157.658 227.42 159.278 227.42ZM166.09 220.42V235H166.89V220.42H166.09ZM177.27 227.6V226.84H175.23V223.58C175.23 223.1 175.23 222.38 175.57 221.82C176.05 221.04 176.89 220.94 177.41 220.94C177.93 220.94 178.77 221.02 179.25 221.82C179.59 222.38 179.59 223.06 179.59 223.58V223.92H180.39V223.58C180.39 222.32 180.25 221.86 179.95 221.4C179.17 220.26 178.15 220.18 177.41 220.18C176.67 220.18 175.65 220.26 174.87 221.4C174.57 221.86 174.43 222.32 174.43 223.58V226.84H173.51V227.6H174.43V235H175.23V227.6H177.27ZM179.59 226.84V235H180.39V226.84H179.59ZM183.278 235H184.078V230.76C184.078 229.96 184.158 229.2 184.518 228.56C184.818 228.02 185.398 227.42 186.518 227.42C187.498 227.42 187.938 227.92 188.118 228.22C188.418 228.68 188.438 229.3 188.438 229.86V235H189.238V229.86C189.238 229.14 189.198 228.38 188.838 227.8C188.658 227.52 188.038 226.66 186.578 226.66C185.198 226.66 184.458 227.44 184.078 228.12V226.84H183.278V235ZM198.766 228.26C197.986 227.16 196.866 226.66 195.586 226.66C193.206 226.66 191.606 228.4 191.606 230.92C191.606 233.6 193.446 235.22 195.586 235.22C196.646 235.22 197.946 234.8 198.766 233.54V235H199.566V226.84H198.766V228.26ZM195.626 227.42C197.026 227.42 198.806 228.44 198.806 230.86C198.806 232.74 197.686 234.46 195.646 234.46C193.586 234.46 192.446 232.7 192.446 230.86C192.446 228.64 194.006 227.42 195.626 227.42ZM202.438 235H203.238V230.76C203.238 229.96 203.318 229.2 203.678 228.56C203.978 228.02 204.558 227.42 205.678 227.42C206.658 227.42 207.098 227.92 207.278 228.22C207.578 228.68 207.598 229.3 207.598 229.86V235H208.398V229.86C208.398 229.14 208.358 228.38 207.998 227.8C207.818 227.52 207.198 226.66 205.738 226.66C204.358 226.66 203.618 227.44 203.238 228.12V226.84H202.438V235ZM217.826 227.7C216.706 226.76 215.586 226.66 215.006 226.66C212.386 226.66 210.766 228.56 210.766 230.98C210.766 233.4 212.486 235.22 214.946 235.22C216.386 235.22 217.386 234.56 217.926 234.08V233C217.286 233.7 216.266 234.46 214.966 234.46C213.386 234.46 211.606 233.3 211.606 230.96C211.606 228.96 213.006 227.42 215.006 227.42C216.346 227.42 217.286 228.14 217.826 228.76V227.7ZM220.133 226.84V235H220.933V226.84H220.133ZM220.533 224.86C220.933 224.86 221.253 224.56 221.253 224.12C221.253 223.68 220.933 223.38 220.533 223.38C220.133 223.38 219.813 223.68 219.813 224.12C219.813 224.56 220.133 224.86 220.533 224.86ZM223.805 235H224.605V230.76C224.605 229.96 224.685 229.2 225.045 228.56C225.345 228.02 225.925 227.42 227.045 227.42C228.025 227.42 228.465 227.92 228.645 228.22C228.945 228.68 228.965 229.3 228.965 229.86V235H229.765V229.86C229.765 229.14 229.725 228.38 229.365 227.8C229.185 227.52 228.565 226.66 227.105 226.66C225.725 226.66 224.985 227.44 224.605 228.12V226.84H223.805V235ZM239.373 226.84V228.26C238.673 227.26 237.593 226.66 236.253 226.66C233.693 226.66 232.133 228.56 232.133 230.92C232.133 233.76 234.153 235.22 236.153 235.22C237.313 235.22 238.553 234.74 239.373 233.6V234.76C239.373 235.6 239.293 238.84 236.073 238.84C234.333 238.84 233.053 237.8 232.913 236.1H232.073C232.173 238.36 233.953 239.6 236.073 239.6C238.633 239.6 240.173 237.84 240.173 234.76V226.84H239.373ZM236.173 227.42C238.173 227.42 239.413 228.98 239.413 230.88C239.413 232.88 238.153 234.46 236.133 234.46C234.213 234.46 232.973 232.92 232.973 230.96C232.973 229.08 234.153 227.42 236.173 227.42Z" fill="#6E7272"/>
<defs>
<filter id="filter0_d" x="0" y="0" width="310" height="310" filterUnits="userSpaceOnUse" color-interpolation-filters="sRGB">
<feFlood flood-opacity="0" result="BackgroundImageFix"/>
<feColorMatrix in="SourceAlpha" type="matrix" values="0 0 0 0 0 0 0 0 0 0 0 0 0 0 0 0 0 0 127 0"/>
<feOffset dy="4"/>
<feGaussianBlur stdDeviation="12.5"/>
<feColorMatrix type="matrix" values="0 0 0 0 0 0 0 0 0 0 0 0 0 0 0 0 0 0 0.15 0"/>
<feBlend mode="normal" in2="BackgroundImageFix" result="effect1_dropShadow"/>
<feBlend mode="normal" in="SourceGraphic" in2="effect1_dropShadow" result="shape"/>
</filter>
<linearGradient id="paint0_linear" x1="155" y1="21" x2="155" y2="281" gradientUnits="userSpaceOnUse">
<stop stop-color="#FFF0A2"/>
<stop offset="1" stop-color="#FFCE4F"/>
</linearGradient>
</defs>
</svg>
