<svg width="175" height="175" viewBox="0 0 175 175" fill="none" xmlns="http://www.w3.org/2000/svg">
<g filter="url(#filter0_d)">
<rect x="25" y="25" width="125" height="125" rx="20" fill="url(#paint0_linear)"/>
<rect x="25" y="25" width="125" height="125" rx="20" fill="white"/>
</g>
<g filter="url(#filter1_i)">
<circle cx="87.5" cy="87.5" r="42.25" stroke="#A9D77C" stroke-width="3"/>
<path d="M115.114 103.6C114.987 103.424 114.537 102.958 111.611 102.129L107.21 97.6717L109.173 96.7498L115.245 96.6447C115.79 96.6354 116.226 96.1793 116.217 95.627C116.207 95.0741 115.75 94.6077 115.211 94.6433C115.211 94.6433 108.656 94.7863 108.531 94.8452L105.722 96.165L105.061 95.4949C110.687 85.8338 109.407 73.1585 101.221 64.8694C91.5185 55.0435 75.7299 55.0435 66.0274 64.8694C56.3242 74.6942 56.3242 90.6827 66.0274 100.507C71.1804 105.726 78.0493 108.171 84.8118 107.846C84.7376 108.249 84.7162 108.693 84.7655 109.171C84.8766 110.259 85.3477 111.464 86.1657 112.263C83.891 113.103 83.7875 113.467 83.8801 114.143C84.0306 115.233 84.6095 116.129 85.5113 116.664C85.6686 116.757 85.8398 116.801 86.0097 116.801C86.349 116.801 86.6795 116.624 86.8635 116.307C87.1398 115.83 86.1509 114.661 86.0373 114.467C86.7538 114.17 88.0229 113.724 89.1609 113.357C89.773 113.418 92.7114 113.385 93.0682 113.355C94.9428 114.98 98.2379 116.501 100.482 117.426C100.604 117.476 100.73 117.5 100.854 117.5C101.244 117.5 101.614 117.265 101.769 116.877C101.975 116.365 101.733 115.781 101.227 115.573C100.203 115.151 99.2012 114.69 98.2764 114.226L100.601 109.736C100.647 109.648 100.651 109.544 100.613 109.453C100.576 109.361 100.5 109.292 100.406 109.262C100.138 109.179 97.7537 108.46 96.6252 108.782C95.3768 109.139 94.04 110.252 93.8018 111.368C93.6937 111.242 93.3054 110.495 94.1017 109.523C95.2095 108.169 97.9091 107.717 98.599 107.781C100.636 107.936 106.159 109.916 108.114 110.666C108.139 110.675 108.164 110.684 108.188 110.691C110.059 111.242 114.553 112.314 115.879 110.366C116.29 109.759 116.695 105.792 115.114 103.6ZM64.9764 70.3966H98.736V94.7091H64.8092C60.1936 87.3033 60.2469 77.7499 64.9764 70.3966ZM74.5699 99.1432H83.8371C83.8492 99.1655 84.6807 100.363 84.6807 100.363H73.7288C73.7288 100.363 74.5613 99.1575 74.5699 99.1432ZM83.7484 98.4761H74.6674V96.0435H83.7484V98.4761ZM67.8902 98.6208C67.0859 97.8068 66.3569 96.9441 65.7018 96.0439H73.3494V98.5932L71.9189 100.646C71.777 100.849 71.7589 101.116 71.872 101.337C71.985 101.559 72.2103 101.698 72.4567 101.698H85.9571C86.2038 101.698 86.4295 101.558 86.5425 101.336C86.6556 101.114 86.6368 100.847 86.4936 100.644L85.0645 98.6112V96.0442H99.3934C99.7574 96.0442 100.052 95.7461 100.052 95.3768V69.7302C100.052 69.3616 99.7574 69.0629 99.3934 69.0629H65.9091C66.5113 68.2614 67.168 67.4886 67.8902 66.7567C72.2281 62.3643 77.9258 60.1679 83.6239 60.1679C89.3222 60.1679 95.0196 62.3643 99.3579 66.7564C108.033 75.5422 108.033 89.836 99.3579 98.6208C90.6817 107.406 76.5663 107.406 67.8902 98.6208ZM96.8032 109.423C97.4817 109.228 98.9778 109.557 99.8293 109.789L97.6876 113.926C96.3114 113.208 95.1553 112.502 94.425 111.934C94.2883 110.587 96.2119 109.593 96.8032 109.423ZM92.9358 107.916C92.0277 108.804 91.3834 110.384 91.6785 111.43C90.4711 111.466 88.9073 111.425 87.9519 111.102C87.3921 110.913 86.8855 110.073 86.7479 109.105C86.6381 108.333 86.8182 107.863 86.9098 107.799C90.2586 107.327 92.5369 106.715 96.271 104.396L97.686 105.832C96.2861 106.008 94.2607 106.619 92.9358 107.916ZM108.776 108.779C108.322 108.605 104.705 107.237 101.719 106.407C101.661 106.187 98.5073 102.888 98.5073 102.888C99.4538 102.172 100.361 101.378 101.221 100.508C102.081 99.6379 102.864 98.7193 103.571 97.7612C103.571 97.7612 114.32 109.119 114.251 109.229C113.921 109.655 111.409 109.548 108.776 108.779ZM65.0385 87.779C66.0681 87.779 66.9052 86.931 66.9052 85.888C66.9052 85.2722 66.6089 84.7296 66.1572 84.384L68.5903 79.5584C68.7703 79.6166 68.9576 79.6565 69.1563 79.6565C69.383 79.6565 69.5979 79.6089 69.7993 79.5338L74.5153 87.6692C74.1796 88.0112 73.9713 88.4813 73.9713 89.0009C73.9713 90.0436 74.809 90.8913 75.838 90.8913C76.8676 90.8913 77.7044 90.0439 77.7044 89.0009C77.7044 88.5219 77.5217 88.0884 77.2306 87.755L79.7912 83.8919C80.0166 83.9901 80.265 84.0456 80.5258 84.0456C80.9427 84.0456 81.3238 83.9019 81.6349 83.6677L82.7667 84.718C82.6435 84.9698 82.5683 85.2499 82.5683 85.5497C82.5683 86.5923 83.406 87.44 84.435 87.44C85.464 87.44 86.3017 86.5926 86.3017 85.5497C86.3017 84.9825 86.0488 84.4791 85.6575 84.1325L87.0452 81.5754C87.2098 81.6237 87.3803 81.6583 87.5603 81.6583C88.5899 81.6583 89.427 80.8106 89.427 79.768C89.427 79.5005 89.3705 79.2463 89.2703 79.0151L94.1819 75.1616C94.513 75.4637 94.9467 75.6537 95.4264 75.6537C96.456 75.6537 97.2927 74.8056 97.2927 73.7627C97.2927 72.7197 96.455 71.8724 95.4264 71.8724C94.3974 71.8724 93.5596 72.7197 93.5596 73.7627C93.5596 74.0777 93.6431 74.3712 93.7791 74.6327L88.9017 78.4592C88.5617 78.1022 88.0873 77.877 87.5597 77.877C86.5307 77.877 85.693 78.7247 85.693 79.7673C85.693 80.3884 85.9942 80.936 86.4522 81.28L85.0921 83.7855C84.8867 83.7059 84.6666 83.658 84.4337 83.658C83.9399 83.658 83.4931 83.8563 83.1583 84.175L82.0873 83.182C82.2782 82.8859 82.3912 82.5336 82.3912 82.155C82.3912 81.1123 81.5535 80.2647 80.5245 80.2647C79.4955 80.2647 78.6578 81.1123 78.6578 82.155C78.6578 82.6936 78.8838 83.1773 79.2419 83.5213L76.7102 87.3402C76.4481 87.1978 76.1537 87.11 75.836 87.11C75.5571 87.11 75.2949 87.1765 75.0564 87.2883L70.3643 79.1931C70.7632 78.8464 71.0214 78.3381 71.0214 77.7649C71.0214 76.7222 70.1836 75.8746 69.1547 75.8746C68.1257 75.8746 67.288 76.7219 67.288 77.7649C67.288 78.3667 67.5725 78.8977 68.0068 79.244L65.5668 84.0832C65.3976 84.0326 65.2222 83.9967 65.0375 83.9967C64.0086 83.9967 63.1708 84.8441 63.1708 85.887C63.1708 86.93 64.0095 87.779 65.0385 87.779ZM95.4264 72.5407C96.0926 72.5407 96.634 73.0893 96.634 73.7637C96.634 74.4384 96.0923 74.9873 95.4264 74.9873C94.7604 74.9873 94.2187 74.4384 94.2187 73.7637C94.2187 73.0893 94.7608 72.5407 95.4264 72.5407ZM87.56 78.546C88.2263 78.546 88.7677 79.0946 88.7677 79.769C88.7677 80.4433 88.2256 80.9919 87.56 80.9919C86.8944 80.9919 86.3523 80.4433 86.3523 79.769C86.3523 79.0946 86.8941 78.546 87.56 78.546ZM84.4347 84.3271C85.1009 84.3271 85.6424 84.8757 85.6424 85.55C85.6424 86.2244 85.1006 86.773 84.4347 86.773C83.7687 86.773 83.227 86.2244 83.227 85.55C83.227 84.8757 83.7684 84.3271 84.4347 84.3271ZM80.5255 80.9337C81.1917 80.9337 81.7332 81.4823 81.7332 82.1566C81.7332 82.831 81.1914 83.3796 80.5255 83.3796C79.8595 83.3796 79.3178 82.831 79.3178 82.1566C79.3178 81.4823 79.8599 80.9337 80.5255 80.9337ZM77.046 89.0016C77.046 89.6756 76.5043 90.2246 75.8386 90.2246C75.173 90.2246 74.631 89.6756 74.631 89.0016C74.631 88.3276 75.173 87.7787 75.8386 87.7787C76.5039 87.779 77.046 88.3276 77.046 89.0016ZM69.1566 76.5433C69.8229 76.5433 70.3643 77.0922 70.3643 77.7662C70.3643 78.4412 69.8226 78.9898 69.1566 78.9898C68.4907 78.9898 67.949 78.4412 67.949 77.7662C67.949 77.0922 68.4904 76.5433 69.1566 76.5433ZM65.0385 84.6651C65.7051 84.6651 66.2462 85.2137 66.2462 85.888C66.2462 86.5627 65.7041 87.1116 65.0385 87.1116C64.3729 87.1116 63.8312 86.5627 63.8312 85.888C63.8312 85.214 64.3729 84.6651 65.0385 84.6651Z" fill="#A9D77C"/>
</g>
<defs>
<filter id="filter0_d" x="0" y="0" width="175" height="175" filterUnits="userSpaceOnUse" color-interpolation-filters="sRGB">
<feFlood flood-opacity="0" result="BackgroundImageFix"/>
<feColorMatrix in="SourceAlpha" type="matrix" values="0 0 0 0 0 0 0 0 0 0 0 0 0 0 0 0 0 0 127 0"/>
<feOffset/>
<feGaussianBlur stdDeviation="12.5"/>
<feColorMatrix type="matrix" values="0 0 0 0 0 0 0 0 0 0 0 0 0 0 0 0 0 0 0.15 0"/>
<feBlend mode="normal" in2="BackgroundImageFix" result="effect1_dropShadow"/>
<feBlend mode="normal" in="SourceGraphic" in2="effect1_dropShadow" result="shape"/>
</filter>
<filter id="filter1_i" x="43.75" y="43.75" width="87.5" height="88.5" filterUnits="userSpaceOnUse" color-interpolation-filters="sRGB">
<feFlood flood-opacity="0" result="BackgroundImageFix"/>
<feBlend mode="normal" in="SourceGraphic" in2="BackgroundImageFix" result="shape"/>
<feColorMatrix in="SourceAlpha" type="matrix" values="0 0 0 0 0 0 0 0 0 0 0 0 0 0 0 0 0 0 127 0" result="hardAlpha"/>
<feOffset dy="1"/>
<feGaussianBlur stdDeviation="1"/>
<feComposite in2="hardAlpha" operator="arithmetic" k2="-1" k3="1"/>
<feColorMatrix type="matrix" values="0 0 0 0 0.0208333 0 0 0 0 0.0208333 0 0 0 0 0.0208333 0 0 0 0.25 0"/>
<feBlend mode="normal" in2="shape" result="effect1_innerShadow"/>
</filter>
<linearGradient id="paint0_linear" x1="87.5" y1="25" x2="87.5" y2="150" gradientUnits="userSpaceOnUse">
<stop stop-color="#FFF0A2"/>
<stop offset="1" stop-color="#FFCE4F"/>
</linearGradient>
</defs>
</svg>
