<svg width="310" height="310" viewBox="0 0 310 310" fill="none" xmlns="http://www.w3.org/2000/svg">
<g filter="url(#filter0_d)">
<rect x="25" y="25" width="260" height="260" rx="25" fill="url(#paint0_linear)"/>
<rect x="25" y="25" width="260" height="260" rx="25" fill="white"/>
</g>
<g opacity="0.75">
<g opacity="0.75">
<path opacity="0.75" d="M70 193.76C70 193.891 70 194.015 70 194.145H85.2594C85.2594 194.015 85.2594 193.891 85.2594 193.76C85.439 175.975 92.6301 158.979 105.27 146.466C117.91 133.953 134.977 126.934 152.763 126.934C170.549 126.934 187.617 133.953 200.257 146.466C212.897 158.979 220.088 175.975 220.267 193.76C220.267 193.891 220.267 194.015 220.267 194.145H235.52C235.52 194.015 235.52 193.891 235.52 193.76C235.52 171.811 226.801 150.76 211.28 135.24C195.76 119.719 174.709 111 152.76 111C130.811 111 109.76 119.719 94.2398 135.24C78.7193 150.76 70 171.811 70 193.76" fill="#767676"/>
</g>
</g>
<path d="M152.753 194.145L194.525 147.39" stroke="#C4C4C4" stroke-width="6" stroke-linecap="round"/>
<path d="M94.6641 51.5117V56.6211C93.9922 55.8945 93.3594 55.3672 92.7656 55.0391C92.1016 54.7188 91.4141 54.5586 90.7031 54.5586C89.3672 54.5586 88.2773 55.0156 87.4336 55.9297C87.1445 56.2578 86.9102 56.6016 86.7305 56.9609C86.5508 57.3125 86.4141 57.7148 86.3203 58.168C86.2344 58.6133 86.1914 59.0664 86.1914 59.5273C86.1914 60.9023 86.6133 62.0469 87.457 62.9609C88.3086 63.8594 89.3906 64.3086 90.7031 64.3086C91.4062 64.3086 92.0938 64.1406 92.7656 63.8047C93.3594 63.5 93.9922 62.9766 94.6641 62.2344V67.3555C93.7969 67.7617 93.0586 68.0312 92.4492 68.1641C91.6914 68.3438 90.9492 68.4336 90.2227 68.4336C89.3008 68.4336 88.4336 68.3203 87.6211 68.0938C86.8086 67.875 86.082 67.5391 85.4414 67.0859C84.1602 66.2109 83.1836 65.1328 82.5117 63.8516C81.8398 62.5234 81.5039 61.0508 81.5039 59.4336C81.5039 58.1367 81.7227 56.9453 82.1602 55.8594C82.3555 55.3359 82.6016 54.8438 82.8984 54.3828C83.2031 53.9141 83.5938 53.4297 84.0703 52.9297C84.8906 52.0859 85.8125 51.4609 86.8359 51.0547C87.8516 50.6406 88.9805 50.4336 90.2227 50.4336C90.9336 50.4336 91.6758 50.5195 92.4492 50.6914C93.2148 50.8945 93.9531 51.168 94.6641 51.5117ZM97.0312 68V56.1641H100.969V58.9531C101.383 57.9297 101.934 57.168 102.621 56.668C103.332 56.1602 104.188 55.9062 105.188 55.9062C105.414 55.9062 105.582 55.9141 105.691 55.9297C105.777 55.9375 105.855 55.9453 105.926 55.9531C105.996 55.9531 106.086 55.9609 106.195 55.9766L105.797 59.7734C105.508 59.6797 105.258 59.6133 105.047 59.5742C104.734 59.543 104.504 59.5273 104.355 59.5273C103.34 59.5273 102.555 59.8398 102 60.4648C101.453 61.082 101.18 61.9609 101.18 63.1016V68H97.0312ZM115.898 60.5586C115.828 59.9023 115.574 59.3672 115.137 58.9531C114.699 58.5391 114.164 58.332 113.531 58.332C112.867 58.332 112.328 58.5156 111.914 58.8828C111.484 59.2969 111.215 59.8555 111.105 60.5586H115.898ZM120.012 62.9141H111.012C111.035 63.8359 111.266 64.5391 111.703 65.0234C112.156 65.5234 112.812 65.7734 113.672 65.7734C114.297 65.7734 114.832 65.6523 115.277 65.4102C115.73 65.1523 116.059 64.8008 116.262 64.3555L119.402 65.6211C119.035 66.5195 118.371 67.2148 117.41 67.707C116.457 68.207 115.289 68.457 113.906 68.457C111.844 68.457 110.188 67.8789 108.938 66.7227C107.695 65.5977 107.074 64.0938 107.074 62.2109C107.074 60.375 107.695 58.8398 108.938 57.6055C110.18 56.3945 111.758 55.7891 113.672 55.7891C115.625 55.7891 117.168 56.4023 118.301 57.6289C118.879 58.2617 119.309 59 119.59 59.8438C119.871 60.6797 120.012 61.6367 120.012 62.7148V62.9141ZM131.461 62.0938C131.461 61.1641 131.223 60.4375 130.746 59.9141C130.238 59.3828 129.566 59.1172 128.73 59.1172C127.887 59.1172 127.223 59.3828 126.738 59.9141C126.254 60.4453 126.012 61.1719 126.012 62.0938C126.012 63.0234 126.254 63.7539 126.738 64.2852C127.215 64.8086 127.879 65.0703 128.73 65.0703C129.574 65.0703 130.246 64.8086 130.746 64.2852C131.223 63.7617 131.461 63.0312 131.461 62.0938ZM135.164 49.8359V68H131.32V66.0781C130.789 66.8828 130.188 67.4766 129.516 67.8594C128.891 68.2578 128.156 68.457 127.312 68.457C125.656 68.457 124.332 67.8789 123.34 66.7227C122.355 65.5664 121.863 64.0234 121.863 62.0938C121.863 60.2188 122.359 58.6914 123.352 57.5117C124.336 56.3633 125.609 55.7891 127.172 55.7891C128.172 55.7891 128.984 55.9727 129.609 56.3398C130.211 56.6758 130.773 57.2734 131.297 58.1328C131.266 57.9219 131.234 57.6016 131.203 57.1719C131.172 56.7031 131.156 56.3203 131.156 56.0234V49.8359H135.164ZM138.164 68V56.1641H142.336V68H138.164ZM138.691 53.1172H138.715C138.715 52.6797 138.867 52.3203 139.172 52.0391C139.477 51.7344 139.844 51.582 140.273 51.582C140.727 51.582 141.098 51.7266 141.387 52.0156C141.684 52.3047 141.832 52.6719 141.832 53.1172C141.832 53.5703 141.68 53.9453 141.375 54.2422C141.078 54.5469 140.711 54.6992 140.273 54.6992C139.828 54.6992 139.453 54.5391 139.148 54.2188C138.844 53.9219 138.691 53.5547 138.691 53.1172ZM146.426 68L146.402 59.1172H144.633V56.1641H146.402V52.6367H150.539V56.1641H152.285V59.1172H150.539V68H146.426ZM162.82 62.457C163.539 63.2539 164.227 63.8438 164.883 64.2266C165.57 64.6172 166.242 64.8125 166.898 64.8125C167.516 64.8125 168.027 64.6445 168.434 64.3086C168.84 63.9727 169.043 63.5469 169.043 63.0312C169.043 62.4688 168.875 62.0273 168.539 61.707C168.18 61.4023 167.387 61.0859 166.16 60.7578C164.488 60.3047 163.305 59.7188 162.609 59C161.906 58.2656 161.555 57.2656 161.555 56C161.555 54.3594 162.105 53.0234 163.207 51.9922C164.293 50.9531 165.715 50.4336 167.473 50.4336C168.465 50.4336 169.363 50.5625 170.168 50.8203C171.012 51.0781 171.812 51.4609 172.57 51.9688L171.105 55.332C170.59 54.8867 170.043 54.543 169.465 54.3008C168.902 54.0742 168.352 53.9609 167.812 53.9609C167.266 53.9609 166.809 54.0977 166.441 54.3711C166.09 54.6289 165.914 54.9727 165.914 55.4023C165.914 55.8164 166.066 56.1602 166.371 56.4336C166.691 56.6914 167.293 56.9375 168.176 57.1719C168.207 57.1797 168.234 57.1875 168.258 57.1953C168.281 57.1953 168.316 57.2031 168.363 57.2188C170.27 57.7266 171.527 58.2969 172.137 58.9297C172.535 59.3281 172.848 59.832 173.074 60.4414C173.277 61.0195 173.379 61.6758 173.379 62.4102C173.379 64.2227 172.781 65.6875 171.586 66.8047C170.383 67.9062 168.789 68.457 166.805 68.457C165.586 68.457 164.496 68.2578 163.535 67.8594C162.582 67.4609 161.641 66.8203 160.711 65.9375L162.82 62.457ZM184.207 60.0547C183.801 59.6953 183.41 59.4336 183.035 59.2695C182.699 59.1055 182.305 59.0234 181.852 59.0234C181.016 59.0234 180.359 59.2969 179.883 59.8438C179.391 60.3828 179.145 61.125 179.145 62.0703C179.145 62.9766 179.398 63.6953 179.906 64.2266C180.398 64.7734 181.082 65.0469 181.957 65.0469C182.371 65.0469 182.77 64.9609 183.152 64.7891C183.559 64.5938 183.91 64.3359 184.207 64.0156V67.6367C183.707 67.9023 183.203 68.1133 182.695 68.2695C182.156 68.3945 181.645 68.457 181.16 68.457C179.332 68.457 177.859 67.8711 176.742 66.6992C176.359 66.3086 176.043 65.8789 175.793 65.4102C175.551 64.9414 175.363 64.4336 175.23 63.8867C175.105 63.3398 175.043 62.7422 175.043 62.0938C175.043 60.2266 175.613 58.7109 176.754 57.5469C177.902 56.375 179.387 55.7891 181.207 55.7891C181.777 55.7891 182.32 55.8516 182.836 55.9766C183.336 56.1016 183.793 56.2852 184.207 56.5273V60.0547ZM195.176 62.1172C195.176 61.2344 194.953 60.5391 194.508 60.0312C194.047 59.5234 193.445 59.2695 192.703 59.2695C191.938 59.2695 191.336 59.5234 190.898 60.0312C190.453 60.5234 190.23 61.2188 190.23 62.1172C190.23 62.9922 190.445 63.6797 190.875 64.1797C191.344 64.6953 191.953 64.9531 192.703 64.9531C193.453 64.9531 194.062 64.6953 194.531 64.1797C194.961 63.6641 195.176 62.9766 195.176 62.1172ZM199.324 62.1172C199.324 62.9844 199.156 63.793 198.82 64.543C198.469 65.3398 197.988 66.0273 197.379 66.6055C196.691 67.2461 195.98 67.7109 195.246 68C194.48 68.3047 193.633 68.457 192.703 68.457C191.766 68.457 190.918 68.3047 190.16 68C189.387 67.6953 188.672 67.2344 188.016 66.6172C187.367 65.9922 186.898 65.3008 186.609 64.543C186.273 63.8164 186.105 63.0078 186.105 62.1172C186.105 61.25 186.273 60.4336 186.609 59.668C186.922 58.8945 187.395 58.207 188.027 57.6055C188.645 57.0117 189.355 56.5547 190.16 56.2344C190.926 55.9375 191.773 55.7891 192.703 55.7891C193.625 55.7891 194.473 55.9375 195.246 56.2344C196.051 56.5547 196.762 57.0117 197.379 57.6055C198.027 58.1914 198.508 58.8789 198.82 59.668C199.156 60.4336 199.324 61.25 199.324 62.1172ZM201.75 68V56.1641H205.688V58.9531C206.102 57.9297 206.652 57.168 207.34 56.668C208.051 56.1602 208.906 55.9062 209.906 55.9062C210.133 55.9062 210.301 55.9141 210.41 55.9297C210.496 55.9375 210.574 55.9453 210.645 55.9531C210.715 55.9531 210.805 55.9609 210.914 55.9766L210.516 59.7734C210.227 59.6797 209.977 59.6133 209.766 59.5742C209.453 59.543 209.223 59.5273 209.074 59.5273C208.059 59.5273 207.273 59.8398 206.719 60.4648C206.172 61.082 205.898 61.9609 205.898 63.1016V68H201.75ZM220.617 60.5586C220.547 59.9023 220.293 59.3672 219.855 58.9531C219.418 58.5391 218.883 58.332 218.25 58.332C217.586 58.332 217.047 58.5156 216.633 58.8828C216.203 59.2969 215.934 59.8555 215.824 60.5586H220.617ZM224.73 62.9141H215.73C215.754 63.8359 215.984 64.5391 216.422 65.0234C216.875 65.5234 217.531 65.7734 218.391 65.7734C219.016 65.7734 219.551 65.6523 219.996 65.4102C220.449 65.1523 220.777 64.8008 220.98 64.3555L224.121 65.6211C223.754 66.5195 223.09 67.2148 222.129 67.707C221.176 68.207 220.008 68.457 218.625 68.457C216.562 68.457 214.906 67.8789 213.656 66.7227C212.414 65.5977 211.793 64.0938 211.793 62.2109C211.793 60.375 212.414 58.8398 213.656 57.6055C214.898 56.3945 216.477 55.7891 218.391 55.7891C220.344 55.7891 221.887 56.4023 223.02 57.6289C223.598 58.2617 224.027 59 224.309 59.8438C224.59 60.6797 224.73 61.6367 224.73 62.7148V62.9141Z" fill="#54575A"/>
<path d="M62.9645 239L58.6045 232.7C58.9045 232.7 59.5445 232.68 60.2445 232.44C61.9045 231.88 62.4845 230.52 62.4845 229.2C62.4845 228.16 62.1445 227.06 61.1045 226.34C60.2245 225.74 59.3045 225.66 58.2845 225.66H56.3645V239H57.2445V232.7H57.6445L61.9645 239H62.9645ZM57.2445 226.46H58.3445C58.8645 226.46 59.8245 226.54 60.3845 226.86C60.9045 227.14 61.5645 227.84 61.5645 229.18C61.5645 230.9 60.4245 231.9 58.5245 231.9H57.2445V226.46ZM70.9648 232.26C70.1848 231.16 69.0648 230.66 67.7848 230.66C65.4048 230.66 63.8048 232.4 63.8048 234.92C63.8048 237.6 65.6448 239.22 67.7848 239.22C68.8448 239.22 70.1448 238.8 70.9648 237.54V239H71.7648V230.84H70.9648V232.26ZM67.8248 231.42C69.2248 231.42 71.0048 232.44 71.0048 234.86C71.0048 236.74 69.8848 238.46 67.8448 238.46C65.7848 238.46 64.6448 236.7 64.6448 234.86C64.6448 232.64 66.2048 231.42 67.8248 231.42ZM76.9173 231.6V230.84H75.4973V227.92H74.6973V230.84H73.7973V231.6H74.6973V239H75.4973V231.6H76.9173ZM78.524 230.84V239H79.324V230.84H78.524ZM78.924 228.86C79.324 228.86 79.644 228.56 79.644 228.12C79.644 227.68 79.324 227.38 78.924 227.38C78.524 227.38 78.204 227.68 78.204 228.12C78.204 228.56 78.524 228.86 78.924 228.86ZM82.1959 239H82.9959V234.76C82.9959 233.96 83.0759 233.2 83.4359 232.56C83.7359 232.02 84.3159 231.42 85.4359 231.42C86.4159 231.42 86.8559 231.92 87.0359 232.22C87.3359 232.68 87.3559 233.3 87.3559 233.86V239H88.1559V233.86C88.1559 233.14 88.1159 232.38 87.7559 231.8C87.5759 231.52 86.9559 230.66 85.4959 230.66C84.1159 230.66 83.3759 231.44 82.9959 232.12V230.84H82.1959V239ZM97.7635 230.84V232.26C97.0635 231.26 95.9835 230.66 94.6435 230.66C92.0835 230.66 90.5235 232.56 90.5235 234.92C90.5235 237.76 92.5435 239.22 94.5435 239.22C95.7035 239.22 96.9435 238.74 97.7635 237.6V238.76C97.7635 239.6 97.6835 242.84 94.4635 242.84C92.7235 242.84 91.4435 241.8 91.3035 240.1H90.4635C90.5635 242.36 92.3435 243.6 94.4635 243.6C97.0235 243.6 98.5635 241.84 98.5635 238.76V230.84H97.7635ZM94.5635 231.42C96.5635 231.42 97.8035 232.98 97.8035 234.88C97.8035 236.88 96.5435 238.46 94.5235 238.46C92.6035 238.46 91.3635 236.92 91.3635 234.96C91.3635 233.08 92.5435 231.42 94.5635 231.42ZM106.102 224.42V239H106.902V237.54C107.142 237.94 108.042 239.22 110.062 239.22C112.542 239.22 114.062 237.26 114.062 234.86C114.062 232.5 112.562 230.66 110.102 230.66C108.802 230.66 107.682 231.2 106.902 232.26V224.42H106.102ZM110.042 238.46C107.982 238.46 106.862 236.86 106.862 234.82C106.862 232.56 108.462 231.42 110.062 231.42C111.742 231.42 113.222 232.62 113.222 234.86C113.222 236.86 112.102 238.46 110.042 238.46ZM123.055 232.26C122.275 231.16 121.155 230.66 119.875 230.66C117.495 230.66 115.895 232.4 115.895 234.92C115.895 237.6 117.735 239.22 119.875 239.22C120.935 239.22 122.235 238.8 123.055 237.54V239H123.855V230.84H123.055V232.26ZM119.915 231.42C121.315 231.42 123.095 232.44 123.095 234.86C123.095 236.74 121.975 238.46 119.935 238.46C117.875 238.46 116.735 236.7 116.735 234.86C116.735 232.64 118.295 231.42 119.915 231.42ZM130.887 231.98C130.507 231.1 129.707 230.66 128.747 230.66C127.507 230.66 126.567 231.52 126.567 232.76C126.567 233.24 126.747 233.58 126.927 233.82C127.287 234.3 127.887 234.56 128.707 234.9C129.947 235.4 130.527 235.74 130.527 236.66C130.527 237.72 129.747 238.46 128.707 238.46C127.807 238.46 126.947 237.9 126.667 236.82L125.887 237.06C126.227 238.42 127.347 239.22 128.707 239.22C129.967 239.22 131.367 238.48 131.367 236.62C131.367 236.16 131.287 235.72 130.947 235.3C130.427 234.64 129.667 234.42 128.847 234.1C128.047 233.78 127.407 233.52 127.407 232.72C127.407 232.12 127.867 231.42 128.787 231.42C129.367 231.42 129.927 231.7 130.207 232.34L130.887 231.98ZM140.707 235.02C140.707 232.42 139.047 230.66 136.847 230.66C134.847 230.66 132.887 232.12 132.887 234.96C132.887 237.34 134.367 239.22 136.907 239.22C138.927 239.22 140.007 237.92 140.487 237L139.807 236.6C139.287 237.68 138.287 238.46 136.967 238.46C135.247 238.46 133.727 237.1 133.727 235.02H140.707ZM133.787 234.26C134.007 232.68 135.187 231.42 136.847 231.42C138.467 231.42 139.667 232.64 139.867 234.26H133.787ZM149.715 232.26C149.075 231.34 148.035 230.66 146.555 230.66C144.575 230.66 142.555 231.9 142.555 234.88C142.555 237.74 144.495 239.22 146.555 239.22C147.595 239.22 148.895 238.8 149.715 237.54V239H150.515V224.42H149.715V232.26ZM146.555 231.42C148.575 231.42 149.755 232.96 149.755 234.86C149.755 237.24 148.215 238.46 146.595 238.46C144.955 238.46 143.395 237.24 143.395 234.86C143.395 232.58 144.875 231.42 146.555 231.42ZM161.815 230.66C159.395 230.66 157.535 232.52 157.535 234.94C157.535 237.36 159.395 239.22 161.815 239.22C164.235 239.22 166.095 237.36 166.095 234.94C166.095 232.52 164.235 230.66 161.815 230.66ZM161.815 238.46C159.855 238.46 158.375 236.92 158.375 234.94C158.375 232.96 159.855 231.42 161.815 231.42C163.775 231.42 165.255 232.96 165.255 234.94C165.255 236.92 163.775 238.46 161.815 238.46ZM168.446 239H169.246V234.76C169.246 233.96 169.326 233.2 169.686 232.56C169.986 232.02 170.566 231.42 171.686 231.42C172.666 231.42 173.106 231.92 173.286 232.22C173.586 232.68 173.606 233.3 173.606 233.86V239H174.406V233.86C174.406 233.14 174.366 232.38 174.006 231.8C173.826 231.52 173.206 230.66 171.746 230.66C170.366 230.66 169.626 231.44 169.246 232.12V230.84H168.446V239ZM188.601 232.26C187.821 231.16 186.701 230.66 185.421 230.66C183.041 230.66 181.441 232.4 181.441 234.92C181.441 237.6 183.281 239.22 185.421 239.22C186.481 239.22 187.781 238.8 188.601 237.54V239H189.401V230.84H188.601V232.26ZM185.461 231.42C186.861 231.42 188.641 232.44 188.641 234.86C188.641 236.74 187.521 238.46 185.481 238.46C183.421 238.46 182.281 236.7 182.281 234.86C182.281 232.64 183.841 231.42 185.461 231.42ZM192.274 224.42V239H193.074V224.42H192.274ZM198.226 231.6V230.84H196.806V227.92H196.006V230.84H195.106V231.6H196.006V239H196.806V231.6H198.226ZM207.133 235.02C207.133 232.42 205.473 230.66 203.273 230.66C201.273 230.66 199.313 232.12 199.313 234.96C199.313 237.34 200.793 239.22 203.333 239.22C205.353 239.22 206.433 237.92 206.913 237L206.233 236.6C205.713 237.68 204.713 238.46 203.393 238.46C201.673 238.46 200.153 237.1 200.153 235.02H207.133ZM200.213 234.26C200.433 232.68 201.613 231.42 203.273 231.42C204.893 231.42 206.093 232.64 206.293 234.26H200.213ZM209.501 239H210.301V234.62C210.301 233.6 210.321 231.42 211.961 231.42C212.321 231.42 212.481 231.52 212.561 231.58L212.961 230.86C212.661 230.7 212.321 230.66 212.101 230.66C211.221 230.66 210.601 231.2 210.301 231.9V230.84H209.501V239ZM214.696 239H215.496V234.76C215.496 233.96 215.576 233.2 215.936 232.56C216.236 232.02 216.816 231.42 217.936 231.42C218.916 231.42 219.356 231.92 219.536 232.22C219.836 232.68 219.856 233.3 219.856 233.86V239H220.656V233.86C220.656 233.14 220.616 232.38 220.256 231.8C220.076 231.52 219.456 230.66 217.996 230.66C216.616 230.66 215.876 231.44 215.496 232.12V230.84H214.696V239ZM230.184 232.26C229.404 231.16 228.284 230.66 227.004 230.66C224.624 230.66 223.024 232.4 223.024 234.92C223.024 237.6 224.864 239.22 227.004 239.22C228.064 239.22 229.364 238.8 230.184 237.54V239H230.984V230.84H230.184V232.26ZM227.044 231.42C228.444 231.42 230.224 232.44 230.224 234.86C230.224 236.74 229.104 238.46 227.064 238.46C225.004 238.46 223.864 236.7 223.864 234.86C223.864 232.64 225.424 231.42 227.044 231.42ZM236.136 231.6V230.84H234.716V227.92H233.916V230.84H233.016V231.6H233.916V239H234.716V231.6H236.136ZM237.743 230.84V239H238.543V230.84H237.743ZM238.143 228.86C238.543 228.86 238.863 228.56 238.863 228.12C238.863 227.68 238.543 227.38 238.143 227.38C237.743 227.38 237.423 227.68 237.423 228.12C237.423 228.56 237.743 228.86 238.143 228.86ZM240.135 230.84L243.895 239.5L247.615 230.84H246.735L243.895 237.62L241.015 230.84H240.135ZM256.508 235.02C256.508 232.42 254.848 230.66 252.648 230.66C250.648 230.66 248.688 232.12 248.688 234.96C248.688 237.34 250.168 239.22 252.708 239.22C254.728 239.22 255.808 237.92 256.288 237L255.608 236.6C255.088 237.68 254.088 238.46 252.768 238.46C251.048 238.46 249.528 237.1 249.528 235.02H256.508ZM249.588 234.26C249.808 232.68 250.988 231.42 252.648 231.42C254.268 231.42 255.468 232.64 255.668 234.26H249.588ZM133.211 258.26C132.571 257.34 131.531 256.66 130.051 256.66C128.071 256.66 126.051 257.9 126.051 260.88C126.051 263.74 127.991 265.22 130.051 265.22C131.091 265.22 132.391 264.8 133.211 263.54V265H134.011V250.42H133.211V258.26ZM130.051 257.42C132.071 257.42 133.251 258.96 133.251 260.86C133.251 263.24 131.711 264.46 130.091 264.46C128.451 264.46 126.891 263.24 126.891 260.86C126.891 258.58 128.371 257.42 130.051 257.42ZM143.523 258.26C142.743 257.16 141.623 256.66 140.343 256.66C137.963 256.66 136.363 258.4 136.363 260.92C136.363 263.6 138.203 265.22 140.343 265.22C141.403 265.22 142.703 264.8 143.523 263.54V265H144.323V256.84H143.523V258.26ZM140.383 257.42C141.783 257.42 143.563 258.44 143.563 260.86C143.563 262.74 142.443 264.46 140.403 264.46C138.343 264.46 137.203 262.7 137.203 260.86C137.203 258.64 138.763 257.42 140.383 257.42ZM149.476 257.6V256.84H148.056V253.92H147.256V256.84H146.356V257.6H147.256V265H148.056V257.6H149.476ZM157.723 258.26C156.943 257.16 155.823 256.66 154.543 256.66C152.163 256.66 150.563 258.4 150.563 260.92C150.563 263.6 152.403 265.22 154.543 265.22C155.603 265.22 156.903 264.8 157.723 263.54V265H158.523V256.84H157.723V258.26ZM154.583 257.42C155.983 257.42 157.763 258.44 157.763 260.86C157.763 262.74 156.643 264.46 154.603 264.46C152.543 264.46 151.403 262.7 151.403 260.86C151.403 258.64 152.963 257.42 154.583 257.42ZM165.555 257.98C165.175 257.1 164.375 256.66 163.415 256.66C162.175 256.66 161.235 257.52 161.235 258.76C161.235 259.24 161.415 259.58 161.595 259.82C161.955 260.3 162.555 260.56 163.375 260.9C164.615 261.4 165.195 261.74 165.195 262.66C165.195 263.72 164.415 264.46 163.375 264.46C162.475 264.46 161.615 263.9 161.335 262.82L160.555 263.06C160.895 264.42 162.015 265.22 163.375 265.22C164.635 265.22 166.035 264.48 166.035 262.62C166.035 262.16 165.955 261.72 165.615 261.3C165.095 260.64 164.335 260.42 163.515 260.1C162.715 259.78 162.075 259.52 162.075 258.72C162.075 258.12 162.535 257.42 163.455 257.42C164.035 257.42 164.595 257.7 164.875 258.34L165.555 257.98ZM175.375 261.02C175.375 258.42 173.715 256.66 171.515 256.66C169.515 256.66 167.555 258.12 167.555 260.96C167.555 263.34 169.035 265.22 171.575 265.22C173.595 265.22 174.675 263.92 175.155 263L174.475 262.6C173.955 263.68 172.955 264.46 171.635 264.46C169.915 264.46 168.395 263.1 168.395 261.02H175.375ZM168.455 260.26C168.675 258.68 169.855 257.42 171.515 257.42C173.135 257.42 174.335 258.64 174.535 260.26H168.455ZM180.023 257.6V256.84H178.603V253.92H177.803V256.84H176.903V257.6H177.803V265H178.603V257.6H180.023ZM185.789 257.98C185.409 257.1 184.609 256.66 183.649 256.66C182.409 256.66 181.469 257.52 181.469 258.76C181.469 259.24 181.649 259.58 181.829 259.82C182.189 260.3 182.789 260.56 183.609 260.9C184.849 261.4 185.429 261.74 185.429 262.66C185.429 263.72 184.649 264.46 183.609 264.46C182.709 264.46 181.849 263.9 181.569 262.82L180.789 263.06C181.129 264.42 182.249 265.22 183.609 265.22C184.869 265.22 186.269 264.48 186.269 262.62C186.269 262.16 186.189 261.72 185.849 261.3C185.329 260.64 184.569 260.42 183.749 260.1C182.949 259.78 182.309 259.52 182.309 258.72C182.309 258.12 182.769 257.42 183.689 257.42C184.269 257.42 184.829 257.7 185.109 258.34L185.789 257.98Z" fill="#6E7272"/>
<defs>
<filter id="filter0_d" x="0" y="0" width="310" height="310" filterUnits="userSpaceOnUse" color-interpolation-filters="sRGB">
<feFlood flood-opacity="0" result="BackgroundImageFix"/>
<feColorMatrix in="SourceAlpha" type="matrix" values="0 0 0 0 0 0 0 0 0 0 0 0 0 0 0 0 0 0 127 0"/>
<feOffset/>
<feGaussianBlur stdDeviation="12.5"/>
<feColorMatrix type="matrix" values="0 0 0 0 0 0 0 0 0 0 0 0 0 0 0 0 0 0 0.15 0"/>
<feBlend mode="normal" in2="BackgroundImageFix" result="effect1_dropShadow"/>
<feBlend mode="normal" in="SourceGraphic" in2="effect1_dropShadow" result="shape"/>
</filter>
<linearGradient id="paint0_linear" x1="155" y1="25" x2="155" y2="285" gradientUnits="userSpaceOnUse">
<stop stop-color="#FFF0A2"/>
<stop offset="1" stop-color="#FFCE4F"/>
</linearGradient>
</defs>
</svg>
