<svg width="175" height="175" viewBox="0 0 175 175" fill="none" xmlns="http://www.w3.org/2000/svg">
<g filter="url(#filter0_d)">
<rect x="25" y="25" width="125" height="125" rx="20" fill="url(#paint0_linear)"/>
<rect x="25" y="25" width="125" height="125" rx="20" fill="white"/>
</g>
<g filter="url(#filter1_i)">
<circle cx="87.5" cy="87.5002" r="42.25" stroke="#A9D77C" stroke-width="3"/>
<path d="M89.2738 85.3466C89.0505 85.3466 88.8276 85.3466 88.8276 85.1233C88.6044 84.6772 88.3811 84.0079 88.1583 83.5618C88.1583 83.5618 88.1583 83.3389 87.935 83.3389C88.1583 83.3389 90.3892 83.3389 91.2818 83.3389C91.2818 83.3389 91.5047 83.3389 91.5047 83.116C91.728 82.8928 91.9512 82.6699 91.9512 82.4467C92.1741 82.0005 92.3973 81.7773 92.6206 81.3312C92.1741 81.3312 83.4727 81.3312 79.4565 81.3312C79.2337 81.3312 79.0104 81.3312 79.0104 81.5544C78.7872 82.0005 78.3411 82.6699 77.895 83.116C77.895 83.116 77.8949 83.3389 77.6717 83.3389H77.895C79.2337 83.3389 80.5724 83.3389 81.9108 83.3389C82.8034 83.3389 83.696 83.5618 84.3653 84.2311C84.8115 84.454 85.0347 84.9005 85.2576 85.3466C85.2576 85.3466 85.2576 85.3466 85.0347 85.3466C83.696 85.3466 79.6798 85.3466 79.0104 85.3466C78.7872 85.3466 78.7872 85.3466 78.5643 85.5695C78.3411 86.0156 77.8949 86.4617 77.6717 86.9082C77.4484 87.1311 77.4485 87.3543 77.2256 87.5776C79.903 87.5776 82.5801 87.5776 85.2576 87.5776C85.2576 88.4698 84.8115 88.9159 84.3653 89.5853C83.4727 90.4779 82.3573 90.924 81.2414 91.1469C80.3492 91.1469 79.2337 91.1469 78.1178 91.1469C77.895 91.1469 77.895 91.1469 77.895 91.3701C77.895 91.8162 77.895 92.2623 77.895 92.7085C77.895 92.9317 77.895 93.1546 78.1178 93.1546C79.0104 94.2701 85.0347 101.41 85.7041 102.302L85.9269 102.525C86.8195 102.525 87.7118 102.525 88.6044 102.525C88.6044 102.525 88.8276 102.525 88.8276 102.302C88.8276 102.079 88.8276 101.856 88.6044 101.633C87.7118 100.517 81.4646 92.9313 81.2414 92.7081C81.4646 92.7081 81.4646 92.7081 81.4646 92.7081C82.8034 92.4852 83.9188 92.262 85.0347 91.5926C86.5963 90.7004 87.7118 89.5845 87.935 87.7997C87.935 87.5768 88.1583 87.5768 88.1583 87.5768C88.8276 87.5768 89.497 87.5768 90.166 87.5768C90.3892 87.5768 90.6125 87.5768 90.6125 87.3535C90.8354 86.9074 91.0586 86.4613 91.2818 86.2381C91.5047 86.0152 91.5047 85.7919 91.728 85.5687C91.5047 85.5687 91.5047 85.5687 91.5047 85.5687C91.5047 85.3466 90.3892 85.3466 89.2738 85.3466Z" fill="#A9D77C"/>
<path d="M110.692 85.7927H108.238V72.8523C108.238 71.0675 106.899 69.7287 105.115 69.7287H102.884L101.545 61.9196L88.1579 65.4893L85.4805 61.2502L71.8707 69.7287H71.6478H65.6236C63.8387 69.7287 62.5 71.0671 62.5 72.8523V109.889C62.5 111.674 63.8387 113.013 65.6236 113.013H105.115C106.899 113.013 108.238 111.674 108.238 109.889V97.1715H110.692C112.031 97.1715 113.37 96.056 113.37 94.4944V88.2473C113.37 86.9086 112.254 85.7927 110.692 85.7927ZM100.652 69.7287H79.9031L99.7596 64.5971L100.652 69.7287ZM84.8115 64.151L85.927 65.9358L78.7872 67.9435L84.8115 64.151ZM106.23 109.889C106.23 110.558 105.784 111.005 105.115 111.005H65.6236C64.9542 111.005 64.5081 110.558 64.5081 109.889V72.8523C64.5081 72.1829 64.9542 71.7368 65.6236 71.7368H71.2014H71.4246H71.6478H71.8707H105.115C105.784 71.7368 106.23 72.1829 106.23 72.8523V85.5698H103.33C101.991 85.5698 100.652 86.6853 100.652 88.2469V94.4941C100.652 95.8328 101.768 97.1711 103.33 97.1711H106.23V109.889ZM111.139 94.4944C111.139 94.7173 110.916 94.9406 110.692 94.9406H103.33C103.106 94.9406 102.884 94.7177 102.884 94.4944V88.2473C102.884 88.0244 103.106 87.8012 103.33 87.8012H110.692C110.916 87.8012 111.139 88.024 111.139 88.2473V94.4944Z" fill="#A9D77C"/>
</g>
<defs>
<filter id="filter0_d" x="0" y="0" width="175" height="175" filterUnits="userSpaceOnUse" color-interpolation-filters="sRGB">
<feFlood flood-opacity="0" result="BackgroundImageFix"/>
<feColorMatrix in="SourceAlpha" type="matrix" values="0 0 0 0 0 0 0 0 0 0 0 0 0 0 0 0 0 0 127 0"/>
<feOffset/>
<feGaussianBlur stdDeviation="12.5"/>
<feColorMatrix type="matrix" values="0 0 0 0 0 0 0 0 0 0 0 0 0 0 0 0 0 0 0.15 0"/>
<feBlend mode="normal" in2="BackgroundImageFix" result="effect1_dropShadow"/>
<feBlend mode="normal" in="SourceGraphic" in2="effect1_dropShadow" result="shape"/>
</filter>
<filter id="filter1_i" x="43.75" y="43.7502" width="87.5" height="88.5" filterUnits="userSpaceOnUse" color-interpolation-filters="sRGB">
<feFlood flood-opacity="0" result="BackgroundImageFix"/>
<feBlend mode="normal" in="SourceGraphic" in2="BackgroundImageFix" result="shape"/>
<feColorMatrix in="SourceAlpha" type="matrix" values="0 0 0 0 0 0 0 0 0 0 0 0 0 0 0 0 0 0 127 0" result="hardAlpha"/>
<feOffset dy="1"/>
<feGaussianBlur stdDeviation="1"/>
<feComposite in2="hardAlpha" operator="arithmetic" k2="-1" k3="1"/>
<feColorMatrix type="matrix" values="0 0 0 0 0.0208333 0 0 0 0 0.0208333 0 0 0 0 0.0208333 0 0 0 0.25 0"/>
<feBlend mode="normal" in2="shape" result="effect1_innerShadow"/>
</filter>
<linearGradient id="paint0_linear" x1="87.5" y1="25" x2="87.5" y2="150" gradientUnits="userSpaceOnUse">
<stop stop-color="#FFF0A2"/>
<stop offset="1" stop-color="#FFCE4F"/>
</linearGradient>
</defs>
</svg>
