<svg width="450" height="450" viewBox="0 0 450 450" fill="none" xmlns="http://www.w3.org/2000/svg">
<g filter="url(#filter0_d)">
<rect x="25" y="25" width="400" height="400" rx="30" fill="url(#paint0_linear)"/>
<rect x="25" y="25" width="400" height="400" rx="30" fill="white"/>
</g>
<path d="M224.939 160.216C217.163 160.219 209.497 162.05 202.559 165.562C195.621 169.073 189.606 174.167 185 180.431C189.987 186.111 196.127 190.661 203.013 193.778C209.898 196.895 217.369 198.508 224.926 198.508C232.484 198.508 239.955 196.895 246.84 193.778C253.726 190.661 259.866 186.111 264.853 180.431C260.262 174.157 254.254 169.055 247.318 165.542C240.382 162.029 232.714 160.205 224.939 160.216ZM224.939 106C220.271 105.985 215.703 107.356 211.815 109.94C207.927 112.524 204.894 116.205 203.1 120.515C201.306 124.825 200.833 129.571 201.74 134.151C202.647 138.73 204.894 142.937 208.195 146.239C211.496 149.54 215.703 151.786 220.282 152.693C224.862 153.6 229.608 153.127 233.918 151.333C238.228 149.54 241.909 146.507 244.493 142.618C247.077 138.73 248.448 134.162 248.433 129.494C248.406 123.276 245.92 117.322 241.519 112.93C237.117 108.538 231.157 106.065 224.939 106.052V106Z" fill="#C5C5C5"/>
<path d="M104.402 305.59H109.055L107.309 299.93C107.27 299.828 107.195 299.547 107.086 299.086C106.953 298.547 106.832 298.059 106.723 297.621C106.613 298.02 106.52 298.422 106.441 298.828C106.316 299.219 106.211 299.586 106.125 299.93L104.402 305.59ZM97.8516 312L103.77 294.844H109.629L115.559 312H110.906L110.039 308.93H103.395L102.504 312H97.8516ZM116.941 312V300.164H120.879V302.953C121.293 301.93 121.844 301.168 122.531 300.668C123.242 300.16 124.098 299.906 125.098 299.906C125.324 299.906 125.492 299.914 125.602 299.93C125.688 299.938 125.766 299.945 125.836 299.953C125.906 299.953 125.996 299.961 126.105 299.977L125.707 303.773C125.418 303.68 125.168 303.613 124.957 303.574C124.645 303.543 124.414 303.527 124.266 303.527C123.25 303.527 122.465 303.84 121.91 304.465C121.363 305.082 121.09 305.961 121.09 307.102V312H116.941ZM136.148 304.055C135.742 303.695 135.352 303.434 134.977 303.27C134.641 303.105 134.246 303.023 133.793 303.023C132.957 303.023 132.301 303.297 131.824 303.844C131.332 304.383 131.086 305.125 131.086 306.07C131.086 306.977 131.34 307.695 131.848 308.227C132.34 308.773 133.023 309.047 133.898 309.047C134.312 309.047 134.711 308.961 135.094 308.789C135.5 308.594 135.852 308.336 136.148 308.016V311.637C135.648 311.902 135.145 312.113 134.637 312.27C134.098 312.395 133.586 312.457 133.102 312.457C131.273 312.457 129.801 311.871 128.684 310.699C128.301 310.309 127.984 309.879 127.734 309.41C127.492 308.941 127.305 308.434 127.172 307.887C127.047 307.34 126.984 306.742 126.984 306.094C126.984 304.227 127.555 302.711 128.695 301.547C129.844 300.375 131.328 299.789 133.148 299.789C133.719 299.789 134.262 299.852 134.777 299.977C135.277 300.102 135.734 300.285 136.148 300.527V304.055ZM138.715 312V293.836H142.816V300.211C142.816 300.516 142.801 300.91 142.77 301.395C142.746 301.816 142.715 302.137 142.676 302.355C143.199 301.473 143.816 300.824 144.527 300.41C145.246 299.996 146.094 299.789 147.07 299.789C147.844 299.789 148.531 299.906 149.133 300.141C149.727 300.406 150.207 300.766 150.574 301.219C150.91 301.672 151.133 302.152 151.242 302.66C151.375 303.309 151.441 304.164 151.441 305.227V312H147.258V305.66C147.258 304.699 147.105 304.012 146.801 303.598C146.496 303.168 146 302.953 145.312 302.953C144.453 302.953 143.82 303.273 143.414 303.914C143.016 304.555 142.816 305.594 142.816 307.031V312H138.715ZM163.418 306.07C163.418 305.133 163.172 304.406 162.68 303.891C162.18 303.344 161.508 303.07 160.664 303.07C159.82 303.07 159.156 303.336 158.672 303.867C158.172 304.414 157.922 305.148 157.922 306.07C157.922 307 158.172 307.73 158.672 308.262C159.148 308.785 159.812 309.047 160.664 309.047C161.508 309.047 162.176 308.785 162.668 308.262C163.168 307.738 163.418 307.008 163.418 306.07ZM167.086 300.164V312H163.254V310.078C162.699 310.898 162.078 311.5 161.391 311.883C160.711 312.266 159.914 312.457 159 312.457C157.414 312.457 156.152 311.879 155.215 310.723C154.754 310.152 154.402 309.48 154.16 308.707C153.918 307.934 153.797 307.062 153.797 306.094C153.797 304.156 154.293 302.621 155.285 301.488C156.277 300.355 157.605 299.789 159.27 299.789C160.16 299.789 160.926 299.98 161.566 300.363C162.215 300.73 162.77 301.312 163.23 302.109V300.164H167.086ZM170.238 312V300.164H174.059V302.566C174.598 301.629 175.238 300.926 175.98 300.457C176.699 300.012 177.57 299.789 178.594 299.789C179.367 299.789 180.055 299.906 180.656 300.141C181.25 300.406 181.73 300.766 182.098 301.219C182.434 301.672 182.656 302.152 182.766 302.66C182.898 303.309 182.965 304.164 182.965 305.227V312H178.781V305.66C178.781 304.699 178.629 304.012 178.324 303.598C178.02 303.168 177.523 302.953 176.836 302.953C175.977 302.953 175.344 303.273 174.938 303.914C174.539 304.555 174.34 305.594 174.34 307.031V312H170.238ZM194.941 306.07C194.941 305.133 194.695 304.406 194.203 303.891C193.703 303.344 193.031 303.07 192.188 303.07C191.344 303.07 190.68 303.336 190.195 303.867C189.695 304.414 189.445 305.148 189.445 306.07C189.445 307 189.695 307.73 190.195 308.262C190.672 308.785 191.336 309.047 192.188 309.047C193.031 309.047 193.699 308.785 194.191 308.262C194.691 307.738 194.941 307.008 194.941 306.07ZM198.609 300.164V312H194.777V310.078C194.223 310.898 193.602 311.5 192.914 311.883C192.234 312.266 191.438 312.457 190.523 312.457C188.938 312.457 187.676 311.879 186.738 310.723C186.277 310.152 185.926 309.48 185.684 308.707C185.441 307.934 185.32 307.062 185.32 306.094C185.32 304.156 185.816 302.621 186.809 301.488C187.801 300.355 189.129 299.789 190.793 299.789C191.684 299.789 192.449 299.98 193.09 300.363C193.738 300.73 194.293 301.312 194.754 302.109V300.164H198.609ZM209.578 312V294.844H214.465C215.41 294.844 216.207 294.863 216.855 294.902C217.512 294.941 218.051 295.008 218.473 295.102C219.199 295.273 219.848 295.57 220.418 295.992C221.043 296.461 221.516 297.062 221.836 297.797C222.172 298.5 222.34 299.297 222.34 300.188C222.34 301.508 222.012 302.59 221.355 303.434C220.715 304.277 219.766 304.828 218.508 305.086L223.184 312H217.898L213.961 305.285V312H209.578ZM213.961 302.953H214.828C215.852 302.953 216.59 302.785 217.043 302.449C217.504 302.074 217.734 301.531 217.734 300.82C217.734 299.961 217.52 299.352 217.09 298.992C216.652 298.625 215.922 298.441 214.898 298.441H213.961V302.953ZM233.707 306.07C233.707 305.133 233.461 304.406 232.969 303.891C232.469 303.344 231.797 303.07 230.953 303.07C230.109 303.07 229.445 303.336 228.961 303.867C228.461 304.414 228.211 305.148 228.211 306.07C228.211 307 228.461 307.73 228.961 308.262C229.438 308.785 230.102 309.047 230.953 309.047C231.797 309.047 232.465 308.785 232.957 308.262C233.457 307.738 233.707 307.008 233.707 306.07ZM237.375 300.164V312H233.543V310.078C232.988 310.898 232.367 311.5 231.68 311.883C231 312.266 230.203 312.457 229.289 312.457C227.703 312.457 226.441 311.879 225.504 310.723C225.043 310.152 224.691 309.48 224.449 308.707C224.207 307.934 224.086 307.062 224.086 306.094C224.086 304.156 224.582 302.621 225.574 301.488C226.566 300.355 227.895 299.789 229.559 299.789C230.449 299.789 231.215 299.98 231.855 300.363C232.504 300.73 233.059 301.312 233.52 302.109V300.164H237.375ZM240.527 312V300.164H244.348V302.566C244.887 301.629 245.527 300.926 246.27 300.457C246.988 300.012 247.859 299.789 248.883 299.789C249.656 299.789 250.344 299.906 250.945 300.141C251.539 300.406 252.02 300.766 252.387 301.219C252.723 301.672 252.945 302.152 253.055 302.66C253.188 303.309 253.254 304.164 253.254 305.227V312H249.07V305.66C249.07 304.699 248.918 304.012 248.613 303.598C248.309 303.168 247.812 302.953 247.125 302.953C246.266 302.953 245.633 303.273 245.227 303.914C244.828 304.555 244.629 305.594 244.629 307.031V312H240.527ZM265.23 306.047C265.23 305.133 264.992 304.414 264.516 303.891C264 303.375 263.32 303.117 262.477 303.117C261.633 303.117 260.953 303.375 260.438 303.891C259.938 304.414 259.688 305.133 259.688 306.047C259.688 306.969 259.938 307.68 260.438 308.18C260.945 308.711 261.625 308.977 262.477 308.977C263.312 308.977 263.984 308.711 264.492 308.18C264.984 307.688 265.23 306.977 265.23 306.047ZM268.898 300.164V311.977C268.898 313.766 268.355 315.086 267.27 315.938C266.746 316.359 266.059 316.68 265.207 316.898C264.355 317.117 263.355 317.227 262.207 317.227C260.34 317.227 258.891 316.883 257.859 316.195C256.828 315.5 256.277 314.535 256.207 313.301H260.531C260.609 313.676 260.816 313.961 261.152 314.156C261.496 314.367 261.953 314.473 262.523 314.473C263.414 314.473 264.035 314.258 264.387 313.828C264.723 313.398 264.891 312.484 264.891 311.086V310.008C264.445 310.758 263.887 311.309 263.215 311.66C262.52 312.027 261.711 312.211 260.789 312.211C259.227 312.211 257.973 311.645 257.027 310.512C256.566 309.957 256.215 309.305 255.973 308.555C255.73 307.797 255.609 306.945 255.609 306C255.609 304.109 256.105 302.598 257.098 301.465C257.59 300.902 258.168 300.484 258.832 300.211C259.504 299.93 260.254 299.789 261.082 299.789C261.965 299.789 262.73 299.973 263.379 300.34C264.02 300.684 264.574 301.258 265.043 302.062V300.164H268.898ZM281.074 306.07C281.074 305.133 280.828 304.406 280.336 303.891C279.836 303.344 279.164 303.07 278.32 303.07C277.477 303.07 276.812 303.336 276.328 303.867C275.828 304.414 275.578 305.148 275.578 306.07C275.578 307 275.828 307.73 276.328 308.262C276.805 308.785 277.469 309.047 278.32 309.047C279.164 309.047 279.832 308.785 280.324 308.262C280.824 307.738 281.074 307.008 281.074 306.07ZM284.742 300.164V312H280.91V310.078C280.355 310.898 279.734 311.5 279.047 311.883C278.367 312.266 277.57 312.457 276.656 312.457C275.07 312.457 273.809 311.879 272.871 310.723C272.41 310.152 272.059 309.48 271.816 308.707C271.574 307.934 271.453 307.062 271.453 306.094C271.453 304.156 271.949 302.621 272.941 301.488C273.934 300.355 275.262 299.789 276.926 299.789C277.816 299.789 278.582 299.98 279.223 300.363C279.871 300.73 280.426 301.312 280.887 302.109V300.164H284.742ZM287.918 312V300.164H291.855V302.953C292.27 301.93 292.82 301.168 293.508 300.668C294.219 300.16 295.074 299.906 296.074 299.906C296.301 299.906 296.469 299.914 296.578 299.93C296.664 299.938 296.742 299.945 296.812 299.953C296.883 299.953 296.973 299.961 297.082 299.977L296.684 303.773C296.395 303.68 296.145 303.613 295.934 303.574C295.621 303.543 295.391 303.527 295.242 303.527C294.227 303.527 293.441 303.84 292.887 304.465C292.34 305.082 292.066 305.961 292.066 307.102V312H287.918ZM307.652 306.07C307.652 305.133 307.406 304.406 306.914 303.891C306.414 303.344 305.742 303.07 304.898 303.07C304.055 303.07 303.391 303.336 302.906 303.867C302.406 304.414 302.156 305.148 302.156 306.07C302.156 307 302.406 307.73 302.906 308.262C303.383 308.785 304.047 309.047 304.898 309.047C305.742 309.047 306.41 308.785 306.902 308.262C307.402 307.738 307.652 307.008 307.652 306.07ZM311.32 300.164V312H307.488V310.078C306.934 310.898 306.312 311.5 305.625 311.883C304.945 312.266 304.148 312.457 303.234 312.457C301.648 312.457 300.387 311.879 299.449 310.723C298.988 310.152 298.637 309.48 298.395 308.707C298.152 307.934 298.031 307.062 298.031 306.094C298.031 304.156 298.527 302.621 299.52 301.488C300.512 300.355 301.84 299.789 303.504 299.789C304.395 299.789 305.16 299.98 305.801 300.363C306.449 300.73 307.004 301.312 307.465 302.109V300.164H311.32ZM314.379 296.473C314.379 295.824 314.602 295.289 315.047 294.867C315.5 294.414 316.043 294.188 316.676 294.188C317.324 294.188 317.879 294.406 318.34 294.844C318.77 295.273 318.984 295.816 318.984 296.473C318.984 297.129 318.758 297.684 318.305 298.137C317.859 298.582 317.316 298.805 316.676 298.805C316.059 298.805 315.516 298.57 315.047 298.102C314.602 297.656 314.379 297.113 314.379 296.473ZM314.59 317.227V300.164H318.773V317.227H314.59ZM330.996 306.07C330.996 305.133 330.75 304.406 330.258 303.891C329.758 303.344 329.086 303.07 328.242 303.07C327.398 303.07 326.734 303.336 326.25 303.867C325.75 304.414 325.5 305.148 325.5 306.07C325.5 307 325.75 307.73 326.25 308.262C326.727 308.785 327.391 309.047 328.242 309.047C329.086 309.047 329.754 308.785 330.246 308.262C330.746 307.738 330.996 307.008 330.996 306.07ZM334.664 300.164V312H330.832V310.078C330.277 310.898 329.656 311.5 328.969 311.883C328.289 312.266 327.492 312.457 326.578 312.457C324.992 312.457 323.73 311.879 322.793 310.723C322.332 310.152 321.98 309.48 321.738 308.707C321.496 307.934 321.375 307.062 321.375 306.094C321.375 304.156 321.871 302.621 322.863 301.488C323.855 300.355 325.184 299.789 326.848 299.789C327.738 299.789 328.504 299.98 329.145 300.363C329.793 300.73 330.348 301.312 330.809 302.109V300.164H334.664ZM337.816 312V300.164H341.637V302.566C342.176 301.629 342.816 300.926 343.559 300.457C344.277 300.012 345.148 299.789 346.172 299.789C346.945 299.789 347.633 299.906 348.234 300.141C348.828 300.406 349.309 300.766 349.676 301.219C350.012 301.672 350.234 302.152 350.344 302.66C350.477 303.309 350.543 304.164 350.543 305.227V312H346.359V305.66C346.359 304.699 346.207 304.012 345.902 303.598C345.598 303.168 345.102 302.953 344.414 302.953C343.555 302.953 342.922 303.273 342.516 303.914C342.117 304.555 341.918 305.594 341.918 307.031V312H337.816Z" fill="#54575A"/>
<path d="M153.96 333.22C153.56 332.84 152.02 331.48 149.48 331.48C145.64 331.48 142.56 334.52 142.56 338.36C142.56 342.08 145.52 345.22 149.52 345.22C150.96 345.22 152.6 344.76 153.96 343.56V342.4C152.6 343.88 150.82 344.42 149.48 344.42C146.78 344.42 143.48 342.36 143.48 338.4C143.48 335.02 146.04 332.28 149.46 332.28C151.18 332.28 152.82 333.04 153.96 334.38V333.22ZM156.475 345H157.275V340.76C157.275 339.96 157.355 339.2 157.715 338.56C158.015 338.02 158.595 337.42 159.715 337.42C160.695 337.42 161.135 337.92 161.315 338.22C161.615 338.68 161.635 339.3 161.635 339.86V345H162.435V339.86C162.435 339.14 162.395 338.38 162.035 337.8C161.855 337.52 161.235 336.66 159.775 336.66C158.395 336.66 157.655 337.44 157.275 338.12V330.42H156.475V345ZM171.533 338.26C170.753 337.16 169.633 336.66 168.353 336.66C165.973 336.66 164.373 338.4 164.373 340.92C164.373 343.6 166.213 345.22 168.353 345.22C169.413 345.22 170.713 344.8 171.533 343.54V345H172.333V336.84H171.533V338.26ZM168.393 337.42C169.793 337.42 171.573 338.44 171.573 340.86C171.573 342.74 170.453 344.46 168.413 344.46C166.353 344.46 165.213 342.7 165.213 340.86C165.213 338.64 166.773 337.42 168.393 337.42ZM175.206 345H176.006V340.62C176.006 339.6 176.026 337.42 177.666 337.42C178.026 337.42 178.186 337.52 178.266 337.58L178.666 336.86C178.366 336.7 178.026 336.66 177.806 336.66C176.926 336.66 176.306 337.2 176.006 337.9V336.84H175.206V345ZM182.681 337.6V336.84H181.261V333.92H180.461V336.84H179.561V337.6H180.461V345H181.261V337.6H182.681ZM191.588 341.02C191.588 338.42 189.928 336.66 187.728 336.66C185.728 336.66 183.768 338.12 183.768 340.96C183.768 343.34 185.248 345.22 187.788 345.22C189.808 345.22 190.888 343.92 191.368 343L190.688 342.6C190.168 343.68 189.168 344.46 187.848 344.46C186.128 344.46 184.608 343.1 184.608 341.02H191.588ZM184.668 340.26C184.888 338.68 186.068 337.42 187.728 337.42C189.348 337.42 190.548 338.64 190.748 340.26H184.668ZM193.956 345H194.756V340.62C194.756 339.6 194.776 337.42 196.416 337.42C196.776 337.42 196.936 337.52 197.016 337.58L197.416 336.86C197.116 336.7 196.776 336.66 196.556 336.66C195.676 336.66 195.056 337.2 194.756 337.9V336.84H193.956V345ZM206.451 341.02C206.451 338.42 204.791 336.66 202.591 336.66C200.591 336.66 198.631 338.12 198.631 340.96C198.631 343.34 200.111 345.22 202.651 345.22C204.671 345.22 205.751 343.92 206.231 343L205.551 342.6C205.031 343.68 204.031 344.46 202.711 344.46C200.991 344.46 199.471 343.1 199.471 341.02H206.451ZM199.531 340.26C199.751 338.68 200.931 337.42 202.591 337.42C204.211 337.42 205.411 338.64 205.611 340.26H199.531ZM215.459 338.26C214.819 337.34 213.779 336.66 212.299 336.66C210.319 336.66 208.299 337.9 208.299 340.88C208.299 343.74 210.239 345.22 212.299 345.22C213.339 345.22 214.639 344.8 215.459 343.54V345H216.259V330.42H215.459V338.26ZM212.299 337.42C214.319 337.42 215.499 338.96 215.499 340.86C215.499 343.24 213.959 344.46 212.339 344.46C210.699 344.46 209.139 343.24 209.139 340.86C209.139 338.58 210.619 337.42 212.299 337.42ZM232.839 345H233.799L228.259 331.26L222.639 345H223.599L225.379 340.62H231.059L232.839 345ZM225.699 339.82L228.239 333.5L230.739 339.82H225.699ZM241.863 337.7C240.743 336.76 239.623 336.66 239.043 336.66C236.423 336.66 234.803 338.56 234.803 340.98C234.803 343.4 236.523 345.22 238.983 345.22C240.423 345.22 241.423 344.56 241.963 344.08V343C241.323 343.7 240.303 344.46 239.003 344.46C237.423 344.46 235.643 343.3 235.643 340.96C235.643 338.96 237.043 337.42 239.043 337.42C240.383 337.42 241.323 338.14 241.863 338.76V337.7ZM250.71 337.7C249.59 336.76 248.47 336.66 247.89 336.66C245.27 336.66 243.65 338.56 243.65 340.98C243.65 343.4 245.37 345.22 247.83 345.22C249.27 345.22 250.27 344.56 250.81 344.08V343C250.17 343.7 249.15 344.46 247.85 344.46C246.27 344.46 244.49 343.3 244.49 340.96C244.49 338.96 245.89 337.42 247.89 337.42C249.23 337.42 250.17 338.14 250.71 338.76V337.7ZM256.778 336.66C254.358 336.66 252.498 338.52 252.498 340.94C252.498 343.36 254.358 345.22 256.778 345.22C259.198 345.22 261.058 343.36 261.058 340.94C261.058 338.52 259.198 336.66 256.778 336.66ZM256.778 344.46C254.818 344.46 253.338 342.92 253.338 340.94C253.338 338.96 254.818 337.42 256.778 337.42C258.738 337.42 260.218 338.96 260.218 340.94C260.218 342.92 258.738 344.46 256.778 344.46ZM263.409 336.84V341.98C263.409 342.64 263.469 343.5 264.029 344.22C264.649 345.02 265.629 345.22 266.349 345.22C267.069 345.22 268.049 345.02 268.669 344.22C269.229 343.5 269.289 342.64 269.289 341.98V336.84H268.489V341.76C268.489 342.34 268.469 343.2 267.969 343.8C267.469 344.4 266.729 344.46 266.349 344.46C265.969 344.46 265.229 344.4 264.729 343.8C264.229 343.2 264.209 342.34 264.209 341.76V336.84H263.409ZM272.178 345H272.978V340.76C272.978 339.96 273.058 339.2 273.418 338.56C273.718 338.02 274.298 337.42 275.418 337.42C276.398 337.42 276.838 337.92 277.018 338.22C277.318 338.68 277.338 339.3 277.338 339.86V345H278.138V339.86C278.138 339.14 278.098 338.38 277.738 337.8C277.558 337.52 276.938 336.66 275.478 336.66C274.098 336.66 273.358 337.44 272.978 338.12V336.84H272.178V345ZM283.306 337.6V336.84H281.886V333.92H281.086V336.84H280.186V337.6H281.086V345H281.886V337.6H283.306ZM291.553 338.26C290.773 337.16 289.653 336.66 288.373 336.66C285.993 336.66 284.393 338.4 284.393 340.92C284.393 343.6 286.233 345.22 288.373 345.22C289.433 345.22 290.733 344.8 291.553 343.54V345H292.353V336.84H291.553V338.26ZM288.413 337.42C289.813 337.42 291.593 338.44 291.593 340.86C291.593 342.74 290.473 344.46 288.433 344.46C286.373 344.46 285.233 342.7 285.233 340.86C285.233 338.64 286.793 337.42 288.413 337.42ZM295.225 345H296.025V340.76C296.025 339.96 296.105 339.2 296.465 338.56C296.765 338.02 297.345 337.42 298.465 337.42C299.445 337.42 299.885 337.92 300.065 338.22C300.365 338.68 300.385 339.3 300.385 339.86V345H301.185V339.86C301.185 339.14 301.145 338.38 300.785 337.8C300.605 337.52 299.985 336.66 298.525 336.66C297.145 336.66 296.405 337.44 296.025 338.12V336.84H295.225V345ZM306.353 337.6V336.84H304.933V333.92H304.133V336.84H303.233V337.6H304.133V345H304.933V337.6H306.353ZM124.742 367.02C124.742 364.42 123.082 362.66 120.882 362.66C118.882 362.66 116.922 364.12 116.922 366.96C116.922 369.34 118.402 371.22 120.942 371.22C122.962 371.22 124.042 369.92 124.522 369L123.842 368.6C123.322 369.68 122.322 370.46 121.002 370.46C119.282 370.46 117.762 369.1 117.762 367.02H124.742ZM117.822 366.26C118.042 364.68 119.222 363.42 120.882 363.42C122.502 363.42 123.702 364.64 123.902 366.26H117.822ZM125.4 371H126.38L129.24 367.24L132.1 371H133.08L129.8 366.72L132.76 362.84H131.78L129.24 366.2L126.66 362.84H125.68L128.7 366.72L125.4 371ZM134.248 367.32H138.248V366.4H134.248V367.32ZM147.444 357.66H141.044V371H147.444V370.2H141.924V364.1H147.324V363.3H141.924V358.46H147.444V357.66ZM149.961 371H150.761V366.62C150.761 365.6 150.781 363.42 152.421 363.42C152.781 363.42 152.941 363.52 153.021 363.58L153.421 362.86C153.121 362.7 152.781 362.66 152.561 362.66C151.681 362.66 151.061 363.2 150.761 363.9V362.84H149.961V371ZM155.157 371H155.957V366.76C155.957 365.96 156.037 365.2 156.397 364.56C156.697 364.02 157.277 363.42 158.397 363.42C159.377 363.42 159.817 363.92 159.997 364.22C160.297 364.68 160.317 365.3 160.317 365.86V371H161.117V365.86C161.117 365.14 161.077 364.38 160.717 363.8C160.537 363.52 159.917 362.66 158.457 362.66C157.077 362.66 156.337 363.44 155.957 364.12V362.84H155.157V371ZM168.164 363.98C167.784 363.1 166.984 362.66 166.024 362.66C164.784 362.66 163.844 363.52 163.844 364.76C163.844 365.24 164.024 365.58 164.204 365.82C164.564 366.3 165.164 366.56 165.984 366.9C167.224 367.4 167.804 367.74 167.804 368.66C167.804 369.72 167.024 370.46 165.984 370.46C165.084 370.46 164.224 369.9 163.944 368.82L163.164 369.06C163.504 370.42 164.624 371.22 165.984 371.22C167.244 371.22 168.644 370.48 168.644 368.62C168.644 368.16 168.564 367.72 168.224 367.3C167.704 366.64 166.944 366.42 166.124 366.1C165.324 365.78 164.684 365.52 164.684 364.72C164.684 364.12 165.144 363.42 166.064 363.42C166.644 363.42 167.204 363.7 167.484 364.34L168.164 363.98ZM172.964 363.6V362.84H171.544V359.92H170.744V362.84H169.844V363.6H170.744V371H171.544V363.6H172.964ZM189.139 365.82C188.419 366.72 188.019 367.16 187.579 367.6L184.319 363.2C184.739 362.92 185.479 362.38 185.819 362.04C186.739 361.12 186.799 360.34 186.799 359.9C186.799 359.24 186.619 358.6 186.059 358.08C185.639 357.7 185.099 357.42 184.359 357.42C183.599 357.42 182.999 357.66 182.519 358.16C181.999 358.68 181.759 359.36 181.759 360C181.759 360.88 182.179 361.54 183.099 362.96L181.679 363.88C180.979 364.34 180.399 364.8 179.999 365.3C179.519 365.88 179.119 366.74 179.119 367.82C179.119 368.94 179.579 369.78 180.159 370.34C180.779 370.94 181.559 371.26 182.579 371.26C183.439 371.26 184.199 371.04 185.059 370.6C185.859 370.18 186.479 369.68 187.419 368.9L188.959 371H190.079L188.079 368.3C188.499 367.9 189.119 367.26 189.779 366.36L189.139 365.82ZM186.919 368.2C186.379 368.74 185.659 369.34 184.939 369.74C184.179 370.18 183.339 370.46 182.599 370.46C181.679 370.46 181.099 370.08 180.739 369.7C180.159 369.08 180.039 368.34 180.039 367.76C180.039 367.06 180.179 366.52 180.619 365.92C181.039 365.36 181.639 364.9 182.319 364.46L183.579 363.64L186.919 368.2ZM183.819 362.52C183.359 361.78 182.639 360.94 182.639 360.04C182.639 359.56 182.839 359.04 183.199 358.7C183.599 358.32 184.039 358.26 184.299 358.26C184.699 358.26 185.159 358.42 185.459 358.72C185.699 358.96 185.919 359.38 185.919 359.92C185.919 360.56 185.679 360.98 185.299 361.38C184.939 361.76 184.259 362.24 183.819 362.52ZM199.685 371H200.565V365.3L205.065 357.66H204.065L200.145 364.4L196.305 357.66H195.305L199.685 365.3V371ZM208.936 362.66C206.516 362.66 204.656 364.52 204.656 366.94C204.656 369.36 206.516 371.22 208.936 371.22C211.356 371.22 213.216 369.36 213.216 366.94C213.216 364.52 211.356 362.66 208.936 362.66ZM208.936 370.46C206.976 370.46 205.496 368.92 205.496 366.94C205.496 364.96 206.976 363.42 208.936 363.42C210.896 363.42 212.376 364.96 212.376 366.94C212.376 368.92 210.896 370.46 208.936 370.46ZM215.567 362.84V367.98C215.567 368.64 215.627 369.5 216.187 370.22C216.807 371.02 217.787 371.22 218.507 371.22C219.227 371.22 220.207 371.02 220.827 370.22C221.387 369.5 221.447 368.64 221.447 367.98V362.84H220.647V367.76C220.647 368.34 220.627 369.2 220.127 369.8C219.627 370.4 218.887 370.46 218.507 370.46C218.127 370.46 217.387 370.4 216.887 369.8C216.387 369.2 216.367 368.34 216.367 367.76V362.84H215.567ZM224.336 371H225.136V366.76C225.136 365.96 225.216 365.2 225.576 364.56C225.876 364.02 226.456 363.42 227.576 363.42C228.556 363.42 228.996 363.92 229.176 364.22C229.476 364.68 229.496 365.3 229.496 365.86V371H230.296V365.86C230.296 365.14 230.256 364.38 229.896 363.8C229.716 363.52 229.096 362.66 227.636 362.66C226.256 362.66 225.516 363.44 225.136 364.12V362.84H224.336V371ZM239.904 362.84V364.26C239.204 363.26 238.124 362.66 236.784 362.66C234.224 362.66 232.664 364.56 232.664 366.92C232.664 369.76 234.684 371.22 236.684 371.22C237.844 371.22 239.084 370.74 239.904 369.6V370.76C239.904 371.6 239.824 374.84 236.604 374.84C234.864 374.84 233.584 373.8 233.444 372.1H232.604C232.704 374.36 234.484 375.6 236.604 375.6C239.164 375.6 240.704 373.84 240.704 370.76V362.84H239.904ZM236.704 363.42C238.704 363.42 239.944 364.98 239.944 366.88C239.944 368.88 238.684 370.46 236.664 370.46C234.744 370.46 233.504 368.92 233.504 366.96C233.504 365.08 234.684 363.42 236.704 363.42ZM242.895 373.74L243.415 373.94L244.895 369.94L244.095 369.7L242.895 373.74ZM260.094 367.02C260.094 364.42 258.434 362.66 256.234 362.66C254.234 362.66 252.274 364.12 252.274 366.96C252.274 369.34 253.754 371.22 256.294 371.22C258.314 371.22 259.394 369.92 259.874 369L259.194 368.6C258.674 369.68 257.674 370.46 256.354 370.46C254.634 370.46 253.114 369.1 253.114 367.02H260.094ZM253.174 366.26C253.394 364.68 254.574 363.42 256.234 363.42C257.854 363.42 259.054 364.64 259.254 366.26H253.174ZM260.752 371H261.732L264.592 367.24L267.452 371H268.432L265.152 366.72L268.112 362.84H267.132L264.592 366.2L262.012 362.84H261.032L264.052 366.72L260.752 371ZM269.6 367.32H273.6V366.4H269.6V367.32ZM279.036 371C280.216 371 282.276 370.82 283.956 369.14C285.376 367.72 285.876 365.8 285.876 364.34C285.876 362.88 285.376 360.94 283.956 359.52C282.276 357.84 280.216 357.66 279.036 357.66H276.396V371H279.036ZM277.276 358.46H279.016C282.516 358.46 284.956 360.92 284.956 364.34C284.956 367.8 282.536 370.2 279.016 370.2H277.276V358.46ZM295.699 367.02C295.699 364.42 294.039 362.66 291.839 362.66C289.839 362.66 287.879 364.12 287.879 366.96C287.879 369.34 289.359 371.22 291.899 371.22C293.919 371.22 294.999 369.92 295.479 369L294.799 368.6C294.279 369.68 293.279 370.46 291.959 370.46C290.239 370.46 288.719 369.1 288.719 367.02H295.699ZM288.779 366.26C288.999 364.68 290.179 363.42 291.839 363.42C293.459 363.42 294.659 364.64 294.859 366.26H288.779ZM298.067 356.42V371H298.867V356.42H298.067ZM305.499 362.66C303.079 362.66 301.219 364.52 301.219 366.94C301.219 369.36 303.079 371.22 305.499 371.22C307.919 371.22 309.779 369.36 309.779 366.94C309.779 364.52 307.919 362.66 305.499 362.66ZM305.499 370.46C303.539 370.46 302.059 368.92 302.059 366.94C302.059 364.96 303.539 363.42 305.499 363.42C307.459 363.42 308.939 364.96 308.939 366.94C308.939 368.92 307.459 370.46 305.499 370.46ZM312.129 362.84V371H312.929V362.84H312.129ZM312.529 360.86C312.929 360.86 313.249 360.56 313.249 360.12C313.249 359.68 312.929 359.38 312.529 359.38C312.129 359.38 311.809 359.68 311.809 360.12C311.809 360.56 312.129 360.86 312.529 360.86ZM318.081 363.6V362.84H316.661V359.92H315.861V362.84H314.961V363.6H315.861V371H316.661V363.6H318.081ZM322.163 363.6V362.84H320.743V359.92H319.943V362.84H319.043V363.6H319.943V371H320.743V363.6H322.163ZM331.07 367.02C331.07 364.42 329.41 362.66 327.21 362.66C325.21 362.66 323.25 364.12 323.25 366.96C323.25 369.34 324.73 371.22 327.27 371.22C329.29 371.22 330.37 369.92 330.85 369L330.17 368.6C329.65 369.68 328.65 370.46 327.33 370.46C325.61 370.46 324.09 369.1 324.09 367.02H331.07ZM324.15 366.26C324.37 364.68 325.55 363.42 327.21 363.42C328.83 363.42 330.03 364.64 330.23 366.26H324.15Z" fill="#6E7272"/>
<defs>
<filter id="filter0_d" x="0" y="0" width="450" height="450" filterUnits="userSpaceOnUse" color-interpolation-filters="sRGB">
<feFlood flood-opacity="0" result="BackgroundImageFix"/>
<feColorMatrix in="SourceAlpha" type="matrix" values="0 0 0 0 0 0 0 0 0 0 0 0 0 0 0 0 0 0 127 0"/>
<feOffset/>
<feGaussianBlur stdDeviation="12.5"/>
<feColorMatrix type="matrix" values="0 0 0 0 0 0 0 0 0 0 0 0 0 0 0 0 0 0 0.15 0"/>
<feBlend mode="normal" in2="BackgroundImageFix" result="effect1_dropShadow"/>
<feBlend mode="normal" in="SourceGraphic" in2="effect1_dropShadow" result="shape"/>
</filter>
<linearGradient id="paint0_linear" x1="225" y1="25" x2="225" y2="425" gradientUnits="userSpaceOnUse">
<stop stop-color="#FFF0A2"/>
<stop offset="1" stop-color="#FFCE4F"/>
</linearGradient>
</defs>
</svg>
